<?xml version="1.0" encoding="UTF-8" standalone="no"?>
<!DOCTYPE svg PUBLIC "-//W3C//DTD SVG 1.1//EN"
 "http://www.w3.org/Graphics/SVG/1.1/DTD/svg11.dtd">
<!-- Generated by graphviz version 9.0.0 (20230911.1827)
 -->
<!-- Title: dependency&#45;cruiser output Pages: 1 -->
<svg width="530pt" height="1161pt"
 viewBox="0.00 0.00 530.00 1160.81" xmlns="http://www.w3.org/2000/svg" xmlns:xlink="http://www.w3.org/1999/xlink">
<g id="graph0" class="graph" transform="scale(1 1) rotate(0) translate(4 1156.81)">
<title>dependency&#45;cruiser output</title>
<polygon fill="white" stroke="none" points="-4,4 -4,-1156.81 526,-1156.81 526,4 -4,4"/>
<g id="clust1" class="cluster">
<title>cluster_app_admin</title>
<path fill="#ffffff" stroke="black" stroke-width="2" d="M231.75,-9.81C231.75,-9.81 324,-9.81 324,-9.81 330,-9.81 336,-15.81 336,-21.81 336,-21.81 336,-150.81 336,-150.81 336,-156.81 330,-162.81 324,-162.81 324,-162.81 231.75,-162.81 231.75,-162.81 225.75,-162.81 219.75,-156.81 219.75,-150.81 219.75,-150.81 219.75,-21.81 219.75,-21.81 219.75,-15.81 225.75,-9.81 231.75,-9.81"/>
<text text-anchor="middle" x="277.88" y="-150.26" font-family="Helvetica,sans-Serif" font-weight="bold" font-size="9.00">app_admin</text>
</g>
<g id="clust2" class="cluster">
<title>cluster_app_admin/e2e</title>
<path fill="#ffffff" stroke="black" stroke-width="2" d="M239.75,-80.81C239.75,-80.81 316,-80.81 316,-80.81 322,-80.81 328,-86.81 328,-92.81 328,-92.81 328,-123.81 328,-123.81 328,-129.81 322,-135.81 316,-135.81 316,-135.81 239.75,-135.81 239.75,-135.81 233.75,-135.81 227.75,-129.81 227.75,-123.81 227.75,-123.81 227.75,-92.81 227.75,-92.81 227.75,-86.81 233.75,-80.81 239.75,-80.81"/>
<text text-anchor="middle" x="277.88" y="-123.26" font-family="Helvetica,sans-Serif" font-weight="bold" font-size="9.00">e2e</text>
</g>
<g id="clust3" class="cluster">
<title>cluster_app_admin/src</title>
<path fill="#ffffff" stroke="black" stroke-width="2" d="M246.12,-17.81C246.12,-17.81 309.62,-17.81 309.62,-17.81 315.62,-17.81 321.62,-23.81 321.62,-29.81 321.62,-29.81 321.62,-60.81 321.62,-60.81 321.62,-66.81 315.62,-72.81 309.62,-72.81 309.62,-72.81 246.12,-72.81 246.12,-72.81 240.12,-72.81 234.12,-66.81 234.12,-60.81 234.12,-60.81 234.12,-29.81 234.12,-29.81 234.12,-23.81 240.12,-17.81 246.12,-17.81"/>
<text text-anchor="middle" x="277.88" y="-60.26" font-family="Helvetica,sans-Serif" font-weight="bold" font-size="9.00">src</text>
</g>
<g id="clust4" class="cluster">
<title>cluster_app_api</title>
<path fill="#ffffff" stroke="black" stroke-width="2" d="M133.5,-862.81C133.5,-862.81 323.62,-862.81 323.62,-862.81 329.62,-862.81 335.62,-868.81 335.62,-874.81 335.62,-874.81 335.62,-1132.81 335.62,-1132.81 335.62,-1138.81 329.62,-1144.81 323.62,-1144.81 323.62,-1144.81 133.5,-1144.81 133.5,-1144.81 127.5,-1144.81 121.5,-1138.81 121.5,-1132.81 121.5,-1132.81 121.5,-874.81 121.5,-874.81 121.5,-868.81 127.5,-862.81 133.5,-862.81"/>
<text text-anchor="middle" x="228.56" y="-1132.26" font-family="Helvetica,sans-Serif" font-weight="bold" font-size="9.00">app_api</text>
</g>
<g id="clust6" class="cluster">
<title>cluster_app_api/controllers</title>
<path fill="#ffffff" stroke="black" stroke-width="2" d="M240.12,-902.81C240.12,-902.81 315.62,-902.81 315.62,-902.81 321.62,-902.81 327.62,-908.81 327.62,-914.81 327.62,-914.81 327.62,-976.81 327.62,-976.81 327.62,-982.81 321.62,-988.81 315.62,-988.81 315.62,-988.81 240.12,-988.81 240.12,-988.81 234.12,-988.81 228.12,-982.81 228.12,-976.81 228.12,-976.81 228.12,-914.81 228.12,-914.81 228.12,-908.81 234.12,-902.81 240.12,-902.81"/>
<text text-anchor="middle" x="277.88" y="-976.26" font-family="Helvetica,sans-Serif" font-weight="bold" font-size="9.00">controllers</text>
</g>
<g id="clust5" class="cluster">
<title>cluster_app_api/config</title>
<path fill="#ffffff" stroke="black" stroke-width="2" d="M141.5,-870.81C141.5,-870.81 196,-870.81 196,-870.81 202,-870.81 208,-876.81 208,-882.81 208,-882.81 208,-913.81 208,-913.81 208,-919.81 202,-925.81 196,-925.81 196,-925.81 141.5,-925.81 141.5,-925.81 135.5,-925.81 129.5,-919.81 129.5,-913.81 129.5,-913.81 129.5,-882.81 129.5,-882.81 129.5,-876.81 135.5,-870.81 141.5,-870.81"/>
<text text-anchor="middle" x="168.75" y="-913.26" font-family="Helvetica,sans-Serif" font-weight="bold" font-size="9.00">config</text>
</g>
<g id="clust7" class="cluster">
<title>cluster_app_api/database</title>
<path fill="#ffffff" stroke="black" stroke-width="2" d="M145.75,-996.81C145.75,-996.81 308.88,-996.81 308.88,-996.81 314.88,-996.81 320.88,-1002.81 320.88,-1008.81 320.88,-1008.81 320.88,-1105.81 320.88,-1105.81 320.88,-1111.81 314.88,-1117.81 308.88,-1117.81 308.88,-1117.81 145.75,-1117.81 145.75,-1117.81 139.75,-1117.81 133.75,-1111.81 133.75,-1105.81 133.75,-1105.81 133.75,-1008.81 133.75,-1008.81 133.75,-1002.81 139.75,-996.81 145.75,-996.81"/>
<text text-anchor="middle" x="227.31" y="-1105.26" font-family="Helvetica,sans-Serif" font-weight="bold" font-size="9.00">database</text>
</g>
<g id="clust8" class="cluster">
<title>cluster_app_api/database/models</title>
<path fill="#ffffff" stroke="black" stroke-width="2" d="M254.88,-1004.81C254.88,-1004.81 300.88,-1004.81 300.88,-1004.81 306.88,-1004.81 312.88,-1010.81 312.88,-1016.81 312.88,-1016.81 312.88,-1078.81 312.88,-1078.81 312.88,-1084.81 306.88,-1090.81 300.88,-1090.81 300.88,-1090.81 254.88,-1090.81 254.88,-1090.81 248.88,-1090.81 242.88,-1084.81 242.88,-1078.81 242.88,-1078.81 242.88,-1016.81 242.88,-1016.81 242.88,-1010.81 248.88,-1004.81 254.88,-1004.81"/>
<text text-anchor="middle" x="277.88" y="-1078.26" font-family="Helvetica,sans-Serif" font-weight="bold" font-size="9.00">models</text>
</g>
<g id="clust9" class="cluster">
<title>cluster_app_api/routes</title>
<path fill="#ffffff" stroke="black" stroke-width="2" d="M145.75,-933.81C145.75,-933.81 191.75,-933.81 191.75,-933.81 197.75,-933.81 203.75,-939.81 203.75,-945.81 203.75,-945.81 203.75,-976.81 203.75,-976.81 203.75,-982.81 197.75,-988.81 191.75,-988.81 191.75,-988.81 145.75,-988.81 145.75,-988.81 139.75,-988.81 133.75,-982.81 133.75,-976.81 133.75,-976.81 133.75,-945.81 133.75,-945.81 133.75,-939.81 139.75,-933.81 145.75,-933.81"/>
<text text-anchor="middle" x="168.75" y="-976.26" font-family="Helvetica,sans-Serif" font-weight="bold" font-size="9.00">routes</text>
</g>
<g id="clust10" class="cluster">
<title>cluster_app_server</title>
<path fill="#ffffff" stroke="black" stroke-width="2" d="M129.75,-432.81C129.75,-432.81 308.88,-432.81 308.88,-432.81 314.88,-432.81 320.88,-438.81 320.88,-444.81 320.88,-444.81 320.88,-698.81 320.88,-698.81 320.88,-704.81 314.88,-710.81 308.88,-710.81 308.88,-710.81 129.75,-710.81 129.75,-710.81 123.75,-710.81 117.75,-704.81 117.75,-698.81 117.75,-698.81 117.75,-444.81 117.75,-444.81 117.75,-438.81 123.75,-432.81 129.75,-432.81"/>
<text text-anchor="middle" x="219.31" y="-698.26" font-family="Helvetica,sans-Serif" font-weight="bold" font-size="9.00">app_server</text>
</g>
<g id="clust11" class="cluster">
<title>cluster_app_server/controllers</title>
<path fill="#ffffff" stroke="black" stroke-width="2" d="M254.88,-597.81C254.88,-597.81 300.88,-597.81 300.88,-597.81 306.88,-597.81 312.88,-603.81 312.88,-609.81 312.88,-609.81 312.88,-671.81 312.88,-671.81 312.88,-677.81 306.88,-683.81 300.88,-683.81 300.88,-683.81 254.88,-683.81 254.88,-683.81 248.88,-683.81 242.88,-677.81 242.88,-671.81 242.88,-671.81 242.88,-609.81 242.88,-609.81 242.88,-603.81 248.88,-597.81 254.88,-597.81"/>
<text text-anchor="middle" x="277.88" y="-671.26" font-family="Helvetica,sans-Serif" font-weight="bold" font-size="9.00">controllers</text>
</g>
<g id="clust14" class="cluster">
<title>cluster_app_server/routes</title>
<path fill="#ffffff" stroke="black" stroke-width="2" d="M145.75,-566.81C145.75,-566.81 191.75,-566.81 191.75,-566.81 197.75,-566.81 203.75,-572.81 203.75,-578.81 203.75,-578.81 203.75,-671.81 203.75,-671.81 203.75,-677.81 197.75,-683.81 191.75,-683.81 191.75,-683.81 145.75,-683.81 145.75,-683.81 139.75,-683.81 133.75,-677.81 133.75,-671.81 133.75,-671.81 133.75,-578.81 133.75,-578.81 133.75,-572.81 139.75,-566.81 145.75,-566.81"/>
<text text-anchor="middle" x="168.75" y="-671.26" font-family="Helvetica,sans-Serif" font-weight="bold" font-size="9.00">routes</text>
</g>
<g id="clust12" class="cluster">
<title>cluster_app_server/database</title>
<path fill="#ffffff" stroke="black" stroke-width="2" d="M137.75,-440.81C137.75,-440.81 199.75,-440.81 199.75,-440.81 205.75,-440.81 211.75,-446.81 211.75,-452.81 211.75,-452.81 211.75,-546.81 211.75,-546.81 211.75,-552.81 205.75,-558.81 199.75,-558.81 199.75,-558.81 137.75,-558.81 137.75,-558.81 131.75,-558.81 125.75,-552.81 125.75,-546.81 125.75,-546.81 125.75,-452.81 125.75,-452.81 125.75,-446.81 131.75,-440.81 137.75,-440.81"/>
<text text-anchor="middle" x="168.75" y="-546.26" font-family="Helvetica,sans-Serif" font-weight="bold" font-size="9.00">database</text>
</g>
<g id="clust13" class="cluster">
<title>cluster_app_server/database/models</title>
<path fill="#ffffff" stroke="black" stroke-width="2" d="M145.75,-448.81C145.75,-448.81 191.75,-448.81 191.75,-448.81 197.75,-448.81 203.75,-454.81 203.75,-460.81 203.75,-460.81 203.75,-491.81 203.75,-491.81 203.75,-497.81 197.75,-503.81 191.75,-503.81 191.75,-503.81 145.75,-503.81 145.75,-503.81 139.75,-503.81 133.75,-497.81 133.75,-491.81 133.75,-491.81 133.75,-460.81 133.75,-460.81 133.75,-454.81 139.75,-448.81 145.75,-448.81"/>
<text text-anchor="middle" x="168.75" y="-491.26" font-family="Helvetica,sans-Serif" font-weight="bold" font-size="9.00">models</text>
</g>
<g id="clust15" class="cluster">
<title>cluster_node_modules</title>
<path fill="#ffffff" stroke="black" stroke-width="2" d="M356,-57.81C356,-57.81 502,-57.81 502,-57.81 508,-57.81 514,-63.81 514,-69.81 514,-69.81 514,-687.81 514,-687.81 514,-693.81 508,-699.81 502,-699.81 502,-699.81 356,-699.81 356,-699.81 350,-699.81 344,-693.81 344,-687.81 344,-687.81 344,-69.81 344,-69.81 344,-63.81 350,-57.81 356,-57.81"/>
<text text-anchor="middle" x="429" y="-687.26" font-family="Helvetica,sans-Serif" font-weight="bold" font-size="9.00">node_modules</text>
</g>
<g id="clust16" class="cluster">
<title>cluster_node_modules/@angular&#45;devkit</title>
<path fill="#ffffff" stroke="black" stroke-width="2" d="M397.62,-93.81C397.62,-93.81 460.38,-93.81 460.38,-93.81 466.38,-93.81 472.38,-99.81 472.38,-105.81 472.38,-105.81 472.38,-136.81 472.38,-136.81 472.38,-142.81 466.38,-148.81 460.38,-148.81 460.38,-148.81 397.62,-148.81 397.62,-148.81 391.62,-148.81 385.62,-142.81 385.62,-136.81 385.62,-136.81 385.62,-105.81 385.62,-105.81 385.62,-99.81 391.62,-93.81 397.62,-93.81"/>
<text text-anchor="middle" x="429" y="-136.26" font-family="Helvetica,sans-Serif" font-weight="bold" font-size="9.00">@angular&#45;devkit</text>
</g>
<!-- ./travlr -->
<g id="node1" class="node">
<title>./travlr</title>
<g id="a_node1"><a xlink:title="travlr">
<path fill="#ffffcc" stroke="black" d="M298.46,-424.43C298.46,-424.43 257.29,-424.43 257.29,-424.43 254.08,-424.43 250.88,-421.22 250.88,-418.01 250.88,-418.01 250.88,-411.6 250.88,-411.6 250.88,-408.39 254.08,-405.18 257.29,-405.18 257.29,-405.18 298.46,-405.18 298.46,-405.18 301.67,-405.18 304.88,-408.39 304.88,-411.6 304.88,-411.6 304.88,-418.01 304.88,-418.01 304.88,-421.22 301.67,-424.43 298.46,-424.43"/>
<text text-anchor="start" x="268.12" y="-411.88" font-family="Helvetica,sans-Serif" font-size="9.00">travlr</text>
</a>
</g>
</g>
<!-- .dependency&#45;cruiser.js -->
<g id="node2" class="node">
<title>.dependency&#45;cruiser.js</title>
<g id="a_node2"><a xlink:href=".dependency-cruiser.js" xlink:title=".dependency&#45;cruiser.js">
<path fill="#ccffcc" stroke="black" d="M103.33,-361.43C103.33,-361.43 6.42,-361.43 6.42,-361.43 3.21,-361.43 0,-358.22 0,-355.01 0,-355.01 0,-348.6 0,-348.6 0,-345.39 3.21,-342.18 6.42,-342.18 6.42,-342.18 103.33,-342.18 103.33,-342.18 106.54,-342.18 109.75,-345.39 109.75,-348.6 109.75,-348.6 109.75,-355.01 109.75,-355.01 109.75,-358.22 106.54,-361.43 103.33,-361.43"/>
<text text-anchor="middle" x="54.88" y="-348.88" font-family="Helvetica,sans-Serif" font-size="9.00">.dependency&#45;cruiser.js</text>
</a>
</g>
</g>
<!-- .seedgooserc.js -->
<g id="node3" class="node">
<title>.seedgooserc.js</title>
<g id="a_node3"><a xlink:href=".seedgooserc.js" xlink:title=".seedgooserc.js">
<path fill="#ccffcc" stroke="black" d="M89.83,-392.43C89.83,-392.43 19.92,-392.43 19.92,-392.43 16.71,-392.43 13.5,-389.22 13.5,-386.01 13.5,-386.01 13.5,-379.6 13.5,-379.6 13.5,-376.39 16.71,-373.18 19.92,-373.18 19.92,-373.18 89.83,-373.18 89.83,-373.18 93.04,-373.18 96.25,-376.39 96.25,-379.6 96.25,-379.6 96.25,-386.01 96.25,-386.01 96.25,-389.22 93.04,-392.43 89.83,-392.43"/>
<text text-anchor="middle" x="54.88" y="-379.88" font-family="Helvetica,sans-Serif" font-size="9.00">.seedgooserc.js</text>
</a>
</g>
</g>
<!-- app.js -->
<g id="node4" class="node">
<title>app.js</title>
<g id="a_node4"><a xlink:href="app.js" xlink:title="app.js">
<path fill="#ffffcc" stroke="black" d="M75.46,-330.43C75.46,-330.43 34.29,-330.43 34.29,-330.43 31.08,-330.43 27.88,-327.22 27.88,-324.01 27.88,-324.01 27.88,-317.6 27.88,-317.6 27.88,-314.39 31.08,-311.18 34.29,-311.18 34.29,-311.18 75.46,-311.18 75.46,-311.18 78.67,-311.18 81.88,-314.39 81.88,-317.6 81.88,-317.6 81.88,-324.01 81.88,-324.01 81.88,-327.22 78.67,-330.43 75.46,-330.43"/>
<text text-anchor="middle" x="54.88" y="-317.88" font-family="Helvetica,sans-Serif" font-size="9.00">app.js</text>
</a>
</g>
</g>
<!-- app_api/config/passport.js -->
<g id="node5" class="node">
<title>app_api/config/passport.js</title>
<g id="a_node5"><a xlink:href="app_api/config/passport.js" xlink:title="passport.js">
<path fill="#ffffcc" stroke="black" d="M193.58,-898.43C193.58,-898.43 143.92,-898.43 143.92,-898.43 140.71,-898.43 137.5,-895.22 137.5,-892.01 137.5,-892.01 137.5,-885.6 137.5,-885.6 137.5,-882.39 140.71,-879.18 143.92,-879.18 143.92,-879.18 193.58,-879.18 193.58,-879.18 196.79,-879.18 200,-882.39 200,-885.6 200,-885.6 200,-892.01 200,-892.01 200,-895.22 196.79,-898.43 193.58,-898.43"/>
<text text-anchor="start" x="145.5" y="-885.88" font-family="Helvetica,sans-Serif" font-size="9.00">passport.js</text>
</a>
</g>
</g>
<!-- app.js&#45;&gt;app_api/config/passport.js -->
<g id="edge1" class="edge">
<title>app.js&#45;&gt;app_api/config/passport.js</title>
<path fill="none" stroke="#000000" stroke-width="2" stroke-opacity="0.200000" d="M82.34,-321.7C92.52,-323.49 103.25,-327.45 109.75,-335.81 121.72,-351.2 115.17,-667.47 117.75,-686.81 126.97,-755.84 150.65,-835.45 161.79,-870.56"/>
<polygon fill="#000000" fill-opacity="0.200000" stroke="#000000" stroke-width="2" stroke-opacity="0.200000" points="159.7,-870.91 163.53,-875.98 163.7,-869.63 159.7,-870.91"/>
</g>
<!-- app_api/database/db.js -->
<g id="node6" class="node">
<title>app_api/database/db.js</title>
<g id="a_node6"><a xlink:href="app_api/database/db.js" xlink:title="db.js">
<path fill="#ffffcc" stroke="black" d="M189.33,-1024.43C189.33,-1024.43 148.17,-1024.43 148.17,-1024.43 144.96,-1024.43 141.75,-1021.22 141.75,-1018.01 141.75,-1018.01 141.75,-1011.6 141.75,-1011.6 141.75,-1008.39 144.96,-1005.18 148.17,-1005.18 148.17,-1005.18 189.33,-1005.18 189.33,-1005.18 192.54,-1005.18 195.75,-1008.39 195.75,-1011.6 195.75,-1011.6 195.75,-1018.01 195.75,-1018.01 195.75,-1021.22 192.54,-1024.43 189.33,-1024.43"/>
<text text-anchor="start" x="158.62" y="-1011.88" font-family="Helvetica,sans-Serif" font-size="9.00">db.js</text>
</a>
</g>
</g>
<!-- app.js&#45;&gt;app_api/database/db.js -->
<g id="edge2" class="edge">
<title>app.js&#45;&gt;app_api/database/db.js</title>
<path fill="none" stroke="#000000" stroke-width="2" stroke-opacity="0.200000" d="M82.1,-321.62C92.38,-323.38 103.24,-327.34 109.75,-335.81 131.97,-364.69 97.9,-961.24 117.75,-991.81 121.52,-997.61 127.16,-1001.97 133.3,-1005.24"/>
<polygon fill="#000000" fill-opacity="0.200000" stroke="#000000" stroke-width="2" stroke-opacity="0.200000" points="132.17,-1007.03 138.5,-1007.58 133.89,-1003.2 132.17,-1007.03"/>
</g>
<!-- app_api/routes/index.js -->
<g id="node7" class="node">
<title>app_api/routes/index.js</title>
<g id="a_node7"><a xlink:href="app_api/routes/index.js" xlink:title="index.js">
<path fill="#ffffcc" stroke="black" d="M189.33,-961.43C189.33,-961.43 148.17,-961.43 148.17,-961.43 144.96,-961.43 141.75,-958.22 141.75,-955.01 141.75,-955.01 141.75,-948.6 141.75,-948.6 141.75,-945.39 144.96,-942.18 148.17,-942.18 148.17,-942.18 189.33,-942.18 189.33,-942.18 192.54,-942.18 195.75,-945.39 195.75,-948.6 195.75,-948.6 195.75,-955.01 195.75,-955.01 195.75,-958.22 192.54,-961.43 189.33,-961.43"/>
<text text-anchor="start" x="153" y="-948.88" font-family="Helvetica,sans-Serif" font-size="9.00">index.js</text>
</a>
</g>
</g>
<!-- app.js&#45;&gt;app_api/routes/index.js -->
<g id="edge3" class="edge">
<title>app.js&#45;&gt;app_api/routes/index.js</title>
<path fill="none" stroke="#000000" stroke-width="2" stroke-opacity="0.200000" d="M82.1,-321.62C92.37,-323.39 103.23,-327.34 109.75,-335.81 129.86,-361.91 99.79,-901.18 117.75,-928.81 121.52,-934.61 127.16,-938.97 133.31,-942.24"/>
<polygon fill="#000000" fill-opacity="0.200000" stroke="#000000" stroke-width="2" stroke-opacity="0.200000" points="132.18,-944.03 138.51,-944.58 133.9,-940.2 132.18,-944.03"/>
</g>
<!-- app_server/routes/index.js -->
<g id="node8" class="node">
<title>app_server/routes/index.js</title>
<g id="a_node8"><a xlink:href="app_server/routes/index.js" xlink:title="index.js">
<path fill="#ffffcc" stroke="black" d="M189.33,-656.43C189.33,-656.43 148.17,-656.43 148.17,-656.43 144.96,-656.43 141.75,-653.22 141.75,-650.01 141.75,-650.01 141.75,-643.6 141.75,-643.6 141.75,-640.39 144.96,-637.18 148.17,-637.18 148.17,-637.18 189.33,-637.18 189.33,-637.18 192.54,-637.18 195.75,-640.39 195.75,-643.6 195.75,-643.6 195.75,-650.01 195.75,-650.01 195.75,-653.22 192.54,-656.43 189.33,-656.43"/>
<text text-anchor="start" x="153" y="-643.88" font-family="Helvetica,sans-Serif" font-size="9.00">index.js</text>
</a>
</g>
</g>
<!-- app.js&#45;&gt;app_server/routes/index.js -->
<g id="edge4" class="edge">
<title>app.js&#45;&gt;app_server/routes/index.js</title>
<path fill="none" stroke="#000000" stroke-width="2" stroke-opacity="0.200000" d="M82.32,-321.71C92.5,-323.51 103.24,-327.47 109.75,-335.81 130,-361.73 97.76,-605.68 117.75,-631.81 121.61,-636.85 127.11,-640.26 133.06,-642.55"/>
<polygon fill="#000000" fill-opacity="0.200000" stroke="#000000" stroke-width="2" stroke-opacity="0.200000" points="132.09,-644.45 138.44,-644.15 133.29,-640.42 132.09,-644.45"/>
</g>
<!-- app_server/routes/travel.js -->
<g id="node9" class="node">
<title>app_server/routes/travel.js</title>
<g id="a_node9"><a xlink:href="app_server/routes/travel.js" xlink:title="travel.js">
<path fill="#ffffcc" stroke="black" d="M189.33,-625.43C189.33,-625.43 148.17,-625.43 148.17,-625.43 144.96,-625.43 141.75,-622.22 141.75,-619.01 141.75,-619.01 141.75,-612.6 141.75,-612.6 141.75,-609.39 144.96,-606.18 148.17,-606.18 148.17,-606.18 189.33,-606.18 189.33,-606.18 192.54,-606.18 195.75,-609.39 195.75,-612.6 195.75,-612.6 195.75,-619.01 195.75,-619.01 195.75,-622.22 192.54,-625.43 189.33,-625.43"/>
<text text-anchor="start" x="153" y="-612.88" font-family="Helvetica,sans-Serif" font-size="9.00">travel.js</text>
</a>
</g>
</g>
<!-- app.js&#45;&gt;app_server/routes/travel.js -->
<g id="edge5" class="edge">
<title>app.js&#45;&gt;app_server/routes/travel.js</title>
<path fill="none" stroke="#000000" stroke-width="2" stroke-opacity="0.200000" d="M82.31,-321.72C92.49,-323.52 103.22,-327.48 109.75,-335.81 127.92,-358.99 99.81,-577.44 117.75,-600.81 121.62,-605.85 127.12,-609.25 133.07,-611.54"/>
<polygon fill="#000000" fill-opacity="0.200000" stroke="#000000" stroke-width="2" stroke-opacity="0.200000" points="132.1,-613.44 138.45,-613.14 133.3,-609.41 132.1,-613.44"/>
</g>
<!-- app_server/routes/users.js -->
<g id="node10" class="node">
<title>app_server/routes/users.js</title>
<g id="a_node10"><a xlink:href="app_server/routes/users.js" xlink:title="users.js">
<path fill="#ffffcc" stroke="black" d="M189.33,-594.43C189.33,-594.43 148.17,-594.43 148.17,-594.43 144.96,-594.43 141.75,-591.22 141.75,-588.01 141.75,-588.01 141.75,-581.6 141.75,-581.6 141.75,-578.39 144.96,-575.18 148.17,-575.18 148.17,-575.18 189.33,-575.18 189.33,-575.18 192.54,-575.18 195.75,-578.39 195.75,-581.6 195.75,-581.6 195.75,-588.01 195.75,-588.01 195.75,-591.22 192.54,-594.43 189.33,-594.43"/>
<text text-anchor="start" x="151.88" y="-581.88" font-family="Helvetica,sans-Serif" font-size="9.00">users.js</text>
</a>
</g>
</g>
<!-- app.js&#45;&gt;app_server/routes/users.js -->
<g id="edge6" class="edge">
<title>app.js&#45;&gt;app_server/routes/users.js</title>
<path fill="none" stroke="#000000" stroke-width="2" stroke-opacity="0.200000" d="M82.29,-321.74C92.46,-323.54 103.2,-327.49 109.75,-335.81 125.3,-355.54 103.82,-540.89 117.75,-561.81 121.59,-567.56 127.25,-571.91 133.41,-575.17"/>
<polygon fill="#000000" fill-opacity="0.200000" stroke="#000000" stroke-width="2" stroke-opacity="0.200000" points="132.27,-576.96 138.6,-577.51 134,-573.13 132.27,-576.96"/>
</g>
<!-- node_modules/cookie&#45;parser -->
<g id="node11" class="node">
<title>node_modules/cookie&#45;parser</title>
<g id="a_node11"><a xlink:href="https://www.npmjs.com/package/cookie-parser" xlink:title="cookie&#45;parser">
<polygon fill="#c40b0a" fill-opacity="0.101961" stroke="black" points="465.5,-455.43 394.64,-455.43 392.5,-453.29 392.5,-436.18 463.36,-436.18 465.5,-438.32 465.5,-455.43"/>
<polyline fill="none" stroke="black" points="463.36,-453.29 392.5,-453.29"/>
<polyline fill="none" stroke="black" points="463.36,-453.29 463.36,-436.18"/>
<polyline fill="none" stroke="black" points="463.36,-453.29 465.5,-455.43"/>
<text text-anchor="start" x="400.5" y="-442.88" font-family="Helvetica,sans-Serif" font-size="9.00" fill="#c40b0a">cookie&#45;parser</text>
</a>
</g>
</g>
<!-- app.js&#45;&gt;node_modules/cookie&#45;parser -->
<g id="edge7" class="edge">
<title>app.js&#45;&gt;node_modules/cookie&#45;parser</title>
<path fill="none" stroke="#000000" stroke-opacity="0.200000" d="M77.11,-310.77C88.81,-305.8 103.76,-300.32 117.75,-297.81 165.48,-289.22 300.69,-264.56 336,-297.81 357.56,-318.1 324.32,-408.68 344,-430.81 354.15,-442.22 369.76,-446.87 384.77,-448.36"/>
<polygon fill="#000000" fill-opacity="0.200000" stroke="#000000" stroke-opacity="0.200000" points="384.43,-450.44 390.56,-448.75 384.72,-446.25 384.43,-450.44"/>
</g>
<!-- node_modules/dotenv -->
<g id="node12" class="node">
<title>node_modules/dotenv</title>
<g id="a_node12"><a xlink:href="https://www.npmjs.com/package/dotenv" xlink:title="dotenv">
<polygon fill="#c40b0a" fill-opacity="0.101961" stroke="black" points="456,-424.43 404.14,-424.43 402,-422.29 402,-405.18 453.86,-405.18 456,-407.32 456,-424.43"/>
<polyline fill="none" stroke="black" points="453.86,-422.29 402,-422.29"/>
<polyline fill="none" stroke="black" points="453.86,-422.29 453.86,-405.18"/>
<polyline fill="none" stroke="black" points="453.86,-422.29 456,-424.43"/>
<text text-anchor="start" x="415.5" y="-411.88" font-family="Helvetica,sans-Serif" font-size="9.00" fill="#c40b0a">dotenv</text>
</a>
</g>
</g>
<!-- app.js&#45;&gt;node_modules/dotenv -->
<g id="edge8" class="edge">
<title>app.js&#45;&gt;node_modules/dotenv</title>
<path fill="none" stroke="#000000" stroke-opacity="0.200000" d="M64.3,-310.94C75.21,-299.01 95.49,-279.55 117.75,-271.81 163.56,-255.86 300.65,-238.6 336,-271.81 356.77,-291.32 325.03,-378.53 344,-399.81 356.34,-413.64 376.68,-417.53 394.26,-417.9"/>
<polygon fill="#000000" fill-opacity="0.200000" stroke="#000000" stroke-opacity="0.200000" points="394.09,-420 400.08,-417.87 394.07,-415.8 394.09,-420"/>
</g>
<!-- node_modules/express -->
<g id="node13" class="node">
<title>node_modules/express</title>
<g id="a_node13"><a xlink:href="https://www.npmjs.com/package/express" xlink:title="express">
<polygon fill="#c40b0a" fill-opacity="0.101961" stroke="black" points="456,-486.43 404.14,-486.43 402,-484.29 402,-467.18 453.86,-467.18 456,-469.32 456,-486.43"/>
<polyline fill="none" stroke="black" points="453.86,-484.29 402,-484.29"/>
<polyline fill="none" stroke="black" points="453.86,-484.29 453.86,-467.18"/>
<polyline fill="none" stroke="black" points="453.86,-484.29 456,-486.43"/>
<text text-anchor="start" x="412.5" y="-473.88" font-family="Helvetica,sans-Serif" font-size="9.00" fill="#c40b0a">express</text>
</a>
</g>
</g>
<!-- app.js&#45;&gt;node_modules/express -->
<g id="edge9" class="edge">
<title>app.js&#45;&gt;node_modules/express</title>
<path fill="none" stroke="#000000" stroke-opacity="0.200000" d="M82.33,-316.76C145.07,-307.81 300.28,-289.73 336,-323.81 358.23,-345.01 323.61,-438.83 344,-461.81 356.31,-475.67 376.65,-479.56 394.23,-479.92"/>
<polygon fill="#000000" fill-opacity="0.200000" stroke="#000000" stroke-opacity="0.200000" points="394.07,-482.02 400.06,-479.89 394.04,-477.82 394.07,-482.02"/>
</g>
<!-- node_modules/hbs -->
<g id="node14" class="node">
<title>node_modules/hbs</title>
<g id="a_node14"><a xlink:href="https://www.npmjs.com/package/hbs" xlink:title="hbs">
<polygon fill="#c40b0a" fill-opacity="0.101961" stroke="black" points="456,-393.43 404.14,-393.43 402,-391.29 402,-374.18 453.86,-374.18 456,-376.32 456,-393.43"/>
<polyline fill="none" stroke="black" points="453.86,-391.29 402,-391.29"/>
<polyline fill="none" stroke="black" points="453.86,-391.29 453.86,-374.18"/>
<polyline fill="none" stroke="black" points="453.86,-391.29 456,-393.43"/>
<text text-anchor="start" x="421.12" y="-380.88" font-family="Helvetica,sans-Serif" font-size="9.00" fill="#c40b0a">hbs</text>
</a>
</g>
</g>
<!-- app.js&#45;&gt;node_modules/hbs -->
<g id="edge10" class="edge">
<title>app.js&#45;&gt;node_modules/hbs</title>
<g id="a_edge10"><a xlink:title="no&#45;duplicate&#45;dep&#45;types">
<path fill="none" stroke="orange" d="M60.44,-310.88C68.92,-293.81 88.89,-259.41 117.75,-245.81 161.62,-225.13 300.61,-212.64 336,-245.81 355.99,-264.53 325.74,-348.39 344,-368.81 356.35,-382.62 376.7,-386.52 394.27,-386.89"/>
<polygon fill="orange" stroke="orange" points="394.1,-388.99 400.09,-386.86 394.08,-384.79 394.1,-388.99"/>
</a>
</g>
<text text-anchor="middle" x="290.65" y="-337.6" font-family="Helvetica,sans-Serif" font-size="9.00" fill="orange">no&#45;duplicate&#45;dep&#45;types</text>
</g>
<!-- node_modules/http&#45;errors -->
<g id="node15" class="node">
<title>node_modules/http&#45;errors</title>
<g id="a_node15"><a xlink:href="https://www.npmjs.com/package/http-errors" xlink:title="http&#45;errors">
<polygon fill="#c40b0a" fill-opacity="0.101961" stroke="black" points="458.38,-362.43 401.76,-362.43 399.62,-360.29 399.62,-343.18 456.24,-343.18 458.38,-345.32 458.38,-362.43"/>
<polyline fill="none" stroke="black" points="456.24,-360.29 399.62,-360.29"/>
<polyline fill="none" stroke="black" points="456.24,-360.29 456.24,-343.18"/>
<polyline fill="none" stroke="black" points="456.24,-360.29 458.38,-362.43"/>
<text text-anchor="start" x="407.62" y="-349.88" font-family="Helvetica,sans-Serif" font-size="9.00" fill="#c40b0a">http&#45;errors</text>
</a>
</g>
</g>
<!-- app.js&#45;&gt;node_modules/http&#45;errors -->
<g id="edge11" class="edge">
<title>app.js&#45;&gt;node_modules/http&#45;errors</title>
<path fill="none" stroke="#000000" stroke-opacity="0.200000" d="M58.4,-310.99C64.46,-289.74 82.05,-239.8 117.75,-219.81 160.06,-196.1 300.56,-186.69 336,-219.81 355.2,-237.75 326.46,-318.24 344,-337.81 355.85,-351.03 375.03,-355.16 392.06,-355.81"/>
<polygon fill="#000000" fill-opacity="0.200000" stroke="#000000" stroke-opacity="0.200000" points="391.67,-357.9 397.69,-355.87 391.72,-353.7 391.67,-357.9"/>
</g>
<!-- node_modules/morgan -->
<g id="node16" class="node">
<title>node_modules/morgan</title>
<g id="a_node16"><a xlink:href="https://www.npmjs.com/package/morgan" xlink:title="morgan">
<polygon fill="#c40b0a" fill-opacity="0.101961" stroke="black" points="456,-331.43 404.14,-331.43 402,-329.29 402,-312.18 453.86,-312.18 456,-314.32 456,-331.43"/>
<polyline fill="none" stroke="black" points="453.86,-329.29 402,-329.29"/>
<polyline fill="none" stroke="black" points="453.86,-329.29 453.86,-312.18"/>
<polyline fill="none" stroke="black" points="453.86,-329.29 456,-331.43"/>
<text text-anchor="start" x="412.88" y="-318.88" font-family="Helvetica,sans-Serif" font-size="9.00" fill="#c40b0a">morgan</text>
</a>
</g>
</g>
<!-- app.js&#45;&gt;node_modules/morgan -->
<g id="edge12" class="edge">
<title>app.js&#45;&gt;node_modules/morgan</title>
<path fill="none" stroke="#000000" stroke-opacity="0.200000" d="M57.19,-310.87C61.09,-285.86 75.12,-220.46 117.75,-193.81 200,-142.39 265.03,-127.68 336,-193.81 354.42,-210.97 327.17,-288.09 344,-306.81 356.39,-320.59 376.74,-324.48 394.3,-324.86"/>
<polygon fill="#000000" fill-opacity="0.200000" stroke="#000000" stroke-opacity="0.200000" points="394.12,-326.96 400.11,-324.83 394.11,-322.76 394.12,-326.96"/>
</g>
<!-- node_modules/passport -->
<g id="node17" class="node">
<title>node_modules/passport</title>
<g id="a_node17"><a xlink:href="https://www.npmjs.com/package/passport" xlink:title="passport">
<polygon fill="#c40b0a" fill-opacity="0.101961" stroke="black" points="456,-548.43 404.14,-548.43 402,-546.29 402,-529.18 453.86,-529.18 456,-531.32 456,-548.43"/>
<polyline fill="none" stroke="black" points="453.86,-546.29 402,-546.29"/>
<polyline fill="none" stroke="black" points="453.86,-546.29 453.86,-529.18"/>
<polyline fill="none" stroke="black" points="453.86,-546.29 456,-548.43"/>
<text text-anchor="start" x="410.62" y="-535.88" font-family="Helvetica,sans-Serif" font-size="9.00" fill="#c40b0a">passport</text>
</a>
</g>
</g>
<!-- app.js&#45;&gt;node_modules/passport -->
<g id="edge13" class="edge">
<title>app.js&#45;&gt;node_modules/passport</title>
<path fill="none" stroke="#000000" stroke-opacity="0.200000" d="M82.25,-321.13C148.64,-322.2 318.63,-326.72 336,-344.81 349.79,-359.17 330.88,-508.83 344,-523.81 356.21,-537.75 376.56,-541.64 394.16,-541.98"/>
<polygon fill="#000000" fill-opacity="0.200000" stroke="#000000" stroke-opacity="0.200000" points="394.01,-544.09 399.99,-541.94 393.98,-539.89 394.01,-544.09"/>
</g>
<!-- path -->
<g id="node18" class="node">
<title>path</title>
<g id="a_node18"><a xlink:href="https://nodejs.org/api/path.html" xlink:title="path">
<path fill="#ffffcc" stroke="grey" d="M449.58,-45.43C449.58,-45.43 408.42,-45.43 408.42,-45.43 405.21,-45.43 402,-42.22 402,-39.01 402,-39.01 402,-32.6 402,-32.6 402,-29.39 405.21,-26.18 408.42,-26.18 408.42,-26.18 449.58,-26.18 449.58,-26.18 452.79,-26.18 456,-29.39 456,-32.6 456,-32.6 456,-39.01 456,-39.01 456,-42.22 452.79,-45.43 449.58,-45.43"/>
<text text-anchor="middle" x="429" y="-32.88" font-family="Helvetica,sans-Serif" font-size="9.00" fill="grey">path</text>
</a>
</g>
</g>
<!-- app.js&#45;&gt;path -->
<g id="edge14" class="edge">
<title>app.js&#45;&gt;path</title>
<path fill="none" stroke="#000000" stroke-dasharray="5,2" stroke-opacity="0.200000" d="M57.2,-310.77C63.89,-264.92 98.53,-74.88 219.75,-14.81 277.61,13.87 355.5,-7.39 397.72,-23.07"/>
<polygon fill="#000000" fill-opacity="0.200000" stroke="#000000" stroke-opacity="0.200000" points="396.91,-25.01 403.27,-25.19 398.41,-21.09 396.91,-25.01"/>
</g>
<!-- app_api/config/passport.js&#45;&gt;node_modules/passport -->
<g id="edge25" class="edge">
<title>app_api/config/passport.js&#45;&gt;node_modules/passport</title>
<path fill="none" stroke="#000000" stroke-opacity="0.200000" d="M170.79,-878.91C173.78,-855.76 184.58,-797.82 219.75,-768.81 260.44,-735.23 301.83,-785 336,-744.81 349.76,-728.62 330.03,-569.8 344,-553.81 356.28,-539.75 376.82,-535.89 394.52,-535.61"/>
<polygon fill="#000000" fill-opacity="0.200000" stroke="#000000" stroke-opacity="0.200000" points="394.36,-537.7 400.38,-535.67 394.4,-533.5 394.36,-537.7"/>
</g>
<!-- node_modules/mongoose -->
<g id="node28" class="node">
<title>node_modules/mongoose</title>
<g id="a_node28"><a xlink:href="https://www.npmjs.com/package/mongoose" xlink:title="mongoose">
<polygon fill="#c40b0a" fill-opacity="0.101961" stroke="black" points="459.5,-641.43 400.64,-641.43 398.5,-639.29 398.5,-622.18 457.36,-622.18 459.5,-624.32 459.5,-641.43"/>
<polyline fill="none" stroke="black" points="457.36,-639.29 398.5,-639.29"/>
<polyline fill="none" stroke="black" points="457.36,-639.29 457.36,-622.18"/>
<polyline fill="none" stroke="black" points="457.36,-639.29 459.5,-641.43"/>
<text text-anchor="start" x="406.5" y="-628.88" font-family="Helvetica,sans-Serif" font-size="9.00" fill="#c40b0a">mongoose</text>
</a>
</g>
</g>
<!-- app_api/config/passport.js&#45;&gt;node_modules/mongoose -->
<g id="edge24" class="edge">
<title>app_api/config/passport.js&#45;&gt;node_modules/mongoose</title>
<path fill="none" stroke="#000000" stroke-opacity="0.200000" d="M200.31,-881.06C239.35,-869.38 305.53,-843.17 336,-793.81 344.59,-779.89 333.16,-659.06 344,-646.81 355.59,-633.7 374.37,-629.49 391.24,-628.77"/>
<polygon fill="#000000" fill-opacity="0.200000" stroke="#000000" stroke-opacity="0.200000" points="390.84,-630.87 396.81,-628.68 390.78,-626.67 390.84,-630.87"/>
</g>
<!-- node_modules/passport&#45;local -->
<g id="node29" class="node">
<title>node_modules/passport&#45;local</title>
<g id="a_node29"><a xlink:href="https://www.npmjs.com/package/passport-local" xlink:title="passport&#45;local">
<polygon fill="#c40b0a" fill-opacity="0.101961" stroke="black" points="466.62,-579.43 393.51,-579.43 391.38,-577.29 391.38,-560.18 464.49,-560.18 466.62,-562.32 466.62,-579.43"/>
<polyline fill="none" stroke="black" points="464.49,-577.29 391.38,-577.29"/>
<polyline fill="none" stroke="black" points="464.49,-577.29 464.49,-560.18"/>
<polyline fill="none" stroke="black" points="464.49,-577.29 466.62,-579.43"/>
<text text-anchor="start" x="399.38" y="-566.88" font-family="Helvetica,sans-Serif" font-size="9.00" fill="#c40b0a">passport&#45;local</text>
</a>
</g>
</g>
<!-- app_api/config/passport.js&#45;&gt;node_modules/passport&#45;local -->
<g id="edge26" class="edge">
<title>app_api/config/passport.js&#45;&gt;node_modules/passport&#45;local</title>
<path fill="none" stroke="#000000" stroke-opacity="0.200000" d="M172.12,-878.78C177.26,-859.37 191.31,-816.65 219.75,-794.81 261.81,-762.49 302.11,-808.61 336,-767.81 349,-752.15 330.6,-600.12 344,-584.81 353.89,-573.5 369.13,-568.8 383.92,-567.24"/>
<polygon fill="#000000" fill-opacity="0.200000" stroke="#000000" stroke-opacity="0.200000" points="383.78,-569.36 389.61,-566.82 383.48,-565.17 383.78,-569.36"/>
</g>
<!-- app_api/database/db.js&#45;&gt;node_modules/mongoose -->
<g id="edge32" class="edge">
<title>app_api/database/db.js&#45;&gt;node_modules/mongoose</title>
<path fill="none" stroke="#000000" stroke-opacity="0.200000" d="M195.98,-1005.53C202.1,-1002.14 207.93,-997.65 211.75,-991.81 222.97,-974.62 206.36,-915.36 219.75,-899.81 254.41,-859.52 302.38,-912.96 336,-871.81 351.83,-852.43 327.6,-665.7 344,-646.81 355.47,-633.59 374.24,-629.38 391.13,-628.67"/>
<polygon fill="#000000" fill-opacity="0.200000" stroke="#000000" stroke-opacity="0.200000" points="390.75,-630.78 396.71,-628.59 390.68,-626.58 390.75,-630.78"/>
</g>
<!-- app_api/database/models/travlr.js -->
<g id="node32" class="node">
<title>app_api/database/models/travlr.js</title>
<g id="a_node32"><a xlink:href="app_api/database/models/travlr.js" xlink:title="travlr.js">
<path fill="#ffffcc" stroke="black" d="M298.46,-1032.43C298.46,-1032.43 257.29,-1032.43 257.29,-1032.43 254.08,-1032.43 250.88,-1029.22 250.88,-1026.01 250.88,-1026.01 250.88,-1019.6 250.88,-1019.6 250.88,-1016.39 254.08,-1013.18 257.29,-1013.18 257.29,-1013.18 298.46,-1013.18 298.46,-1013.18 301.67,-1013.18 304.88,-1016.39 304.88,-1019.6 304.88,-1019.6 304.88,-1026.01 304.88,-1026.01 304.88,-1029.22 301.67,-1032.43 298.46,-1032.43"/>
<text text-anchor="start" x="263.25" y="-1019.88" font-family="Helvetica,sans-Serif" font-size="9.00">travlr.js</text>
</a>
</g>
</g>
<!-- app_api/database/db.js&#45;&gt;app_api/database/models/travlr.js -->
<g id="edge30" class="edge">
<title>app_api/database/db.js&#45;&gt;app_api/database/models/travlr.js</title>
<path fill="none" stroke="#000000" stroke-width="2" stroke-opacity="0.200000" d="M196.23,-1016.78C209.98,-1017.81 226.96,-1019.08 241.79,-1020.19"/>
<polygon fill="#000000" fill-opacity="0.200000" stroke="#000000" stroke-width="2" stroke-opacity="0.200000" points="241.54,-1022.27 247.68,-1020.62 241.85,-1018.08 241.54,-1022.27"/>
</g>
<!-- app_api/database/models/users.js -->
<g id="node33" class="node">
<title>app_api/database/models/users.js</title>
<g id="a_node33"><a xlink:href="app_api/database/models/users.js" xlink:title="users.js">
<path fill="#ffffcc" stroke="black" d="M298.46,-1063.43C298.46,-1063.43 257.29,-1063.43 257.29,-1063.43 254.08,-1063.43 250.88,-1060.22 250.88,-1057.01 250.88,-1057.01 250.88,-1050.6 250.88,-1050.6 250.88,-1047.39 254.08,-1044.18 257.29,-1044.18 257.29,-1044.18 298.46,-1044.18 298.46,-1044.18 301.67,-1044.18 304.88,-1047.39 304.88,-1050.6 304.88,-1050.6 304.88,-1057.01 304.88,-1057.01 304.88,-1060.22 301.67,-1063.43 298.46,-1063.43"/>
<text text-anchor="start" x="261" y="-1050.88" font-family="Helvetica,sans-Serif" font-size="9.00">users.js</text>
</a>
</g>
</g>
<!-- app_api/database/db.js&#45;&gt;app_api/database/models/users.js -->
<g id="edge31" class="edge">
<title>app_api/database/db.js&#45;&gt;app_api/database/models/users.js</title>
<path fill="none" stroke="#000000" stroke-width="2" stroke-opacity="0.200000" d="M188.38,-1024.79C197.63,-1029.48 209.09,-1034.89 219.75,-1038.81 226.81,-1041.4 234.51,-1043.74 241.9,-1045.75"/>
<polygon fill="#000000" fill-opacity="0.200000" stroke="#000000" stroke-width="2" stroke-opacity="0.200000" points="241.12,-1047.72 247.46,-1047.2 242.18,-1043.66 241.12,-1047.72"/>
</g>
<!-- readline -->
<g id="node34" class="node">
<title>readline</title>
<g id="a_node34"><a xlink:href="https://nodejs.org/api/readline.html" xlink:title="readline">
<path fill="#ffffcc" stroke="grey" d="M298.46,-738.43C298.46,-738.43 257.29,-738.43 257.29,-738.43 254.08,-738.43 250.88,-735.22 250.88,-732.01 250.88,-732.01 250.88,-725.6 250.88,-725.6 250.88,-722.39 254.08,-719.18 257.29,-719.18 257.29,-719.18 298.46,-719.18 298.46,-719.18 301.67,-719.18 304.88,-722.39 304.88,-725.6 304.88,-725.6 304.88,-732.01 304.88,-732.01 304.88,-735.22 301.67,-738.43 298.46,-738.43"/>
<text text-anchor="middle" x="277.88" y="-725.88" font-family="Helvetica,sans-Serif" font-size="9.00" fill="grey">readline</text>
</a>
</g>
</g>
<!-- app_api/database/db.js&#45;&gt;readline -->
<g id="edge33" class="edge">
<title>app_api/database/db.js&#45;&gt;readline</title>
<path fill="none" stroke="#000000" stroke-dasharray="5,2" stroke-opacity="0.200000" d="M196.05,-1005.57C202.16,-1002.18 207.98,-997.68 211.75,-991.81 225.45,-970.42 214.26,-902.6 219.75,-877.81 230.86,-827.65 255.85,-771.98 268.78,-745.1"/>
<polygon fill="#000000" fill-opacity="0.200000" stroke="#000000" stroke-opacity="0.200000" points="270.54,-746.28 271.28,-739.97 266.76,-744.44 270.54,-746.28"/>
</g>
<!-- app_api/routes/index.js&#45;&gt;node_modules/express -->
<g id="edge40" class="edge">
<title>app_api/routes/index.js&#45;&gt;node_modules/express</title>
<path fill="none" stroke="#000000" stroke-opacity="0.200000" d="M195.94,-942.5C202.06,-939.11 207.9,-934.63 211.75,-928.81 231.92,-898.25 203.04,-879.39 219.75,-846.81 251.12,-785.65 306.65,-806.96 336,-744.81 348.01,-719.37 325.61,-513.08 344,-491.81 356.21,-477.68 376.75,-473.83 394.46,-473.56"/>
<polygon fill="#000000" fill-opacity="0.200000" stroke="#000000" stroke-opacity="0.200000" points="394.31,-475.66 400.33,-473.62 394.36,-471.46 394.31,-475.66"/>
</g>
<!-- app_api/controllers/authentication.js -->
<g id="node30" class="node">
<title>app_api/controllers/authentication.js</title>
<g id="a_node30"><a xlink:href="app_api/controllers/authentication.js" xlink:title="authentication.js">
<path fill="#ffffcc" stroke="black" d="M313.21,-930.43C313.21,-930.43 242.54,-930.43 242.54,-930.43 239.33,-930.43 236.12,-927.22 236.12,-924.01 236.12,-924.01 236.12,-917.6 236.12,-917.6 236.12,-914.39 239.33,-911.18 242.54,-911.18 242.54,-911.18 313.21,-911.18 313.21,-911.18 316.42,-911.18 319.62,-914.39 319.62,-917.6 319.62,-917.6 319.62,-924.01 319.62,-924.01 319.62,-927.22 316.42,-930.43 313.21,-930.43"/>
<text text-anchor="start" x="244.12" y="-917.88" font-family="Helvetica,sans-Serif" font-size="9.00">authentication.js</text>
</a>
</g>
</g>
<!-- app_api/routes/index.js&#45;&gt;app_api/controllers/authentication.js -->
<g id="edge38" class="edge">
<title>app_api/routes/index.js&#45;&gt;app_api/controllers/authentication.js</title>
<path fill="none" stroke="#000000" stroke-width="2" stroke-opacity="0.200000" d="M196.14,-943.07C203.73,-940.64 212.05,-938.05 219.75,-935.81 222.69,-934.95 225.73,-934.09 228.8,-933.23"/>
<polygon fill="#000000" fill-opacity="0.200000" stroke="#000000" stroke-width="2" stroke-opacity="0.200000" points="229.31,-935.27 234.55,-931.66 228.2,-931.22 229.31,-935.27"/>
</g>
<!-- app_api/controllers/trips.js -->
<g id="node31" class="node">
<title>app_api/controllers/trips.js</title>
<g id="a_node31"><a xlink:href="app_api/controllers/trips.js" xlink:title="trips.js">
<path fill="#ffffcc" stroke="black" d="M298.46,-961.43C298.46,-961.43 257.29,-961.43 257.29,-961.43 254.08,-961.43 250.88,-958.22 250.88,-955.01 250.88,-955.01 250.88,-948.6 250.88,-948.6 250.88,-945.39 254.08,-942.18 257.29,-942.18 257.29,-942.18 298.46,-942.18 298.46,-942.18 301.67,-942.18 304.88,-945.39 304.88,-948.6 304.88,-948.6 304.88,-955.01 304.88,-955.01 304.88,-958.22 301.67,-961.43 298.46,-961.43"/>
<text text-anchor="start" x="264" y="-948.88" font-family="Helvetica,sans-Serif" font-size="9.00">trips.js</text>
</a>
</g>
</g>
<!-- app_api/routes/index.js&#45;&gt;app_api/controllers/trips.js -->
<g id="edge39" class="edge">
<title>app_api/routes/index.js&#45;&gt;app_api/controllers/trips.js</title>
<path fill="none" stroke="#000000" stroke-width="2" stroke-opacity="0.200000" d="M196.23,-951.81C209.98,-951.81 226.96,-951.81 241.79,-951.81"/>
<polygon fill="#000000" fill-opacity="0.200000" stroke="#000000" stroke-width="2" stroke-opacity="0.200000" points="241.67,-953.91 247.67,-951.81 241.67,-949.71 241.67,-953.91"/>
</g>
<!-- node_modules/express&#45;jwt -->
<g id="node37" class="node">
<title>node_modules/express&#45;jwt</title>
<g id="a_node37"><a xlink:href="https://www.npmjs.com/package/express-jwt" xlink:title="express&#45;jwt">
<polygon fill="#c40b0a" fill-opacity="0.101961" stroke="black" points="460.62,-610.43 399.51,-610.43 397.38,-608.29 397.38,-591.18 458.49,-591.18 460.62,-593.32 460.62,-610.43"/>
<polyline fill="none" stroke="black" points="458.49,-608.29 397.38,-608.29"/>
<polyline fill="none" stroke="black" points="458.49,-608.29 458.49,-591.18"/>
<polyline fill="none" stroke="black" points="458.49,-608.29 460.62,-610.43"/>
<text text-anchor="start" x="405.38" y="-597.88" font-family="Helvetica,sans-Serif" font-size="9.00" fill="#c40b0a">express&#45;jwt</text>
</a>
</g>
</g>
<!-- app_api/routes/index.js&#45;&gt;node_modules/express&#45;jwt -->
<g id="edge41" class="edge">
<title>app_api/routes/index.js&#45;&gt;node_modules/express&#45;jwt</title>
<path fill="none" stroke="#000000" stroke-opacity="0.200000" d="M196.15,-942.1C202.11,-938.75 207.83,-934.38 211.75,-928.81 224.94,-910.03 204.47,-894.92 219.75,-877.81 255.44,-837.83 302.79,-887.86 336,-845.81 351.85,-825.74 327.25,-635.12 344,-615.81 355.11,-602.99 373.08,-598.64 389.55,-597.74"/>
<polygon fill="#000000" fill-opacity="0.200000" stroke="#000000" stroke-opacity="0.200000" points="389.53,-599.84 395.47,-597.59 389.42,-595.65 389.53,-599.84"/>
</g>
<!-- app_server/routes/index.js&#45;&gt;node_modules/express -->
<g id="edge48" class="edge">
<title>app_server/routes/index.js&#45;&gt;node_modules/express</title>
<path fill="none" stroke="#000000" stroke-opacity="0.200000" d="M196.21,-641.89C202.03,-639.67 207.66,-636.46 211.75,-631.81 222.85,-619.16 208.91,-607.68 219.75,-594.81 255.64,-552.17 301.64,-591.69 336,-547.81 351.5,-528.01 326.53,-509.89 344,-491.81 356.79,-478.57 376.95,-474.64 394.32,-474.11"/>
<polygon fill="#000000" fill-opacity="0.200000" stroke="#000000" stroke-opacity="0.200000" points="394.05,-476.22 400.04,-474.09 394.03,-472.02 394.05,-476.22"/>
</g>
<!-- app_server/controllers/main.js -->
<g id="node38" class="node">
<title>app_server/controllers/main.js</title>
<g id="a_node38"><a xlink:href="app_server/controllers/main.js" xlink:title="main.js">
<path fill="#ffffcc" stroke="black" d="M298.46,-656.43C298.46,-656.43 257.29,-656.43 257.29,-656.43 254.08,-656.43 250.88,-653.22 250.88,-650.01 250.88,-650.01 250.88,-643.6 250.88,-643.6 250.88,-640.39 254.08,-637.18 257.29,-637.18 257.29,-637.18 298.46,-637.18 298.46,-637.18 301.67,-637.18 304.88,-640.39 304.88,-643.6 304.88,-643.6 304.88,-650.01 304.88,-650.01 304.88,-653.22 301.67,-656.43 298.46,-656.43"/>
<text text-anchor="start" x="262.5" y="-643.88" font-family="Helvetica,sans-Serif" font-size="9.00">main.js</text>
</a>
</g>
</g>
<!-- app_server/routes/index.js&#45;&gt;app_server/controllers/main.js -->
<g id="edge47" class="edge">
<title>app_server/routes/index.js&#45;&gt;app_server/controllers/main.js</title>
<path fill="none" stroke="#000000" stroke-width="2" stroke-opacity="0.200000" d="M196.23,-646.81C209.98,-646.81 226.96,-646.81 241.79,-646.81"/>
<polygon fill="#000000" fill-opacity="0.200000" stroke="#000000" stroke-width="2" stroke-opacity="0.200000" points="241.67,-648.91 247.67,-646.81 241.67,-644.71 241.67,-648.91"/>
</g>
<!-- app_server/routes/travel.js&#45;&gt;node_modules/express -->
<g id="edge50" class="edge">
<title>app_server/routes/travel.js&#45;&gt;node_modules/express</title>
<path fill="none" stroke="#000000" stroke-opacity="0.200000" d="M196.18,-610.85C201.99,-608.64 207.64,-605.44 211.75,-600.81 222.35,-588.87 209.76,-578.24 219.75,-565.81 255.55,-521.25 296.47,-552.09 336,-510.81 342.34,-504.19 336.84,-497.53 344,-491.81 358.05,-480.57 377.66,-476.62 394.41,-475.57"/>
<polygon fill="#000000" fill-opacity="0.200000" stroke="#000000" stroke-opacity="0.200000" points="394.44,-477.67 400.35,-475.34 394.28,-473.47 394.44,-477.67"/>
</g>
<!-- app_server/controllers/travel.js -->
<g id="node39" class="node">
<title>app_server/controllers/travel.js</title>
<g id="a_node39"><a xlink:href="app_server/controllers/travel.js" xlink:title="travel.js">
<path fill="#ffffcc" stroke="black" d="M298.46,-625.43C298.46,-625.43 257.29,-625.43 257.29,-625.43 254.08,-625.43 250.88,-622.22 250.88,-619.01 250.88,-619.01 250.88,-612.6 250.88,-612.6 250.88,-609.39 254.08,-606.18 257.29,-606.18 257.29,-606.18 298.46,-606.18 298.46,-606.18 301.67,-606.18 304.88,-609.39 304.88,-612.6 304.88,-612.6 304.88,-619.01 304.88,-619.01 304.88,-622.22 301.67,-625.43 298.46,-625.43"/>
<text text-anchor="start" x="262.12" y="-612.88" font-family="Helvetica,sans-Serif" font-size="9.00">travel.js</text>
</a>
</g>
</g>
<!-- app_server/routes/travel.js&#45;&gt;app_server/controllers/travel.js -->
<g id="edge49" class="edge">
<title>app_server/routes/travel.js&#45;&gt;app_server/controllers/travel.js</title>
<path fill="none" stroke="#000000" stroke-width="2" stroke-opacity="0.200000" d="M196.23,-615.81C209.98,-615.81 226.96,-615.81 241.79,-615.81"/>
<polygon fill="#000000" fill-opacity="0.200000" stroke="#000000" stroke-width="2" stroke-opacity="0.200000" points="241.67,-617.91 247.67,-615.81 241.67,-613.71 241.67,-617.91"/>
</g>
<!-- app_server/routes/users.js&#45;&gt;node_modules/express -->
<g id="edge51" class="edge">
<title>app_server/routes/users.js&#45;&gt;node_modules/express</title>
<path fill="none" stroke="#000000" stroke-opacity="0.200000" d="M195.91,-574.93C201.88,-571.57 207.66,-567.26 211.75,-561.81 221.59,-548.7 208.44,-537.67 219.75,-525.81 265.25,-478.04 347.86,-472.97 394.18,-474.34"/>
<polygon fill="#000000" fill-opacity="0.200000" stroke="#000000" stroke-opacity="0.200000" points="393.98,-476.43 400.05,-474.56 394.14,-472.24 393.98,-476.43"/>
</g>
<!-- app_admin/e2e/protractor.conf.js -->
<g id="node19" class="node">
<title>app_admin/e2e/protractor.conf.js</title>
<g id="a_node19"><a xlink:href="app_admin/e2e/protractor.conf.js" xlink:title="protractor.conf.js">
<path fill="#ffffcc" stroke="black" d="M313.58,-108.43C313.58,-108.43 242.17,-108.43 242.17,-108.43 238.96,-108.43 235.75,-105.22 235.75,-102.01 235.75,-102.01 235.75,-95.6 235.75,-95.6 235.75,-92.39 238.96,-89.18 242.17,-89.18 242.17,-89.18 313.58,-89.18 313.58,-89.18 316.79,-89.18 320,-92.39 320,-95.6 320,-95.6 320,-102.01 320,-102.01 320,-105.22 316.79,-108.43 313.58,-108.43"/>
<text text-anchor="start" x="243.75" y="-95.88" font-family="Helvetica,sans-Serif" font-size="9.00">protractor.conf.js</text>
</a>
</g>
</g>
<!-- app_admin/e2e/protractor.conf.js&#45;&gt;path -->
<g id="edge16" class="edge">
<title>app_admin/e2e/protractor.conf.js&#45;&gt;path</title>
<path fill="none" stroke="#000000" stroke-dasharray="5,2" stroke-opacity="0.200000" d="M316.63,-88.75C323.73,-85.52 330.61,-81.3 336,-75.81 343,-68.68 336.46,-61.35 344,-54.81 357.83,-42.8 377.66,-37.94 394.58,-36.12"/>
<polygon fill="#000000" fill-opacity="0.200000" stroke="#000000" stroke-opacity="0.200000" points="394.32,-38.25 400.12,-35.65 393.96,-34.07 394.32,-38.25"/>
</g>
<!-- node_modules/jasmine&#45;spec&#45;reporter -->
<g id="node20" class="node">
<title>node_modules/jasmine&#45;spec&#45;reporter</title>
<g id="a_node20"><a xlink:href="https://www.npmjs.com/package/jasmine-spec-reporter" xlink:title="jasmine&#45;spec&#45;reporter">
<polygon fill="#c40b0a" fill-opacity="0.101961" stroke="black" points="483.12,-300.43 377.01,-300.43 374.88,-298.29 374.88,-281.18 480.99,-281.18 483.12,-283.32 483.12,-300.43"/>
<polyline fill="none" stroke="black" points="480.99,-298.29 374.88,-298.29"/>
<polyline fill="none" stroke="black" points="480.99,-298.29 480.99,-281.18"/>
<polyline fill="none" stroke="black" points="480.99,-298.29 483.12,-300.43"/>
<text text-anchor="start" x="382.88" y="-287.88" font-family="Helvetica,sans-Serif" font-size="9.00" fill="#c40b0a">jasmine&#45;spec&#45;reporter</text>
</a>
</g>
</g>
<!-- app_admin/e2e/protractor.conf.js&#45;&gt;node_modules/jasmine&#45;spec&#45;reporter -->
<g id="edge15" class="edge">
<title>app_admin/e2e/protractor.conf.js&#45;&gt;node_modules/jasmine&#45;spec&#45;reporter</title>
<path fill="none" stroke="#000000" stroke-opacity="0.200000" d="M290.54,-108.63C304.18,-120.9 326.13,-143.28 336,-167.81 344.99,-190.13 327.88,-257.94 344,-275.81 350.26,-282.75 358.55,-287.18 367.47,-289.92"/>
<polygon fill="#000000" fill-opacity="0.200000" stroke="#000000" stroke-opacity="0.200000" points="366.94,-291.95 373.27,-291.39 367.97,-287.88 366.94,-291.95"/>
</g>
<!-- node_modules/ts&#45;node -->
<g id="node21" class="node">
<title>node_modules/ts&#45;node</title>
<g id="a_node21"><a xlink:href="https://www.npmjs.com/package/ts-node" xlink:title="ts&#45;node">
<polygon fill="#c40b0a" fill-opacity="0.101961" stroke="black" points="456,-269.43 404.14,-269.43 402,-267.29 402,-250.18 453.86,-250.18 456,-252.32 456,-269.43"/>
<polyline fill="none" stroke="black" points="453.86,-267.29 402,-267.29"/>
<polyline fill="none" stroke="black" points="453.86,-267.29 453.86,-250.18"/>
<polyline fill="none" stroke="black" points="453.86,-267.29 456,-269.43"/>
<text text-anchor="start" x="413.25" y="-256.88" font-family="Helvetica,sans-Serif" font-size="9.00" fill="#c40b0a">ts&#45;node</text>
</a>
</g>
</g>
<!-- app_admin/e2e/protractor.conf.js&#45;&gt;node_modules/ts&#45;node -->
<g id="edge17" class="edge">
<title>app_admin/e2e/protractor.conf.js&#45;&gt;node_modules/ts&#45;node</title>
<path fill="none" stroke="#000000" stroke-opacity="0.200000" d="M290.42,-108.68C303.93,-121 325.76,-143.43 336,-167.81 342.66,-183.67 332.29,-232.2 344,-244.81 356.62,-258.38 376.97,-262.27 394.48,-262.7"/>
<polygon fill="#000000" fill-opacity="0.200000" stroke="#000000" stroke-opacity="0.200000" points="394.27,-264.8 400.27,-262.69 394.26,-260.6 394.27,-264.8"/>
</g>
<!-- app_admin/src/karma.conf.js -->
<g id="node22" class="node">
<title>app_admin/src/karma.conf.js</title>
<g id="a_node22"><a xlink:href="app_admin/src/karma.conf.js" xlink:title="karma.conf.js">
<path fill="#ffffcc" stroke="black" d="M307.21,-45.43C307.21,-45.43 248.54,-45.43 248.54,-45.43 245.33,-45.43 242.12,-42.22 242.12,-39.01 242.12,-39.01 242.12,-32.6 242.12,-32.6 242.12,-29.39 245.33,-26.18 248.54,-26.18 248.54,-26.18 307.21,-26.18 307.21,-26.18 310.42,-26.18 313.62,-29.39 313.62,-32.6 313.62,-32.6 313.62,-39.01 313.62,-39.01 313.62,-42.22 310.42,-45.43 307.21,-45.43"/>
<text text-anchor="start" x="250.12" y="-32.88" font-family="Helvetica,sans-Serif" font-size="9.00">karma.conf.js</text>
</a>
</g>
</g>
<!-- app_admin/src/karma.conf.js&#45;&gt;path -->
<g id="edge23" class="edge">
<title>app_admin/src/karma.conf.js&#45;&gt;path</title>
<path fill="none" stroke="#000000" stroke-dasharray="5,2" stroke-opacity="0.200000" d="M313.84,-35.81C338.07,-35.81 370.17,-35.81 394.16,-35.81"/>
<polygon fill="#000000" fill-opacity="0.200000" stroke="#000000" stroke-opacity="0.200000" points="394.13,-37.91 400.13,-35.81 394.13,-33.71 394.13,-37.91"/>
</g>
<!-- node_modules/@angular&#45;devkit/build&#45;angular -->
<g id="node23" class="node">
<title>node_modules/@angular&#45;devkit/build&#45;angular</title>
<g id="a_node23"><a xlink:href="https://www.npmjs.com/package/@angular-devkit/build-angular" xlink:title="build&#45;angular">
<polygon fill="#c40b0a" fill-opacity="0.101961" stroke="black" points="464.38,-121.43 395.76,-121.43 393.62,-119.29 393.62,-102.18 462.24,-102.18 464.38,-104.32 464.38,-121.43"/>
<polyline fill="none" stroke="black" points="462.24,-119.29 393.62,-119.29"/>
<polyline fill="none" stroke="black" points="462.24,-119.29 462.24,-102.18"/>
<polyline fill="none" stroke="black" points="462.24,-119.29 464.38,-121.43"/>
<text text-anchor="start" x="401.62" y="-108.88" font-family="Helvetica,sans-Serif" font-size="9.00" fill="#c40b0a">build&#45;angular</text>
</a>
</g>
</g>
<!-- app_admin/src/karma.conf.js&#45;&gt;node_modules/@angular&#45;devkit/build&#45;angular -->
<g id="edge18" class="edge">
<title>app_admin/src/karma.conf.js&#45;&gt;node_modules/@angular&#45;devkit/build&#45;angular</title>
<path fill="none" stroke="#000000" stroke-opacity="0.200000" d="M297.47,-45.79C309.82,-53.22 325.6,-64.37 336,-77.81 341.86,-85.38 336.54,-91.8 344,-97.81 355.78,-107.29 371.55,-111.43 386.25,-112.98"/>
<polygon fill="#000000" fill-opacity="0.200000" stroke="#000000" stroke-opacity="0.200000" points="385.7,-115.04 391.84,-113.43 386.03,-110.86 385.7,-115.04"/>
</g>
<!-- node_modules/karma&#45;chrome&#45;launcher -->
<g id="node24" class="node">
<title>node_modules/karma&#45;chrome&#45;launcher</title>
<g id="a_node24"><a xlink:href="https://www.npmjs.com/package/karma-chrome-launcher" xlink:title="karma&#45;chrome&#45;launcher">
<polygon fill="#c40b0a" fill-opacity="0.101961" stroke="black" points="486.88,-238.43 373.26,-238.43 371.12,-236.29 371.12,-219.18 484.74,-219.18 486.88,-221.32 486.88,-238.43"/>
<polyline fill="none" stroke="black" points="484.74,-236.29 371.12,-236.29"/>
<polyline fill="none" stroke="black" points="484.74,-236.29 484.74,-219.18"/>
<polyline fill="none" stroke="black" points="484.74,-236.29 486.88,-238.43"/>
<text text-anchor="start" x="379.12" y="-225.88" font-family="Helvetica,sans-Serif" font-size="9.00" fill="#c40b0a">karma&#45;chrome&#45;launcher</text>
</a>
</g>
</g>
<!-- app_admin/src/karma.conf.js&#45;&gt;node_modules/karma&#45;chrome&#45;launcher -->
<g id="edge19" class="edge">
<title>app_admin/src/karma.conf.js&#45;&gt;node_modules/karma&#45;chrome&#45;launcher</title>
<path fill="none" stroke="#000000" stroke-opacity="0.200000" d="M300.64,-45.77C313.3,-52.81 328.24,-63.53 336,-77.81 350.46,-104.41 323.89,-191.17 344,-213.81 349.35,-219.83 356.21,-223.96 363.71,-226.75"/>
<polygon fill="#000000" fill-opacity="0.200000" stroke="#000000" stroke-opacity="0.200000" points="362.95,-228.71 369.3,-228.49 364.2,-224.7 362.95,-228.71"/>
</g>
<!-- node_modules/karma&#45;coverage&#45;istanbul&#45;reporter -->
<g id="node25" class="node">
<title>node_modules/karma&#45;coverage&#45;istanbul&#45;reporter</title>
<g id="a_node25"><a xlink:href="https://www.npmjs.com/package/karma-coverage-istanbul-reporter" xlink:title="karma&#45;coverage&#45;istanbul&#45;reporter">
<polygon fill="#c40b0a" fill-opacity="0.101961" stroke="black" points="506,-207.43 354.14,-207.43 352,-205.29 352,-188.18 503.86,-188.18 506,-190.32 506,-207.43"/>
<polyline fill="none" stroke="black" points="503.86,-205.29 352,-205.29"/>
<polyline fill="none" stroke="black" points="503.86,-205.29 503.86,-188.18"/>
<polyline fill="none" stroke="black" points="503.86,-205.29 506,-207.43"/>
<text text-anchor="start" x="360" y="-194.88" font-family="Helvetica,sans-Serif" font-size="9.00" fill="#c40b0a">karma&#45;coverage&#45;istanbul&#45;reporter</text>
</a>
</g>
</g>
<!-- app_admin/src/karma.conf.js&#45;&gt;node_modules/karma&#45;coverage&#45;istanbul&#45;reporter -->
<g id="edge20" class="edge">
<title>app_admin/src/karma.conf.js&#45;&gt;node_modules/karma&#45;coverage&#45;istanbul&#45;reporter</title>
<path fill="none" stroke="#000000" stroke-opacity="0.200000" d="M300.55,-45.82C313.18,-52.87 328.12,-63.6 336,-77.81 347.35,-98.27 328.31,-165.45 344,-182.81 344.71,-183.6 345.45,-184.35 346.22,-185.08"/>
<polygon fill="#000000" fill-opacity="0.200000" stroke="#000000" stroke-opacity="0.200000" points="344.43,-186.33 350.41,-188.48 347.07,-183.07 344.43,-186.33"/>
</g>
<!-- node_modules/karma&#45;jasmine -->
<g id="node26" class="node">
<title>node_modules/karma&#45;jasmine</title>
<g id="a_node26"><a xlink:href="https://www.npmjs.com/package/karma-jasmine" xlink:title="karma&#45;jasmine">
<polygon fill="#c40b0a" fill-opacity="0.101961" stroke="black" points="468.5,-176.43 391.64,-176.43 389.5,-174.29 389.5,-157.18 466.36,-157.18 468.5,-159.32 468.5,-176.43"/>
<polyline fill="none" stroke="black" points="466.36,-174.29 389.5,-174.29"/>
<polyline fill="none" stroke="black" points="466.36,-174.29 466.36,-157.18"/>
<polyline fill="none" stroke="black" points="466.36,-174.29 468.5,-176.43"/>
<text text-anchor="start" x="397.5" y="-163.88" font-family="Helvetica,sans-Serif" font-size="9.00" fill="#c40b0a">karma&#45;jasmine</text>
</a>
</g>
</g>
<!-- app_admin/src/karma.conf.js&#45;&gt;node_modules/karma&#45;jasmine -->
<g id="edge21" class="edge">
<title>app_admin/src/karma.conf.js&#45;&gt;node_modules/karma&#45;jasmine</title>
<path fill="none" stroke="#000000" stroke-opacity="0.200000" d="M300.39,-45.91C312.96,-53 327.89,-63.72 336,-77.81 344.25,-92.14 332.71,-139.71 344,-151.81 353.73,-162.23 368.01,-166.93 382.05,-168.75"/>
<polygon fill="#000000" fill-opacity="0.200000" stroke="#000000" stroke-opacity="0.200000" points="381.66,-170.82 387.84,-169.3 382.06,-166.64 381.66,-170.82"/>
</g>
<!-- node_modules/karma&#45;jasmine&#45;html&#45;reporter -->
<g id="node27" class="node">
<title>node_modules/karma&#45;jasmine&#45;html&#45;reporter</title>
<g id="a_node27"><a xlink:href="https://www.npmjs.com/package/karma-jasmine-html-reporter" xlink:title="karma&#45;jasmine&#45;html&#45;reporter">
<polygon fill="#c40b0a" fill-opacity="0.101961" stroke="black" points="496.62,-85.43 363.51,-85.43 361.38,-83.29 361.38,-66.18 494.49,-66.18 496.62,-68.32 496.62,-85.43"/>
<polyline fill="none" stroke="black" points="494.49,-83.29 361.38,-83.29"/>
<polyline fill="none" stroke="black" points="494.49,-83.29 494.49,-66.18"/>
<polyline fill="none" stroke="black" points="494.49,-83.29 496.62,-85.43"/>
<text text-anchor="start" x="369.38" y="-72.88" font-family="Helvetica,sans-Serif" font-size="9.00" fill="#c40b0a">karma&#45;jasmine&#45;html&#45;reporter</text>
</a>
</g>
</g>
<!-- app_admin/src/karma.conf.js&#45;&gt;node_modules/karma&#45;jasmine&#45;html&#45;reporter -->
<g id="edge22" class="edge">
<title>app_admin/src/karma.conf.js&#45;&gt;node_modules/karma&#45;jasmine&#45;html&#45;reporter</title>
<path fill="none" stroke="#000000" stroke-opacity="0.200000" d="M313.84,-45.18C334.58,-50.75 361.08,-57.85 383.32,-63.82"/>
<polygon fill="#000000" fill-opacity="0.200000" stroke="#000000" stroke-opacity="0.200000" points="382.58,-65.8 388.92,-65.32 383.67,-61.74 382.58,-65.8"/>
</g>
<!-- app_api/controllers/authentication.js&#45;&gt;node_modules/passport -->
<g id="edge28" class="edge">
<title>app_api/controllers/authentication.js&#45;&gt;node_modules/passport</title>
<path fill="none" stroke="#000000" stroke-opacity="0.200000" d="M289.79,-910.92C303.54,-897.66 326.52,-872.66 336,-845.81 341.4,-830.5 333.41,-566.1 344,-553.81 356.18,-539.66 376.72,-535.8 394.44,-535.54"/>
<polygon fill="#000000" fill-opacity="0.200000" stroke="#000000" stroke-opacity="0.200000" points="394.29,-537.64 400.31,-535.61 394.34,-533.44 394.29,-537.64"/>
</g>
<!-- app_api/controllers/authentication.js&#45;&gt;node_modules/mongoose -->
<g id="edge27" class="edge">
<title>app_api/controllers/authentication.js&#45;&gt;node_modules/mongoose</title>
<path fill="none" stroke="#000000" stroke-opacity="0.200000" d="M319.89,-911.16C326.2,-907.92 331.96,-903.59 336,-897.81 351.98,-874.93 325.75,-667.91 344,-646.81 355.45,-633.57 374.21,-629.35 391.11,-628.65"/>
<polygon fill="#000000" fill-opacity="0.200000" stroke="#000000" stroke-opacity="0.200000" points="390.73,-630.76 396.7,-628.57 390.67,-626.56 390.73,-630.76"/>
</g>
<!-- app_api/controllers/trips.js&#45;&gt;node_modules/mongoose -->
<g id="edge29" class="edge">
<title>app_api/controllers/trips.js&#45;&gt;node_modules/mongoose</title>
<path fill="none" stroke="#000000" stroke-opacity="0.200000" d="M305.1,-951.57C316.4,-950.01 328.67,-946.04 336,-936.81 356.04,-911.56 322.97,-671.23 344,-646.81 355.42,-633.54 374.18,-629.33 391.08,-628.63"/>
<polygon fill="#000000" fill-opacity="0.200000" stroke="#000000" stroke-opacity="0.200000" points="390.7,-630.74 396.67,-628.55 390.65,-626.54 390.7,-630.74"/>
</g>
<!-- app_api/database/models/travlr.js&#45;&gt;node_modules/mongoose -->
<g id="edge34" class="edge">
<title>app_api/database/models/travlr.js&#45;&gt;node_modules/mongoose</title>
<path fill="none" stroke="#000000" stroke-opacity="0.200000" d="M305.32,-1015.15C316.81,-1010.39 329.18,-1002.98 336,-991.81 345.99,-975.44 331.52,-661.36 344,-646.81 355.39,-633.52 374.15,-629.3 391.06,-628.61"/>
<polygon fill="#000000" fill-opacity="0.200000" stroke="#000000" stroke-opacity="0.200000" points="390.68,-630.72 396.65,-628.53 390.62,-626.52 390.68,-630.72"/>
</g>
<!-- app_api/database/models/users.js&#45;&gt;node_modules/mongoose -->
<g id="edge37" class="edge">
<title>app_api/database/models/users.js&#45;&gt;node_modules/mongoose</title>
<path fill="none" stroke="#000000" stroke-opacity="0.200000" d="M305.13,-1053.6C316.43,-1052.04 328.7,-1048.07 336,-1038.81 349.48,-1021.69 329.85,-663.36 344,-646.81 355.37,-633.5 374.13,-629.28 391.04,-628.6"/>
<polygon fill="#000000" fill-opacity="0.200000" stroke="#000000" stroke-opacity="0.200000" points="390.67,-630.7 396.64,-628.52 390.61,-626.5 390.67,-630.7"/>
</g>
<!-- crypto -->
<g id="node35" class="node">
<title>crypto</title>
<g id="a_node35"><a xlink:href="https://nodejs.org/api/crypto.html" xlink:title="crypto">
<path fill="#ffffcc" stroke="grey" d="M449.58,-1063.43C449.58,-1063.43 408.42,-1063.43 408.42,-1063.43 405.21,-1063.43 402,-1060.22 402,-1057.01 402,-1057.01 402,-1050.6 402,-1050.6 402,-1047.39 405.21,-1044.18 408.42,-1044.18 408.42,-1044.18 449.58,-1044.18 449.58,-1044.18 452.79,-1044.18 456,-1047.39 456,-1050.6 456,-1050.6 456,-1057.01 456,-1057.01 456,-1060.22 452.79,-1063.43 449.58,-1063.43"/>
<text text-anchor="middle" x="429" y="-1050.88" font-family="Helvetica,sans-Serif" font-size="9.00" fill="grey">crypto</text>
</a>
</g>
</g>
<!-- app_api/database/models/users.js&#45;&gt;crypto -->
<g id="edge35" class="edge">
<title>app_api/database/models/users.js&#45;&gt;crypto</title>
<path fill="none" stroke="#000000" stroke-dasharray="5,2" stroke-opacity="0.200000" d="M305.19,-1053.81C330.03,-1053.81 367.39,-1053.81 394.38,-1053.81"/>
<polygon fill="#000000" fill-opacity="0.200000" stroke="#000000" stroke-opacity="0.200000" points="394.18,-1055.91 400.18,-1053.81 394.18,-1051.71 394.18,-1055.91"/>
</g>
<!-- node_modules/jsonwebtoken -->
<g id="node36" class="node">
<title>node_modules/jsonwebtoken</title>
<g id="a_node36"><a xlink:href="https://www.npmjs.com/package/jsonwebtoken" xlink:title="jsonwebtoken">
<polygon fill="#c40b0a" fill-opacity="0.101961" stroke="black" points="465.88,-672.43 394.26,-672.43 392.12,-670.29 392.12,-653.18 463.74,-653.18 465.88,-655.32 465.88,-672.43"/>
<polyline fill="none" stroke="black" points="463.74,-670.29 392.12,-670.29"/>
<polyline fill="none" stroke="black" points="463.74,-670.29 463.74,-653.18"/>
<polyline fill="none" stroke="black" points="463.74,-670.29 465.88,-672.43"/>
<text text-anchor="start" x="400.12" y="-659.88" font-family="Helvetica,sans-Serif" font-size="9.00" fill="#c40b0a">jsonwebtoken</text>
</a>
</g>
</g>
<!-- app_api/database/models/users.js&#45;&gt;node_modules/jsonwebtoken -->
<g id="edge36" class="edge">
<title>app_api/database/models/users.js&#45;&gt;node_modules/jsonwebtoken</title>
<path fill="none" stroke="#000000" stroke-opacity="0.200000" d="M305.12,-1052.68C316.01,-1050.89 327.95,-1046.99 336,-1038.81 387.84,-986.08 418.54,-746.18 426.13,-679.84"/>
<polygon fill="#000000" fill-opacity="0.200000" stroke="#000000" stroke-opacity="0.200000" points="428.19,-680.34 426.78,-674.14 424.02,-679.87 428.19,-680.34"/>
</g>
<!-- node_modules/request -->
<g id="node40" class="node">
<title>node_modules/request</title>
<g id="a_node40"><a xlink:href="https://www.npmjs.com/package/request" xlink:title="request">
<polygon fill="#c40b0a" fill-opacity="0.101961" stroke="black" points="456,-517.43 404.14,-517.43 402,-515.29 402,-498.18 453.86,-498.18 456,-500.32 456,-517.43"/>
<polyline fill="none" stroke="black" points="453.86,-515.29 402,-515.29"/>
<polyline fill="none" stroke="black" points="453.86,-515.29 453.86,-498.18"/>
<polyline fill="none" stroke="black" points="453.86,-515.29 456,-517.43"/>
<text text-anchor="start" x="413.25" y="-504.88" font-family="Helvetica,sans-Serif" font-size="9.00" fill="#c40b0a">request</text>
</a>
</g>
</g>
<!-- app_server/controllers/travel.js&#45;&gt;node_modules/request -->
<g id="edge42" class="edge">
<title>app_server/controllers/travel.js&#45;&gt;node_modules/request</title>
<path fill="none" stroke="#000000" stroke-opacity="0.200000" d="M305.09,-608.16C316.38,-603.52 328.65,-596.39 336,-585.81 352.09,-562.62 324.55,-543.26 344,-522.81 356.77,-509.37 377.13,-505.49 394.6,-505.03"/>
<polygon fill="#000000" fill-opacity="0.200000" stroke="#000000" stroke-opacity="0.200000" points="394.37,-507.13 400.37,-505.02 394.37,-502.93 394.37,-507.13"/>
</g>
<!-- app_server/database/db.js -->
<g id="node41" class="node">
<title>app_server/database/db.js</title>
<g id="a_node41"><a xlink:href="app_server/database/db.js" xlink:title="db.js">
<path fill="#ffffcc" stroke="black" d="M189.33,-531.43C189.33,-531.43 148.17,-531.43 148.17,-531.43 144.96,-531.43 141.75,-528.22 141.75,-525.01 141.75,-525.01 141.75,-518.6 141.75,-518.6 141.75,-515.39 144.96,-512.18 148.17,-512.18 148.17,-512.18 189.33,-512.18 189.33,-512.18 192.54,-512.18 195.75,-515.39 195.75,-518.6 195.75,-518.6 195.75,-525.01 195.75,-525.01 195.75,-528.22 192.54,-531.43 189.33,-531.43"/>
<text text-anchor="start" x="158.62" y="-518.88" font-family="Helvetica,sans-Serif" font-size="9.00">db.js</text>
</a>
</g>
</g>
<!-- app_server/database/db.js&#45;&gt;./travlr -->
<g id="edge43" class="edge">
<title>app_server/database/db.js&#45;&gt;./travlr</title>
<g id="a_edge43"><a xlink:title="not&#45;to&#45;unresolvable">
<path fill="none" stroke="red" stroke-width="2" d="M196.2,-516.87C202.01,-514.66 207.65,-511.45 211.75,-506.81 222.6,-494.52 211.79,-485.13 219.75,-470.81 228.6,-454.87 243.39,-440.56 255.7,-430.39"/>
<polygon fill="red" stroke="red" stroke-width="2" points="256.85,-432.16 260.23,-426.78 254.23,-428.88 256.85,-432.16"/>
</a>
</g>
<text text-anchor="middle" x="262.14" y="-457.82" font-family="Helvetica,sans-Serif" font-size="9.00" fill="red">not&#45;to&#45;unresolvable</text>
</g>
<!-- app_server/database/db.js&#45;&gt;node_modules/mongoose -->
<g id="edge44" class="edge">
<title>app_server/database/db.js&#45;&gt;node_modules/mongoose</title>
<path fill="none" stroke="#000000" stroke-opacity="0.200000" d="M195.82,-517.6C201.93,-515.37 207.81,-511.98 211.75,-506.81 226.33,-487.66 202.12,-415.18 219.75,-398.81 257.61,-363.65 298.8,-362.95 336,-398.81 353.45,-415.63 328.1,-598.51 344,-616.81 355.48,-630.01 374.25,-634.23 391.14,-634.93"/>
<polygon fill="#000000" fill-opacity="0.200000" stroke="#000000" stroke-opacity="0.200000" points="390.69,-637.03 396.72,-635.02 390.75,-632.83 390.69,-637.03"/>
</g>
<!-- app_server/database/db.js&#45;&gt;readline -->
<g id="edge45" class="edge">
<title>app_server/database/db.js&#45;&gt;readline</title>
<path fill="none" stroke="#000000" stroke-dasharray="5,2" stroke-opacity="0.200000" d="M184.14,-531.76C193.79,-539.33 205.8,-550.65 211.75,-563.81 223.05,-588.76 206.6,-662.78 219.75,-686.81 226.27,-698.72 237.79,-708.17 248.77,-715.06"/>
<polygon fill="#000000" fill-opacity="0.200000" stroke="#000000" stroke-opacity="0.200000" points="247.61,-716.81 253.84,-718.05 249.74,-713.19 247.61,-716.81"/>
</g>
<!-- app_server/database/models/travlr.js -->
<g id="node42" class="node">
<title>app_server/database/models/travlr.js</title>
<g id="a_node42"><a xlink:href="app_server/database/models/travlr.js" xlink:title="travlr.js">
<path fill="#ffffcc" stroke="black" d="M189.33,-476.43C189.33,-476.43 148.17,-476.43 148.17,-476.43 144.96,-476.43 141.75,-473.22 141.75,-470.01 141.75,-470.01 141.75,-463.6 141.75,-463.6 141.75,-460.39 144.96,-457.18 148.17,-457.18 148.17,-457.18 189.33,-457.18 189.33,-457.18 192.54,-457.18 195.75,-460.39 195.75,-463.6 195.75,-463.6 195.75,-470.01 195.75,-470.01 195.75,-473.22 192.54,-476.43 189.33,-476.43"/>
<text text-anchor="start" x="154.12" y="-463.88" font-family="Helvetica,sans-Serif" font-size="9.00">travlr.js</text>
</a>
</g>
</g>
<!-- app_server/database/models/travlr.js&#45;&gt;node_modules/mongoose -->
<g id="edge46" class="edge">
<title>app_server/database/models/travlr.js&#45;&gt;node_modules/mongoose</title>
<path fill="none" stroke="#000000" stroke-opacity="0.200000" d="M171.45,-456.92C175.55,-436.51 188.1,-390.01 219.75,-370.81 263.92,-344.01 298.88,-334.87 336,-370.81 355.65,-389.83 326.11,-596.12 344,-616.81 355.45,-630.04 374.22,-634.25 391.11,-634.95"/>
<polygon fill="#000000" fill-opacity="0.200000" stroke="#000000" stroke-opacity="0.200000" points="390.67,-637.05 396.7,-635.03 390.73,-632.85 390.67,-637.05"/>
</g>
</g>
</svg>
