<?xml version="1.0" encoding="UTF-8" standalone="no"?>
<!DOCTYPE svg PUBLIC "-//W3C//DTD SVG 1.1//EN"
 "http://www.w3.org/Graphics/SVG/1.1/DTD/svg11.dtd">
<!-- Generated by graphviz version 9.0.0 (20230911.1827)
 -->
<!-- Title: dependency&#45;cruiser output Pages: 1 -->
<svg width="537pt" height="723pt"
 viewBox="0.00 0.00 537.12 722.62" xmlns="http://www.w3.org/2000/svg" xmlns:xlink="http://www.w3.org/1999/xlink">
<g id="graph0" class="graph" transform="scale(1 1) rotate(0) translate(4 718.62)">
<title>dependency&#45;cruiser output</title>
<polygon fill="white" stroke="none" points="-4,4 -4,-718.62 533.12,-718.62 533.12,4 -4,4"/>
<g id="clust1" class="cluster">
<title>cluster_add&#45;trip</title>
<path fill="#ffffff" stroke="black" stroke-width="2" d="M269.38,-277C269.38,-277 367.38,-277 367.38,-277 373.38,-277 379.38,-283 379.38,-289 379.38,-289 379.38,-320 379.38,-320 379.38,-326 373.38,-332 367.38,-332 367.38,-332 269.38,-332 269.38,-332 263.38,-332 257.38,-326 257.38,-320 257.38,-320 257.38,-289 257.38,-289 257.38,-283 263.38,-277 269.38,-277"/>
<text text-anchor="middle" x="318.38" y="-319.45" font-family="Helvetica,sans-Serif" font-weight="bold" font-size="9.00">add&#45;trip</text>
</g>
<g id="clust11" class="cluster">
<title>cluster_src</title>
<path fill="#ffffff" stroke="black" stroke-width="2" d="M403.88,-8C403.88,-8 509.12,-8 509.12,-8 515.12,-8 521.12,-14 521.12,-20 521.12,-20 521.12,-121 521.12,-121 521.12,-127 515.12,-133 509.12,-133 509.12,-133 403.88,-133 403.88,-133 397.88,-133 391.88,-127 391.88,-121 391.88,-121 391.88,-20 391.88,-20 391.88,-14 397.88,-8 403.88,-8"/>
<text text-anchor="middle" x="456.5" y="-120.45" font-family="Helvetica,sans-Serif" font-weight="bold" font-size="9.00">src</text>
</g>
<g id="clust12" class="cluster">
<title>cluster_src/app</title>
<path fill="#ffffff" stroke="black" stroke-width="2" d="M411.88,-16C411.88,-16 501.12,-16 501.12,-16 507.12,-16 513.12,-22 513.12,-28 513.12,-28 513.12,-94 513.12,-94 513.12,-100 507.12,-106 501.12,-106 501.12,-106 411.88,-106 411.88,-106 405.88,-106 399.88,-100 399.88,-94 399.88,-94 399.88,-28 399.88,-28 399.88,-22 405.88,-16 411.88,-16"/>
<text text-anchor="middle" x="456.5" y="-93.45" font-family="Helvetica,sans-Serif" font-weight="bold" font-size="9.00">app</text>
</g>
<g id="clust13" class="cluster">
<title>cluster_src/app/services</title>
<path fill="#ffffff" stroke="black" stroke-width="2" d="M419.88,-24C419.88,-24 493.12,-24 493.12,-24 499.12,-24 505.12,-30 505.12,-36 505.12,-36 505.12,-67 505.12,-67 505.12,-73 499.12,-79 493.12,-79 493.12,-79 419.88,-79 419.88,-79 413.88,-79 407.88,-73 407.88,-67 407.88,-67 407.88,-36 407.88,-36 407.88,-30 413.88,-24 419.88,-24"/>
<text text-anchor="middle" x="456.5" y="-66.45" font-family="Helvetica,sans-Serif" font-weight="bold" font-size="9.00">services</text>
</g>
<g id="clust6" class="cluster">
<title>cluster_models</title>
<path fill="#ffffff" stroke="black" stroke-width="2" d="M20,-537C20,-537 95.5,-537 95.5,-537 101.5,-537 107.5,-543 107.5,-549 107.5,-549 107.5,-642 107.5,-642 107.5,-648 101.5,-654 95.5,-654 95.5,-654 20,-654 20,-654 14,-654 8,-648 8,-642 8,-642 8,-549 8,-549 8,-543 14,-537 20,-537"/>
<text text-anchor="middle" x="57.75" y="-641.45" font-family="Helvetica,sans-Serif" font-weight="bold" font-size="9.00">models</text>
</g>
<g id="clust2" class="cluster">
<title>cluster_data</title>
<path fill="#ffffff" stroke="black" stroke-width="2" d="M34.75,-449C34.75,-449 80.75,-449 80.75,-449 86.75,-449 92.75,-455 92.75,-461 92.75,-461 92.75,-492 92.75,-492 92.75,-498 86.75,-504 80.75,-504 80.75,-504 34.75,-504 34.75,-504 28.75,-504 22.75,-498 22.75,-492 22.75,-492 22.75,-461 22.75,-461 22.75,-455 28.75,-449 34.75,-449"/>
<text text-anchor="middle" x="57.75" y="-491.45" font-family="Helvetica,sans-Serif" font-weight="bold" font-size="9.00">data</text>
</g>
<g id="clust7" class="cluster">
<title>cluster_navbar</title>
<path fill="#ffffff" stroke="black" stroke-width="2" d="M135.62,-632C135.62,-632 229.88,-632 229.88,-632 235.88,-632 241.88,-638 241.88,-644 241.88,-644 241.88,-675 241.88,-675 241.88,-681 235.88,-687 229.88,-687 229.88,-687 135.62,-687 135.62,-687 129.62,-687 123.62,-681 123.62,-675 123.62,-675 123.62,-644 123.62,-644 123.62,-638 129.62,-632 135.62,-632"/>
<text text-anchor="middle" x="182.75" y="-674.45" font-family="Helvetica,sans-Serif" font-weight="bold" font-size="9.00">navbar</text>
</g>
<g id="clust5" class="cluster">
<title>cluster_login</title>
<path fill="#ffffff" stroke="black" stroke-width="2" d="M275,-362C275,-362 361.75,-362 361.75,-362 367.75,-362 373.75,-368 373.75,-374 373.75,-374 373.75,-405 373.75,-405 373.75,-411 367.75,-417 361.75,-417 361.75,-417 275,-417 275,-417 269,-417 263,-411 263,-405 263,-405 263,-374 263,-374 263,-368 269,-362 275,-362"/>
<text text-anchor="middle" x="318.38" y="-404.45" font-family="Helvetica,sans-Serif" font-weight="bold" font-size="9.00">login</text>
</g>
<g id="clust4" class="cluster">
<title>cluster_home</title>
<path fill="#ffffff" stroke="black" stroke-width="2" d="M273.12,-103C273.12,-103 363.62,-103 363.62,-103 369.62,-103 375.62,-109 375.62,-115 375.62,-115 375.62,-146 375.62,-146 375.62,-152 369.62,-158 363.62,-158 363.62,-158 273.12,-158 273.12,-158 267.12,-158 261.12,-152 261.12,-146 261.12,-146 261.12,-115 261.12,-115 261.12,-109 267.12,-103 273.12,-103"/>
<text text-anchor="middle" x="318.38" y="-145.45" font-family="Helvetica,sans-Serif" font-weight="bold" font-size="9.00">home</text>
</g>
<g id="clust10" class="cluster">
<title>cluster_services</title>
<path fill="#ffffff" stroke="black" stroke-width="2" d="M264.88,-557C264.88,-557 371.88,-557 371.88,-557 377.88,-557 383.88,-563 383.88,-569 383.88,-569 383.88,-631 383.88,-631 383.88,-637 377.88,-643 371.88,-643 371.88,-643 264.88,-643 264.88,-643 258.88,-643 252.88,-637 252.88,-631 252.88,-631 252.88,-569 252.88,-569 252.88,-563 258.88,-557 264.88,-557"/>
<text text-anchor="middle" x="318.38" y="-630.45" font-family="Helvetica,sans-Serif" font-weight="bold" font-size="9.00">services</text>
</g>
<g id="clust3" class="cluster">
<title>cluster_edit&#45;trip</title>
<path fill="#ffffff" stroke="black" stroke-width="2" d="M269.75,-214C269.75,-214 367,-214 367,-214 373,-214 379,-220 379,-226 379,-226 379,-257 379,-257 379,-263 373,-269 367,-269 367,-269 269.75,-269 269.75,-269 263.75,-269 257.75,-263 257.75,-257 257.75,-257 257.75,-226 257.75,-226 257.75,-220 263.75,-214 269.75,-214"/>
<text text-anchor="middle" x="318.38" y="-256.45" font-family="Helvetica,sans-Serif" font-weight="bold" font-size="9.00">edit&#45;trip</text>
</g>
<g id="clust8" class="cluster">
<title>cluster_node_modules</title>
<path fill="#ffffff" stroke="black" stroke-width="2" d="M409.25,-318C409.25,-318 503.75,-318 503.75,-318 509.75,-318 515.75,-324 515.75,-330 515.75,-330 515.75,-520 515.75,-520 515.75,-526 509.75,-532 503.75,-532 503.75,-532 409.25,-532 409.25,-532 403.25,-532 397.25,-526 397.25,-520 397.25,-520 397.25,-330 397.25,-330 397.25,-324 403.25,-318 409.25,-318"/>
<text text-anchor="middle" x="456.5" y="-519.45" font-family="Helvetica,sans-Serif" font-weight="bold" font-size="9.00">node_modules</text>
</g>
<g id="clust9" class="cluster">
<title>cluster_node_modules/@angular</title>
<path fill="#ffffff" stroke="black" stroke-width="2" d="M417.25,-326C417.25,-326 495.75,-326 495.75,-326 501.75,-326 507.75,-332 507.75,-338 507.75,-338 507.75,-493 507.75,-493 507.75,-499 501.75,-505 495.75,-505 495.75,-505 417.25,-505 417.25,-505 411.25,-505 405.25,-499 405.25,-493 405.25,-493 405.25,-338 405.25,-338 405.25,-332 411.25,-326 417.25,-326"/>
<text text-anchor="middle" x="456.5" y="-492.45" font-family="Helvetica,sans-Serif" font-weight="bold" font-size="9.00">@angular</text>
</g>
<g id="clust14" class="cluster">
<title>cluster_trip&#45;card</title>
<path fill="#ffffff" stroke="black" stroke-width="2" d="M132.62,-547C132.62,-547 232.88,-547 232.88,-547 238.88,-547 244.88,-553 244.88,-559 244.88,-559 244.88,-590 244.88,-590 244.88,-596 238.88,-602 232.88,-602 232.88,-602 132.62,-602 132.62,-602 126.62,-602 120.62,-596 120.62,-590 120.62,-590 120.62,-559 120.62,-559 120.62,-553 126.62,-547 132.62,-547"/>
<text text-anchor="middle" x="182.75" y="-589.45" font-family="Helvetica,sans-Serif" font-weight="bold" font-size="9.00">trip&#45;card</text>
</g>
<g id="clust15" class="cluster">
<title>cluster_trip&#45;listing</title>
<path fill="#ffffff" stroke="black" stroke-width="2" d="M264.88,-40C264.88,-40 371.88,-40 371.88,-40 377.88,-40 383.88,-46 383.88,-52 383.88,-52 383.88,-83 383.88,-83 383.88,-89 377.88,-95 371.88,-95 371.88,-95 264.88,-95 264.88,-95 258.88,-95 252.88,-89 252.88,-83 252.88,-83 252.88,-52 252.88,-52 252.88,-46 258.88,-40 264.88,-40"/>
<text text-anchor="middle" x="318.38" y="-82.45" font-family="Helvetica,sans-Serif" font-weight="bold" font-size="9.00">trip&#45;listing</text>
</g>
<!-- .dependency&#45;cruiser.js -->
<g id="node1" class="node">
<title>.dependency&#45;cruiser.js</title>
<g id="a_node1"><a xlink:href=".dependency-cruiser.js" xlink:title=".dependency&#45;cruiser.js">
<path fill="#ccffcc" stroke="black" d="M106.21,-358.62C106.21,-358.62 9.29,-358.62 9.29,-358.62 6.08,-358.62 2.88,-355.42 2.88,-352.21 2.88,-352.21 2.88,-345.79 2.88,-345.79 2.88,-342.58 6.08,-339.38 9.29,-339.38 9.29,-339.38 106.21,-339.38 106.21,-339.38 109.42,-339.38 112.62,-342.58 112.62,-345.79 112.62,-345.79 112.62,-352.21 112.62,-352.21 112.62,-355.42 109.42,-358.62 106.21,-358.62"/>
<text text-anchor="middle" x="57.75" y="-346.07" font-family="Helvetica,sans-Serif" font-size="9.00">.dependency&#45;cruiser.js</text>
</a>
</g>
</g>
<!-- add&#45;trip/add&#45;trip.component.ts -->
<g id="node2" class="node">
<title>add&#45;trip/add&#45;trip.component.ts</title>
<g id="a_node2"><a xlink:href="add-trip/add-trip.component.ts" xlink:title="add&#45;trip.component.ts">
<path fill="#ddfeff" stroke="black" d="M364.96,-304.62C364.96,-304.62 271.79,-304.62 271.79,-304.62 268.58,-304.62 265.38,-301.42 265.38,-298.21 265.38,-298.21 265.38,-291.79 265.38,-291.79 265.38,-288.58 268.58,-285.38 271.79,-285.38 271.79,-285.38 364.96,-285.38 364.96,-285.38 368.17,-285.38 371.38,-288.58 371.38,-291.79 371.38,-291.79 371.38,-298.21 371.38,-298.21 371.38,-301.42 368.17,-304.62 364.96,-304.62"/>
<text text-anchor="start" x="273.38" y="-292.07" font-family="Helvetica,sans-Serif" font-size="9.00">add&#45;trip.component.ts</text>
</a>
</g>
</g>
<!-- node_modules/@angular/core -->
<g id="node3" class="node">
<title>node_modules/@angular/core</title>
<g id="a_node3"><a xlink:href="https://www.npmjs.com/package/@angular/core" xlink:title="core">
<polygon fill="#c40b0a" fill-opacity="0.101961" stroke="black" points="483.5,-415.62 431.64,-415.62 429.5,-413.49 429.5,-396.38 481.36,-396.38 483.5,-398.51 483.5,-415.62"/>
<polyline fill="none" stroke="black" points="481.36,-413.49 429.5,-413.49"/>
<polyline fill="none" stroke="black" points="481.36,-413.49 481.36,-396.38"/>
<polyline fill="none" stroke="black" points="481.36,-413.49 483.5,-415.62"/>
<text text-anchor="start" x="447.5" y="-403.07" font-family="Helvetica,sans-Serif" font-size="9.00" fill="#c40b0a">core</text>
</a>
</g>
</g>
<!-- add&#45;trip/add&#45;trip.component.ts&#45;&gt;node_modules/@angular/core -->
<g id="edge1" class="edge">
<title>add&#45;trip/add&#45;trip.component.ts&#45;&gt;node_modules/@angular/core</title>
<path fill="none" stroke="#000000" stroke-opacity="0.200000" d="M333.15,-304.93C347.93,-316.33 371.01,-336.37 383.88,-359 391.12,-371.74 381.44,-380.7 391.88,-391 399.82,-398.84 411.04,-402.87 421.86,-404.86"/>
<polygon fill="#000000" fill-opacity="0.200000" stroke="#000000" stroke-opacity="0.200000" points="421.5,-406.93 427.74,-405.71 422.1,-402.77 421.5,-406.93"/>
</g>
<!-- node_modules/@angular/forms -->
<g id="node4" class="node">
<title>node_modules/@angular/forms</title>
<g id="a_node4"><a xlink:href="https://www.npmjs.com/package/@angular/forms" xlink:title="forms">
<polygon fill="#c40b0a" fill-opacity="0.101961" stroke="black" points="483.5,-384.62 431.64,-384.62 429.5,-382.49 429.5,-365.38 481.36,-365.38 483.5,-367.51 483.5,-384.62"/>
<polyline fill="none" stroke="black" points="481.36,-382.49 429.5,-382.49"/>
<polyline fill="none" stroke="black" points="481.36,-382.49 481.36,-365.38"/>
<polyline fill="none" stroke="black" points="481.36,-382.49 483.5,-384.62"/>
<text text-anchor="start" x="444.5" y="-372.07" font-family="Helvetica,sans-Serif" font-size="9.00" fill="#c40b0a">forms</text>
</a>
</g>
</g>
<!-- add&#45;trip/add&#45;trip.component.ts&#45;&gt;node_modules/@angular/forms -->
<g id="edge2" class="edge">
<title>add&#45;trip/add&#45;trip.component.ts&#45;&gt;node_modules/@angular/forms</title>
<path fill="none" stroke="#000000" stroke-opacity="0.200000" d="M342.15,-305.08C355.94,-312.22 372.92,-323.01 383.88,-337 390.55,-345.52 383.84,-352.75 391.88,-360 400.09,-367.41 411.28,-371.35 421.98,-373.39"/>
<polygon fill="#000000" fill-opacity="0.200000" stroke="#000000" stroke-opacity="0.200000" points="421.53,-375.45 427.78,-374.29 422.17,-371.3 421.53,-375.45"/>
</g>
<!-- app&#45;router.module.ts -->
<g id="node5" class="node">
<title>app&#45;router.module.ts</title>
<g id="a_node5"><a xlink:href="app-router.module.ts" xlink:title="app&#45;router.module.ts">
<path fill="#ddfeff" stroke="black" d="M227.46,-226.62C227.46,-226.62 138.04,-226.62 138.04,-226.62 134.83,-226.62 131.62,-223.42 131.62,-220.21 131.62,-220.21 131.62,-213.79 131.62,-213.79 131.62,-210.58 134.83,-207.38 138.04,-207.38 138.04,-207.38 227.46,-207.38 227.46,-207.38 230.67,-207.38 233.88,-210.58 233.88,-213.79 233.88,-213.79 233.88,-220.21 233.88,-220.21 233.88,-223.42 230.67,-226.62 227.46,-226.62"/>
<text text-anchor="middle" x="182.75" y="-214.07" font-family="Helvetica,sans-Serif" font-size="9.00">app&#45;router.module.ts</text>
</a>
</g>
</g>
<!-- app&#45;router.module.ts&#45;&gt;add&#45;trip/add&#45;trip.component.ts -->
<g id="edge3" class="edge">
<title>app&#45;router.module.ts&#45;&gt;add&#45;trip/add&#45;trip.component.ts</title>
<path fill="none" stroke="#000000" stroke-width="2" stroke-opacity="0.200000" d="M193.75,-226.74C206.54,-238.76 229.82,-259.18 252.88,-272 259.67,-275.78 267.19,-279.12 274.64,-282.01"/>
<polygon fill="#000000" fill-opacity="0.200000" stroke="#000000" stroke-width="2" stroke-opacity="0.200000" points="273.45,-283.81 279.81,-283.92 274.91,-279.87 273.45,-283.81"/>
</g>
<!-- app&#45;router.module.ts&#45;&gt;node_modules/@angular/core -->
<g id="edge8" class="edge">
<title>app&#45;router.module.ts&#45;&gt;node_modules/@angular/core</title>
<path fill="none" stroke="#000000" stroke-opacity="0.200000" d="M234.25,-207.67C286.47,-199.35 363.22,-191.24 383.88,-211 398.34,-224.84 379.1,-375.58 391.88,-391 399.18,-399.82 410.61,-404.02 421.78,-405.86"/>
<polygon fill="#000000" fill-opacity="0.200000" stroke="#000000" stroke-opacity="0.200000" points="421.32,-407.92 427.53,-406.58 421.84,-403.76 421.32,-407.92"/>
</g>
<!-- edit&#45;trip/edit&#45;trip.component.ts -->
<g id="node6" class="node">
<title>edit&#45;trip/edit&#45;trip.component.ts</title>
<g id="a_node6"><a xlink:href="edit-trip/edit-trip.component.ts" xlink:title="edit&#45;trip.component.ts">
<path fill="#ddfeff" stroke="black" d="M364.58,-241.62C364.58,-241.62 272.17,-241.62 272.17,-241.62 268.96,-241.62 265.75,-238.42 265.75,-235.21 265.75,-235.21 265.75,-228.79 265.75,-228.79 265.75,-225.58 268.96,-222.38 272.17,-222.38 272.17,-222.38 364.58,-222.38 364.58,-222.38 367.79,-222.38 371,-225.58 371,-228.79 371,-228.79 371,-235.21 371,-235.21 371,-238.42 367.79,-241.62 364.58,-241.62"/>
<text text-anchor="start" x="273.75" y="-229.07" font-family="Helvetica,sans-Serif" font-size="9.00">edit&#45;trip.component.ts</text>
</a>
</g>
</g>
<!-- app&#45;router.module.ts&#45;&gt;edit&#45;trip/edit&#45;trip.component.ts -->
<g id="edge4" class="edge">
<title>app&#45;router.module.ts&#45;&gt;edit&#45;trip/edit&#45;trip.component.ts</title>
<path fill="none" stroke="#000000" stroke-width="2" stroke-opacity="0.200000" d="M234.27,-222.67C241.6,-223.49 249.21,-224.35 256.71,-225.19"/>
<polygon fill="#000000" fill-opacity="0.200000" stroke="#000000" stroke-width="2" stroke-opacity="0.200000" points="256.25,-227.25 262.44,-225.83 256.72,-223.08 256.25,-227.25"/>
</g>
<!-- home/home.component.ts -->
<g id="node7" class="node">
<title>home/home.component.ts</title>
<g id="a_node7"><a xlink:href="home/home.component.ts" xlink:title="home.component.ts">
<path fill="#ddfeff" stroke="black" d="M361.21,-130.62C361.21,-130.62 275.54,-130.62 275.54,-130.62 272.33,-130.62 269.12,-127.42 269.12,-124.21 269.12,-124.21 269.12,-117.79 269.12,-117.79 269.12,-114.58 272.33,-111.38 275.54,-111.38 275.54,-111.38 361.21,-111.38 361.21,-111.38 364.42,-111.38 367.62,-114.58 367.62,-117.79 367.62,-117.79 367.62,-124.21 367.62,-124.21 367.62,-127.42 364.42,-130.62 361.21,-130.62"/>
<text text-anchor="start" x="277.12" y="-118.08" font-family="Helvetica,sans-Serif" font-size="9.00">home.component.ts</text>
</a>
</g>
</g>
<!-- app&#45;router.module.ts&#45;&gt;home/home.component.ts -->
<g id="edge5" class="edge">
<title>app&#45;router.module.ts&#45;&gt;home/home.component.ts</title>
<path fill="none" stroke="#000000" stroke-width="2" stroke-opacity="0.200000" d="M195.75,-207.12C209.35,-196.04 232.3,-177.69 252.88,-163 266.2,-153.48 281.55,-143.45 293.93,-135.58"/>
<polygon fill="#000000" fill-opacity="0.200000" stroke="#000000" stroke-width="2" stroke-opacity="0.200000" points="294.7,-137.58 298.66,-132.6 292.46,-134.03 294.7,-137.58"/>
</g>
<!-- login/login.component.ts -->
<g id="node8" class="node">
<title>login/login.component.ts</title>
<g id="a_node8"><a xlink:href="login/login.component.ts" xlink:title="login.component.ts">
<path fill="#ddfeff" stroke="black" d="M359.33,-389.62C359.33,-389.62 277.42,-389.62 277.42,-389.62 274.21,-389.62 271,-386.42 271,-383.21 271,-383.21 271,-376.79 271,-376.79 271,-373.58 274.21,-370.38 277.42,-370.38 277.42,-370.38 359.33,-370.38 359.33,-370.38 362.54,-370.38 365.75,-373.58 365.75,-376.79 365.75,-376.79 365.75,-383.21 365.75,-383.21 365.75,-386.42 362.54,-389.62 359.33,-389.62"/>
<text text-anchor="start" x="279" y="-377.07" font-family="Helvetica,sans-Serif" font-size="9.00">login.component.ts</text>
</a>
</g>
</g>
<!-- app&#45;router.module.ts&#45;&gt;login/login.component.ts -->
<g id="edge6" class="edge">
<title>app&#45;router.module.ts&#45;&gt;login/login.component.ts</title>
<path fill="none" stroke="#000000" stroke-width="2" stroke-opacity="0.200000" d="M187.87,-227.11C197.07,-248.76 220.98,-300.47 252.88,-335 263.92,-346.96 278.67,-357.54 291.28,-365.44"/>
<polygon fill="#000000" fill-opacity="0.200000" stroke="#000000" stroke-width="2" stroke-opacity="0.200000" points="289.99,-367.11 296.21,-368.42 292.17,-363.52 289.99,-367.11"/>
</g>
<!-- trip&#45;listing/trip&#45;listing.component.ts -->
<g id="node9" class="node">
<title>trip&#45;listing/trip&#45;listing.component.ts</title>
<g id="a_node9"><a xlink:href="trip-listing/trip-listing.component.ts" xlink:title="trip&#45;listing.component.ts">
<path fill="#ddfeff" stroke="black" d="M369.46,-67.62C369.46,-67.62 267.29,-67.62 267.29,-67.62 264.08,-67.62 260.88,-64.42 260.88,-61.21 260.88,-61.21 260.88,-54.79 260.88,-54.79 260.88,-51.58 264.08,-48.38 267.29,-48.38 267.29,-48.38 369.46,-48.38 369.46,-48.38 372.67,-48.38 375.88,-51.58 375.88,-54.79 375.88,-54.79 375.88,-61.21 375.88,-61.21 375.88,-64.42 372.67,-67.62 369.46,-67.62"/>
<text text-anchor="start" x="268.88" y="-55.08" font-family="Helvetica,sans-Serif" font-size="9.00">trip&#45;listing.component.ts</text>
</a>
</g>
</g>
<!-- app&#45;router.module.ts&#45;&gt;trip&#45;listing/trip&#45;listing.component.ts -->
<g id="edge7" class="edge">
<title>app&#45;router.module.ts&#45;&gt;trip&#45;listing/trip&#45;listing.component.ts</title>
<path fill="none" stroke="#000000" stroke-width="2" stroke-opacity="0.200000" d="M187.81,-206.9C196.89,-185.28 220.57,-133.74 252.88,-100 263.34,-89.07 277.16,-79.6 289.32,-72.43"/>
<polygon fill="#000000" fill-opacity="0.200000" stroke="#000000" stroke-width="2" stroke-opacity="0.200000" points="290.21,-74.34 294.39,-69.55 288.14,-70.68 290.21,-74.34"/>
</g>
<!-- node_modules/@angular/router -->
<g id="node10" class="node">
<title>node_modules/@angular/router</title>
<g id="a_node10"><a xlink:href="https://www.npmjs.com/package/@angular/router" xlink:title="router">
<polygon fill="#c40b0a" fill-opacity="0.101961" stroke="black" points="483.5,-353.62 431.64,-353.62 429.5,-351.49 429.5,-334.38 481.36,-334.38 483.5,-336.51 483.5,-353.62"/>
<polyline fill="none" stroke="black" points="481.36,-351.49 429.5,-351.49"/>
<polyline fill="none" stroke="black" points="481.36,-351.49 481.36,-334.38"/>
<polyline fill="none" stroke="black" points="481.36,-351.49 483.5,-353.62"/>
<text text-anchor="start" x="444.5" y="-341.07" font-family="Helvetica,sans-Serif" font-size="9.00" fill="#c40b0a">router</text>
</a>
</g>
</g>
<!-- app&#45;router.module.ts&#45;&gt;node_modules/@angular/router -->
<g id="edge9" class="edge">
<title>app&#45;router.module.ts&#45;&gt;node_modules/@angular/router</title>
<path fill="none" stroke="#000000" stroke-opacity="0.200000" d="M202.03,-207C239.41,-188.05 325.95,-151.95 383.88,-189 432.43,-220.05 448.54,-293.33 453.49,-326.8"/>
<polygon fill="#000000" fill-opacity="0.200000" stroke="#000000" stroke-opacity="0.200000" points="451.38,-326.87 454.27,-332.53 455.54,-326.31 451.38,-326.87"/>
</g>
<!-- edit&#45;trip/edit&#45;trip.component.ts&#45;&gt;node_modules/@angular/core -->
<g id="edge26" class="edge">
<title>edit&#45;trip/edit&#45;trip.component.ts&#45;&gt;node_modules/@angular/core</title>
<path fill="none" stroke="#000000" stroke-opacity="0.200000" d="M345.46,-242.1C359.34,-248.91 375.28,-259.37 383.88,-274 397.07,-296.47 375.01,-371.13 391.88,-391 399.28,-399.73 410.74,-403.91 421.89,-405.77"/>
<polygon fill="#000000" fill-opacity="0.200000" stroke="#000000" stroke-opacity="0.200000" points="421.42,-407.82 427.64,-406.49 421.95,-403.66 421.42,-407.82"/>
</g>
<!-- edit&#45;trip/edit&#45;trip.component.ts&#45;&gt;node_modules/@angular/forms -->
<g id="edge27" class="edge">
<title>edit&#45;trip/edit&#45;trip.component.ts&#45;&gt;node_modules/@angular/forms</title>
<path fill="none" stroke="#000000" stroke-opacity="0.200000" d="M344.99,-242.02C358.91,-248.86 375.03,-259.36 383.88,-274 393.8,-290.43 379.28,-345.52 391.88,-360 399.39,-368.64 410.87,-372.8 422.01,-374.67"/>
<polygon fill="#000000" fill-opacity="0.200000" stroke="#000000" stroke-opacity="0.200000" points="421.52,-376.72 427.74,-375.4 422.06,-372.56 421.52,-376.72"/>
</g>
<!-- home/home.component.ts&#45;&gt;node_modules/@angular/core -->
<g id="edge28" class="edge">
<title>home/home.component.ts&#45;&gt;node_modules/@angular/core</title>
<path fill="none" stroke="#000000" stroke-opacity="0.200000" d="M333.79,-131.08C349.37,-142.91 373.37,-164.11 383.88,-189 392.61,-209.7 377.59,-373.67 391.88,-391 399.16,-399.84 410.58,-404.04 421.76,-405.88"/>
<polygon fill="#000000" fill-opacity="0.200000" stroke="#000000" stroke-opacity="0.200000" points="421.3,-407.94 427.51,-406.6 421.82,-403.77 421.3,-407.94"/>
</g>
<!-- login/login.component.ts&#45;&gt;node_modules/@angular/core -->
<g id="edge29" class="edge">
<title>login/login.component.ts&#45;&gt;node_modules/@angular/core</title>
<path fill="none" stroke="#000000" stroke-opacity="0.200000" d="M366.22,-388.95C384.66,-392.47 405.41,-396.43 422.26,-399.65"/>
<polygon fill="#000000" fill-opacity="0.200000" stroke="#000000" stroke-opacity="0.200000" points="421.45,-401.63 427.73,-400.7 422.23,-397.51 421.45,-401.63"/>
</g>
<!-- trip&#45;listing/trip&#45;listing.component.ts&#45;&gt;node_modules/@angular/core -->
<g id="edge36" class="edge">
<title>trip&#45;listing/trip&#45;listing.component.ts&#45;&gt;node_modules/@angular/core</title>
<path fill="none" stroke="#000000" stroke-opacity="0.200000" d="M345.69,-67.97C359.64,-74.74 375.58,-85.19 383.88,-100 399.68,-128.22 371.45,-365.92 391.88,-391 399.16,-399.95 410.71,-404.16 421.97,-405.98"/>
<polygon fill="#000000" fill-opacity="0.200000" stroke="#000000" stroke-opacity="0.200000" points="421.57,-408.04 427.78,-406.67 422.07,-403.87 421.57,-408.04"/>
</g>
<!-- src/app/services/trip&#45;data.service -->
<g id="node18" class="node">
<title>src/app/services/trip&#45;data.service</title>
<g id="a_node18"><a xlink:title="trip&#45;data.service">
<path fill="#ffffcc" stroke="black" d="M490.71,-51.62C490.71,-51.62 422.29,-51.62 422.29,-51.62 419.08,-51.62 415.88,-48.42 415.88,-45.21 415.88,-45.21 415.88,-38.79 415.88,-38.79 415.88,-35.58 419.08,-32.38 422.29,-32.38 422.29,-32.38 490.71,-32.38 490.71,-32.38 493.92,-32.38 497.12,-35.58 497.12,-38.79 497.12,-38.79 497.12,-45.21 497.12,-45.21 497.12,-48.42 493.92,-51.62 490.71,-51.62"/>
<text text-anchor="start" x="423.88" y="-39.08" font-family="Helvetica,sans-Serif" font-size="9.00">trip&#45;data.service</text>
</a>
</g>
</g>
<!-- trip&#45;listing/trip&#45;listing.component.ts&#45;&gt;src/app/services/trip&#45;data.service -->
<g id="edge37" class="edge">
<title>trip&#45;listing/trip&#45;listing.component.ts&#45;&gt;src/app/services/trip&#45;data.service</title>
<g id="a_edge37"><a xlink:title="not&#45;to&#45;unresolvable">
<path fill="none" stroke="red" stroke-width="2" d="M376.32,-51.31C386.47,-50.11 396.96,-48.88 406.85,-47.72"/>
<polygon fill="red" stroke="red" stroke-width="2" points="407.02,-49.81 412.74,-47.03 406.53,-45.64 407.02,-49.81"/>
</a>
</g>
<text text-anchor="middle" x="356.25" y="-40.44" font-family="Helvetica,sans-Serif" font-size="9.00" fill="red">not&#45;to&#45;unresolvable</text>
</g>
<!-- app.component.ts -->
<g id="node11" class="node">
<title>app.component.ts</title>
<g id="a_node11"><a xlink:href="app.component.ts" xlink:title="app.component.ts">
<path fill="#ddfeff" stroke="black" d="M221.46,-714.62C221.46,-714.62 144.04,-714.62 144.04,-714.62 140.83,-714.62 137.62,-711.42 137.62,-708.21 137.62,-708.21 137.62,-701.79 137.62,-701.79 137.62,-698.58 140.83,-695.38 144.04,-695.38 144.04,-695.38 221.46,-695.38 221.46,-695.38 224.67,-695.38 227.88,-698.58 227.88,-701.79 227.88,-701.79 227.88,-708.21 227.88,-708.21 227.88,-711.42 224.67,-714.62 221.46,-714.62"/>
<text text-anchor="middle" x="182.75" y="-702.08" font-family="Helvetica,sans-Serif" font-size="9.00">app.component.ts</text>
</a>
</g>
</g>
<!-- app.component.ts&#45;&gt;node_modules/@angular/core -->
<g id="edge10" class="edge">
<title>app.component.ts&#45;&gt;node_modules/@angular/core</title>
<path fill="none" stroke="#000000" stroke-opacity="0.200000" d="M228.02,-711.61C274.49,-715.76 345.96,-713.68 383.88,-670 402.02,-649.1 374.35,-442.42 391.88,-421 399.18,-412.07 410.73,-407.86 421.99,-406.04"/>
<polygon fill="#000000" fill-opacity="0.200000" stroke="#000000" stroke-opacity="0.200000" points="422.09,-408.14 427.8,-405.34 421.59,-403.97 422.09,-408.14"/>
</g>
<!-- app.module.ts -->
<g id="node12" class="node">
<title>app.module.ts</title>
<g id="a_node12"><a xlink:href="app.module.ts" xlink:title="app.module.ts">
<path fill="#ddfeff" stroke="black" d="M88.96,-389.62C88.96,-389.62 26.54,-389.62 26.54,-389.62 23.33,-389.62 20.12,-386.42 20.12,-383.21 20.12,-383.21 20.12,-376.79 20.12,-376.79 20.12,-373.58 23.33,-370.38 26.54,-370.38 26.54,-370.38 88.96,-370.38 88.96,-370.38 92.17,-370.38 95.38,-373.58 95.38,-376.79 95.38,-376.79 95.38,-383.21 95.38,-383.21 95.38,-386.42 92.17,-389.62 88.96,-389.62"/>
<text text-anchor="middle" x="57.75" y="-377.07" font-family="Helvetica,sans-Serif" font-size="9.00">app.module.ts</text>
</a>
</g>
</g>
<!-- app.module.ts&#45;&gt;add&#45;trip/add&#45;trip.component.ts -->
<g id="edge11" class="edge">
<title>app.module.ts&#45;&gt;add&#45;trip/add&#45;trip.component.ts</title>
<path fill="none" stroke="#000000" stroke-width="2" stroke-opacity="0.200000" d="M95.66,-375.14C101.94,-372.89 107.94,-369.65 112.62,-365 121.81,-355.88 111.17,-345.84 120.62,-337 156.72,-303.28 212.99,-294 256.12,-292.44"/>
<polygon fill="#000000" fill-opacity="0.200000" stroke="#000000" stroke-width="2" stroke-opacity="0.200000" points="256.14,-294.54 262.09,-292.3 256.04,-290.35 256.14,-294.54"/>
</g>
<!-- app.module.ts&#45;&gt;node_modules/@angular/core -->
<g id="edge22" class="edge">
<title>app.module.ts&#45;&gt;node_modules/@angular/core</title>
<path fill="none" stroke="#000000" stroke-opacity="0.200000" d="M95.62,-389.93C134.41,-399.83 197.42,-414.35 252.88,-420 310.8,-425.91 325.92,-425.61 383.88,-420 396.41,-418.79 410,-416.41 421.95,-413.95"/>
<polygon fill="#000000" fill-opacity="0.200000" stroke="#000000" stroke-opacity="0.200000" points="422.24,-416.03 427.67,-412.73 421.36,-411.92 422.24,-416.03"/>
</g>
<!-- app.module.ts&#45;&gt;node_modules/@angular/forms -->
<g id="edge23" class="edge">
<title>app.module.ts&#45;&gt;node_modules/@angular/forms</title>
<path fill="none" stroke="#000000" stroke-opacity="0.200000" d="M95.41,-373.48C155.72,-363.69 279.58,-347.49 383.88,-359 396.46,-360.39 410.07,-363.11 422.01,-365.92"/>
<polygon fill="#000000" fill-opacity="0.200000" stroke="#000000" stroke-opacity="0.200000" points="421.4,-367.94 427.73,-367.31 422.4,-363.85 421.4,-367.94"/>
</g>
<!-- app.module.ts&#45;&gt;app&#45;router.module.ts -->
<g id="edge12" class="edge">
<title>app.module.ts&#45;&gt;app&#45;router.module.ts</title>
<path fill="none" stroke="#000000" stroke-width="2" stroke-opacity="0.200000" d="M95.61,-376.15C102.13,-373.83 108.23,-370.31 112.62,-365 126.41,-348.33 110.66,-287.2 120.62,-268 128.45,-252.93 142.85,-240.57 155.7,-231.8"/>
<polygon fill="#000000" fill-opacity="0.200000" stroke="#000000" stroke-width="2" stroke-opacity="0.200000" points="156.6,-233.73 160.49,-228.7 154.31,-230.2 156.6,-233.73"/>
</g>
<!-- app.module.ts&#45;&gt;edit&#45;trip/edit&#45;trip.component.ts -->
<g id="edge14" class="edge">
<title>app.module.ts&#45;&gt;edit&#45;trip/edit&#45;trip.component.ts</title>
<path fill="none" stroke="#000000" stroke-width="2" stroke-opacity="0.200000" d="M95.79,-375.96C102.21,-373.66 108.23,-370.19 112.62,-365 134.29,-339.42 99.15,-315.74 120.62,-290 153.56,-250.52 211.92,-237.12 256.56,-232.95"/>
<polygon fill="#000000" fill-opacity="0.200000" stroke="#000000" stroke-width="2" stroke-opacity="0.200000" points="256.47,-235.06 262.27,-232.48 256.12,-230.87 256.47,-235.06"/>
</g>
<!-- app.module.ts&#45;&gt;home/home.component.ts -->
<g id="edge15" class="edge">
<title>app.module.ts&#45;&gt;home/home.component.ts</title>
<path fill="none" stroke="#000000" stroke-width="2" stroke-opacity="0.200000" d="M95.75,-376.26C102.26,-373.94 108.32,-370.39 112.62,-365 135.4,-336.49 99.52,-230.77 120.62,-201 152.48,-156.07 214.15,-136.33 259.99,-127.69"/>
<polygon fill="#000000" fill-opacity="0.200000" stroke="#000000" stroke-width="2" stroke-opacity="0.200000" points="260.12,-129.8 265.66,-126.68 259.39,-125.66 260.12,-129.8"/>
</g>
<!-- app.module.ts&#45;&gt;login/login.component.ts -->
<g id="edge16" class="edge">
<title>app.module.ts&#45;&gt;login/login.component.ts</title>
<path fill="none" stroke="#000000" stroke-width="2" stroke-opacity="0.200000" d="M95.8,-380C139.29,-380 211.8,-380 261.98,-380"/>
<polygon fill="#000000" fill-opacity="0.200000" stroke="#000000" stroke-width="2" stroke-opacity="0.200000" points="261.73,-382.1 267.73,-380 261.73,-377.9 261.73,-382.1"/>
</g>
<!-- app.module.ts&#45;&gt;trip&#45;listing/trip&#45;listing.component.ts -->
<g id="edge20" class="edge">
<title>app.module.ts&#45;&gt;trip&#45;listing/trip&#45;listing.component.ts</title>
<path fill="none" stroke="#000000" stroke-width="2" stroke-opacity="0.200000" d="M95.82,-376.31C102.32,-373.99 108.36,-370.42 112.62,-365 128.98,-344.2 104.96,-148.32 120.62,-127 150.76,-85.98 207.16,-69.2 251.87,-62.41"/>
<polygon fill="#000000" fill-opacity="0.200000" stroke="#000000" stroke-width="2" stroke-opacity="0.200000" points="252,-64.52 257.65,-61.61 251.41,-60.36 252,-64.52"/>
</g>
<!-- app.module.ts&#45;&gt;app.component.ts -->
<g id="edge13" class="edge">
<title>app.module.ts&#45;&gt;app.component.ts</title>
<path fill="none" stroke="#000000" stroke-width="2" stroke-opacity="0.200000" d="M70.38,-389.79C83.43,-401.58 103.9,-422.73 112.62,-446 122.15,-471.4 103.54,-668.93 120.62,-690 123.06,-693.01 126,-695.47 129.25,-697.48"/>
<polygon fill="#000000" fill-opacity="0.200000" stroke="#000000" stroke-width="2" stroke-opacity="0.200000" points="128.27,-699.34 134.58,-700.07 130.1,-695.56 128.27,-699.34"/>
</g>
<!-- navbar/navbar.component.ts -->
<g id="node13" class="node">
<title>navbar/navbar.component.ts</title>
<g id="a_node13"><a xlink:href="navbar/navbar.component.ts" xlink:title="navbar.component.ts">
<path fill="#ddfeff" stroke="black" d="M227.46,-659.62C227.46,-659.62 138.04,-659.62 138.04,-659.62 134.83,-659.62 131.62,-656.42 131.62,-653.21 131.62,-653.21 131.62,-646.79 131.62,-646.79 131.62,-643.58 134.83,-640.38 138.04,-640.38 138.04,-640.38 227.46,-640.38 227.46,-640.38 230.67,-640.38 233.88,-643.58 233.88,-646.79 233.88,-646.79 233.88,-653.21 233.88,-653.21 233.88,-656.42 230.67,-659.62 227.46,-659.62"/>
<text text-anchor="start" x="139.62" y="-647.08" font-family="Helvetica,sans-Serif" font-size="9.00">navbar.component.ts</text>
</a>
</g>
</g>
<!-- app.module.ts&#45;&gt;navbar/navbar.component.ts -->
<g id="edge17" class="edge">
<title>app.module.ts&#45;&gt;navbar/navbar.component.ts</title>
<path fill="none" stroke="#000000" stroke-width="2" stroke-opacity="0.200000" d="M70.33,-389.8C83.33,-401.61 103.77,-422.78 112.62,-446 119.8,-464.81 108.81,-610.7 120.62,-627 122.87,-630.1 125.59,-632.78 128.61,-635.1"/>
<polygon fill="#000000" fill-opacity="0.200000" stroke="#000000" stroke-width="2" stroke-opacity="0.200000" points="127.4,-636.82 133.59,-638.26 129.65,-633.27 127.4,-636.82"/>
</g>
<!-- services/authentication.service.ts -->
<g id="node14" class="node">
<title>services/authentication.service.ts</title>
<g id="a_node14"><a xlink:href="services/authentication.service.ts" xlink:title="authentication.service.ts">
<path fill="#ddfeff" stroke="black" d="M369.46,-584.62C369.46,-584.62 267.29,-584.62 267.29,-584.62 264.08,-584.62 260.88,-581.42 260.88,-578.21 260.88,-578.21 260.88,-571.79 260.88,-571.79 260.88,-568.58 264.08,-565.38 267.29,-565.38 267.29,-565.38 369.46,-565.38 369.46,-565.38 372.67,-565.38 375.88,-568.58 375.88,-571.79 375.88,-571.79 375.88,-578.21 375.88,-578.21 375.88,-581.42 372.67,-584.62 369.46,-584.62"/>
<text text-anchor="start" x="268.88" y="-572.08" font-family="Helvetica,sans-Serif" font-size="9.00">authentication.service.ts</text>
</a>
</g>
</g>
<!-- app.module.ts&#45;&gt;services/authentication.service.ts -->
<g id="edge18" class="edge">
<title>app.module.ts&#45;&gt;services/authentication.service.ts</title>
<path fill="none" stroke="#000000" stroke-width="2" stroke-opacity="0.200000" d="M70.31,-389.81C83.29,-401.63 103.7,-422.81 112.62,-446 118.98,-462.51 107.81,-592.81 120.62,-605 140.63,-624.03 221.2,-619.21 244.88,-605 251.35,-601.11 246.88,-594.6 252.88,-590 253.03,-589.88 253.18,-589.76 253.34,-589.65"/>
<polygon fill="#000000" fill-opacity="0.200000" stroke="#000000" stroke-width="2" stroke-opacity="0.200000" points="254.24,-591.56 258.22,-586.6 252.02,-588 254.24,-591.56"/>
</g>
<!-- trip&#45;card/trip&#45;card.component.ts -->
<g id="node15" class="node">
<title>trip&#45;card/trip&#45;card.component.ts</title>
<g id="a_node15"><a xlink:href="trip-card/trip-card.component.ts" xlink:title="trip&#45;card.component.ts">
<path fill="#ddfeff" stroke="black" d="M230.46,-574.62C230.46,-574.62 135.04,-574.62 135.04,-574.62 131.83,-574.62 128.62,-571.42 128.62,-568.21 128.62,-568.21 128.62,-561.79 128.62,-561.79 128.62,-558.58 131.83,-555.38 135.04,-555.38 135.04,-555.38 230.46,-555.38 230.46,-555.38 233.67,-555.38 236.88,-558.58 236.88,-561.79 236.88,-561.79 236.88,-568.21 236.88,-568.21 236.88,-571.42 233.67,-574.62 230.46,-574.62"/>
<text text-anchor="start" x="136.62" y="-562.08" font-family="Helvetica,sans-Serif" font-size="9.00">trip&#45;card.component.ts</text>
</a>
</g>
</g>
<!-- app.module.ts&#45;&gt;trip&#45;card/trip&#45;card.component.ts -->
<g id="edge19" class="edge">
<title>app.module.ts&#45;&gt;trip&#45;card/trip&#45;card.component.ts</title>
<path fill="none" stroke="#000000" stroke-width="2" stroke-opacity="0.200000" d="M70.17,-389.87C83.02,-401.74 103.32,-422.96 112.62,-446 120.64,-465.85 107.72,-524.92 120.62,-542 123.04,-545.19 125.94,-547.94 129.16,-550.3"/>
<polygon fill="#000000" fill-opacity="0.200000" stroke="#000000" stroke-width="2" stroke-opacity="0.200000" points="127.85,-551.96 134.06,-553.32 130.05,-548.39 127.85,-551.96"/>
</g>
<!-- node_modules/@angular/common -->
<g id="node16" class="node">
<title>node_modules/@angular/common</title>
<g id="a_node16"><a xlink:href="https://www.npmjs.com/package/@angular/common" xlink:title="common">
<polygon fill="#c40b0a" fill-opacity="0.101961" stroke="black" points="483.5,-477.62 431.64,-477.62 429.5,-475.49 429.5,-458.38 481.36,-458.38 483.5,-460.51 483.5,-477.62"/>
<polyline fill="none" stroke="black" points="481.36,-475.49 429.5,-475.49"/>
<polyline fill="none" stroke="black" points="481.36,-475.49 481.36,-458.38"/>
<polyline fill="none" stroke="black" points="481.36,-475.49 483.5,-477.62"/>
<text text-anchor="start" x="438.12" y="-465.07" font-family="Helvetica,sans-Serif" font-size="9.00" fill="#c40b0a">common</text>
</a>
</g>
</g>
<!-- app.module.ts&#45;&gt;node_modules/@angular/common -->
<g id="edge21" class="edge">
<title>app.module.ts&#45;&gt;node_modules/@angular/common</title>
<path fill="none" stroke="#000000" stroke-opacity="0.200000" d="M69.03,-389.76C81.18,-401.85 101.18,-423.61 112.62,-446 118.91,-458.29 111.27,-465.86 120.62,-476 162.91,-521.86 191.4,-512.4 252.88,-523 310.25,-532.89 328.75,-541.72 383.88,-523 407,-515.15 428.5,-496.49 441.79,-483.08"/>
<polygon fill="#000000" fill-opacity="0.200000" stroke="#000000" stroke-opacity="0.200000" points="443.27,-484.58 445.91,-478.8 440.24,-481.66 443.27,-484.58"/>
</g>
<!-- node_modules/@angular/platform&#45;browser -->
<g id="node17" class="node">
<title>node_modules/@angular/platform&#45;browser</title>
<g id="a_node17"><a xlink:href="https://www.npmjs.com/package/@angular/platform-browser" xlink:title="platform&#45;browser">
<polygon fill="#c40b0a" fill-opacity="0.101961" stroke="black" points="499.75,-446.62 415.39,-446.62 413.25,-444.49 413.25,-427.38 497.61,-427.38 499.75,-429.51 499.75,-446.62"/>
<polyline fill="none" stroke="black" points="497.61,-444.49 413.25,-444.49"/>
<polyline fill="none" stroke="black" points="497.61,-444.49 497.61,-427.38"/>
<polyline fill="none" stroke="black" points="497.61,-444.49 499.75,-446.62"/>
<text text-anchor="start" x="421.25" y="-434.07" font-family="Helvetica,sans-Serif" font-size="9.00" fill="#c40b0a">platform&#45;browser</text>
</a>
</g>
</g>
<!-- app.module.ts&#45;&gt;node_modules/@angular/platform&#45;browser -->
<g id="edge24" class="edge">
<title>app.module.ts&#45;&gt;node_modules/@angular/platform&#45;browser</title>
<path fill="none" stroke="#000000" stroke-opacity="0.200000" d="M69.44,-389.99C97.09,-415.05 174.32,-480.21 252.88,-503 308.79,-519.22 339.63,-540.85 383.88,-503 401.31,-488.09 376.28,-468.83 391.88,-452 395.78,-447.79 400.63,-444.65 405.9,-442.34"/>
<polygon fill="#000000" fill-opacity="0.200000" stroke="#000000" stroke-opacity="0.200000" points="406.42,-444.38 411.33,-440.34 404.97,-440.44 406.42,-444.38"/>
</g>
<!-- app.module.ts&#45;&gt;src/app/services/trip&#45;data.service -->
<g id="edge25" class="edge">
<title>app.module.ts&#45;&gt;src/app/services/trip&#45;data.service</title>
<g id="a_edge25"><a xlink:title="not&#45;to&#45;unresolvable">
<path fill="none" stroke="red" stroke-width="2" d="M95.85,-376.34C102.35,-374.01 108.38,-370.43 112.62,-365 133.48,-338.28 98.47,-85.66 120.62,-60 194.17,25.14 347.48,-7.99 418.24,-29.36"/>
<polygon fill="red" stroke="red" stroke-width="2" points="417.61,-31.36 423.97,-31.13 418.85,-27.35 417.61,-31.36"/>
</a>
</g>
<text text-anchor="middle" x="76.35" y="-202.73" font-family="Helvetica,sans-Serif" font-size="9.00" fill="red">not&#45;to&#45;unresolvable</text>
</g>
<!-- navbar/navbar.component.ts&#45;&gt;node_modules/@angular/core -->
<g id="edge30" class="edge">
<title>navbar/navbar.component.ts&#45;&gt;node_modules/@angular/core</title>
<path fill="none" stroke="#000000" stroke-opacity="0.200000" d="M212.23,-660.09C255.77,-673.49 338.56,-690.62 383.88,-646 401.7,-628.45 376,-440.33 391.88,-421 399.2,-412.08 410.75,-407.88 422.01,-406.06"/>
<polygon fill="#000000" fill-opacity="0.200000" stroke="#000000" stroke-opacity="0.200000" points="422.11,-408.16 427.82,-405.36 421.61,-403.99 422.11,-408.16"/>
</g>
<!-- services/authentication.service.ts&#45;&gt;node_modules/@angular/core -->
<g id="edge31" class="edge">
<title>services/authentication.service.ts&#45;&gt;node_modules/@angular/core</title>
<path fill="none" stroke="#000000" stroke-opacity="0.200000" d="M332.44,-564.93C347.72,-552.3 372.4,-529.12 383.88,-503 391.24,-486.24 379.83,-434.79 391.88,-421 399.41,-412.38 410.89,-408.22 422.03,-406.35"/>
<polygon fill="#000000" fill-opacity="0.200000" stroke="#000000" stroke-opacity="0.200000" points="422.08,-408.46 427.76,-405.62 421.54,-404.3 422.08,-408.46"/>
</g>
<!-- trip&#45;card/trip&#45;card.component.ts&#45;&gt;node_modules/@angular/core -->
<g id="edge35" class="edge">
<title>trip&#45;card/trip&#45;card.component.ts&#45;&gt;node_modules/@angular/core</title>
<path fill="none" stroke="#000000" stroke-opacity="0.200000" d="M188.16,-554.9C197.23,-535.37 219.95,-492.45 252.88,-471 302.84,-438.46 338.74,-480.98 383.88,-442 391.43,-435.47 384.36,-427.58 391.88,-421 400.13,-413.77 411.23,-409.86 421.84,-407.8"/>
<polygon fill="#000000" fill-opacity="0.200000" stroke="#000000" stroke-opacity="0.200000" points="421.98,-409.9 427.57,-406.88 421.32,-405.76 421.98,-409.9"/>
</g>
<!-- data/trips.ts -->
<g id="node19" class="node">
<title>data/trips.ts</title>
<g id="a_node19"><a xlink:href="data/trips.ts" xlink:title="no&#45;orphans">
<path fill="#ccffcc" stroke="orange" d="M78.33,-476.62C78.33,-476.62 37.17,-476.62 37.17,-476.62 33.96,-476.62 30.75,-473.42 30.75,-470.21 30.75,-470.21 30.75,-463.79 30.75,-463.79 30.75,-460.58 33.96,-457.38 37.17,-457.38 37.17,-457.38 78.33,-457.38 78.33,-457.38 81.54,-457.38 84.75,-460.58 84.75,-463.79 84.75,-463.79 84.75,-470.21 84.75,-470.21 84.75,-473.42 81.54,-476.62 78.33,-476.62"/>
<text text-anchor="start" x="43.88" y="-464.07" font-family="Helvetica,sans-Serif" font-size="9.00" fill="orange">trips.ts</text>
</a>
</g>
</g>
<!-- models/authresponse.ts -->
<g id="node20" class="node">
<title>models/authresponse.ts</title>
<g id="a_node20"><a xlink:href="models/authresponse.ts" xlink:title="no&#45;orphans">
<path fill="#ccffcc" stroke="orange" d="M93.08,-626.62C93.08,-626.62 22.42,-626.62 22.42,-626.62 19.21,-626.62 16,-623.42 16,-620.21 16,-620.21 16,-613.79 16,-613.79 16,-610.58 19.21,-607.38 22.42,-607.38 22.42,-607.38 93.08,-607.38 93.08,-607.38 96.29,-607.38 99.5,-610.58 99.5,-613.79 99.5,-613.79 99.5,-620.21 99.5,-620.21 99.5,-623.42 96.29,-626.62 93.08,-626.62"/>
<text text-anchor="start" x="24" y="-614.08" font-family="Helvetica,sans-Serif" font-size="9.00" fill="orange">authresponse.ts</text>
</a>
</g>
</g>
<!-- models/trip.ts -->
<g id="node21" class="node">
<title>models/trip.ts</title>
<g id="a_node21"><a xlink:href="models/trip.ts" xlink:title="no&#45;orphans">
<path fill="#ccffcc" stroke="orange" d="M78.33,-595.62C78.33,-595.62 37.17,-595.62 37.17,-595.62 33.96,-595.62 30.75,-592.42 30.75,-589.21 30.75,-589.21 30.75,-582.79 30.75,-582.79 30.75,-579.58 33.96,-576.38 37.17,-576.38 37.17,-576.38 78.33,-576.38 78.33,-576.38 81.54,-576.38 84.75,-579.58 84.75,-582.79 84.75,-582.79 84.75,-589.21 84.75,-589.21 84.75,-592.42 81.54,-595.62 78.33,-595.62"/>
<text text-anchor="start" x="46.5" y="-583.08" font-family="Helvetica,sans-Serif" font-size="9.00" fill="orange">trip.ts</text>
</a>
</g>
</g>
<!-- models/user.ts -->
<g id="node22" class="node">
<title>models/user.ts</title>
<g id="a_node22"><a xlink:href="models/user.ts" xlink:title="no&#45;orphans">
<path fill="#ccffcc" stroke="orange" d="M78.33,-564.62C78.33,-564.62 37.17,-564.62 37.17,-564.62 33.96,-564.62 30.75,-561.42 30.75,-558.21 30.75,-558.21 30.75,-551.79 30.75,-551.79 30.75,-548.58 33.96,-545.38 37.17,-545.38 37.17,-545.38 78.33,-545.38 78.33,-545.38 81.54,-545.38 84.75,-548.58 84.75,-551.79 84.75,-551.79 84.75,-558.21 84.75,-558.21 84.75,-561.42 81.54,-564.62 78.33,-564.62"/>
<text text-anchor="start" x="43.5" y="-552.08" font-family="Helvetica,sans-Serif" font-size="9.00" fill="orange">user.ts</text>
</a>
</g>
</g>
<!-- services/trip&#45;data.service.ts -->
<g id="node23" class="node">
<title>services/trip&#45;data.service.ts</title>
<g id="a_node23"><a xlink:href="services/trip-data.service.ts" xlink:title="trip&#45;data.service.ts">
<path fill="#ddfeff" stroke="black" d="M357.46,-615.62C357.46,-615.62 279.29,-615.62 279.29,-615.62 276.08,-615.62 272.88,-612.42 272.88,-609.21 272.88,-609.21 272.88,-602.79 272.88,-602.79 272.88,-599.58 276.08,-596.38 279.29,-596.38 279.29,-596.38 357.46,-596.38 357.46,-596.38 360.67,-596.38 363.88,-599.58 363.88,-602.79 363.88,-602.79 363.88,-609.21 363.88,-609.21 363.88,-612.42 360.67,-615.62 357.46,-615.62"/>
<text text-anchor="start" x="280.88" y="-603.08" font-family="Helvetica,sans-Serif" font-size="9.00">trip&#45;data.service.ts</text>
</a>
</g>
</g>
<!-- services/trip&#45;data.service.ts&#45;&gt;node_modules/@angular/core -->
<g id="edge33" class="edge">
<title>services/trip&#45;data.service.ts&#45;&gt;node_modules/@angular/core</title>
<path fill="none" stroke="#000000" stroke-opacity="0.200000" d="M364.22,-603.44C371.77,-600.99 378.8,-597.09 383.88,-591 395.98,-576.47 379.79,-435.55 391.88,-421 399.19,-412.19 410.62,-408 421.79,-406.15"/>
<polygon fill="#000000" fill-opacity="0.200000" stroke="#000000" stroke-opacity="0.200000" points="421.85,-408.26 427.54,-405.43 421.33,-404.09 421.85,-408.26"/>
</g>
<!-- services/trip&#45;data.service.ts&#45;&gt;node_modules/@angular/common -->
<g id="edge32" class="edge">
<title>services/trip&#45;data.service.ts&#45;&gt;node_modules/@angular/common</title>
<path fill="none" stroke="#000000" stroke-opacity="0.200000" d="M364.14,-600.61C371.18,-598.4 378.05,-595.3 383.88,-591 420.76,-563.77 441.81,-511.39 450.59,-484.63"/>
<polygon fill="#000000" fill-opacity="0.200000" stroke="#000000" stroke-opacity="0.200000" points="452.49,-485.6 452.29,-479.25 448.48,-484.33 452.49,-485.6"/>
</g>
<!-- storage.ts -->
<g id="node24" class="node">
<title>storage.ts</title>
<g id="a_node24"><a xlink:href="storage.ts" xlink:title="storage.ts">
<path fill="#ddfeff" stroke="black" d="M340.58,-496.62C340.58,-496.62 296.17,-496.62 296.17,-496.62 292.96,-496.62 289.75,-493.42 289.75,-490.21 289.75,-490.21 289.75,-483.79 289.75,-483.79 289.75,-480.58 292.96,-477.38 296.17,-477.38 296.17,-477.38 340.58,-477.38 340.58,-477.38 343.79,-477.38 347,-480.58 347,-483.79 347,-483.79 347,-490.21 347,-490.21 347,-493.42 343.79,-496.62 340.58,-496.62"/>
<text text-anchor="middle" x="318.38" y="-484.07" font-family="Helvetica,sans-Serif" font-size="9.00">storage.ts</text>
</a>
</g>
</g>
<!-- storage.ts&#45;&gt;node_modules/@angular/core -->
<g id="edge34" class="edge">
<title>storage.ts&#45;&gt;node_modules/@angular/core</title>
<path fill="none" stroke="#000000" stroke-opacity="0.200000" d="M347.42,-485.37C360.31,-483.14 374.73,-478.3 383.88,-468 397.95,-452.16 377.37,-436.45 391.88,-421 399.65,-412.72 411.07,-408.62 422.1,-406.7"/>
<polygon fill="#000000" fill-opacity="0.200000" stroke="#000000" stroke-opacity="0.200000" points="422.08,-408.82 427.74,-405.93 421.51,-404.66 422.08,-408.82"/>
</g>
</g>
</svg>
