<?xml version="1.0" encoding="UTF-8" standalone="no"?>
<!DOCTYPE svg PUBLIC "-//W3C//DTD SVG 1.1//EN"
 "http://www.w3.org/Graphics/SVG/1.1/DTD/svg11.dtd">
<!-- Generated by graphviz version 9.0.0 (20230911.1827)
 -->
<!-- Title: dependency&#45;cruiser output Pages: 1 -->
<svg width="333pt" height="396pt"
 viewBox="0.00 0.00 332.50 395.62" xmlns="http://www.w3.org/2000/svg" xmlns:xlink="http://www.w3.org/1999/xlink">
<g id="graph0" class="graph" transform="scale(1 1) rotate(0) translate(4 391.62)">
<title>dependency&#45;cruiser output</title>
<polygon fill="white" stroke="none" points="-4,4 -4,-391.62 328.5,-391.62 328.5,4 -4,4"/>
<g id="clust2" class="cluster">
<title>cluster_controllers</title>
<path fill="#ffffff" stroke="black" stroke-width="2" d="M129.75,-230.62C129.75,-230.62 205.25,-230.62 205.25,-230.62 211.25,-230.62 217.25,-236.62 217.25,-242.62 217.25,-242.62 217.25,-304.62 217.25,-304.62 217.25,-310.62 211.25,-316.62 205.25,-316.62 205.25,-316.62 129.75,-316.62 129.75,-316.62 123.75,-316.62 117.75,-310.62 117.75,-304.62 117.75,-304.62 117.75,-242.62 117.75,-242.62 117.75,-236.62 123.75,-230.62 129.75,-230.62"/>
<text text-anchor="middle" x="167.5" y="-304.07" font-family="Helvetica,sans-Serif" font-weight="bold" font-size="9.00">controllers</text>
</g>
<g id="clust1" class="cluster">
<title>cluster_config</title>
<path fill="#ffffff" stroke="black" stroke-width="2" d="M140.25,-324.62C140.25,-324.62 194.75,-324.62 194.75,-324.62 200.75,-324.62 206.75,-330.62 206.75,-336.62 206.75,-336.62 206.75,-367.62 206.75,-367.62 206.75,-373.62 200.75,-379.62 194.75,-379.62 194.75,-379.62 140.25,-379.62 140.25,-379.62 134.25,-379.62 128.25,-373.62 128.25,-367.62 128.25,-367.62 128.25,-336.62 128.25,-336.62 128.25,-330.62 134.25,-324.62 140.25,-324.62"/>
<text text-anchor="middle" x="167.5" y="-367.07" font-family="Helvetica,sans-Serif" font-weight="bold" font-size="9.00">config</text>
</g>
<g id="clust3" class="cluster">
<title>cluster_database</title>
<path fill="#ffffff" stroke="black" stroke-width="2" d="M31.88,-27.62C31.88,-27.62 198.5,-27.62 198.5,-27.62 204.5,-27.62 210.5,-33.62 210.5,-39.62 210.5,-39.62 210.5,-136.62 210.5,-136.62 210.5,-142.62 204.5,-148.62 198.5,-148.62 198.5,-148.62 31.88,-148.62 31.88,-148.62 25.88,-148.62 19.88,-142.62 19.88,-136.62 19.88,-136.62 19.88,-39.62 19.88,-39.62 19.88,-33.62 25.88,-27.62 31.88,-27.62"/>
<text text-anchor="middle" x="115.19" y="-136.07" font-family="Helvetica,sans-Serif" font-weight="bold" font-size="9.00">database</text>
</g>
<g id="clust4" class="cluster">
<title>cluster_database/models</title>
<path fill="#ffffff" stroke="black" stroke-width="2" d="M144.5,-35.62C144.5,-35.62 190.5,-35.62 190.5,-35.62 196.5,-35.62 202.5,-41.62 202.5,-47.62 202.5,-47.62 202.5,-109.62 202.5,-109.62 202.5,-115.62 196.5,-121.62 190.5,-121.62 190.5,-121.62 144.5,-121.62 144.5,-121.62 138.5,-121.62 132.5,-115.62 132.5,-109.62 132.5,-109.62 132.5,-47.62 132.5,-47.62 132.5,-41.62 138.5,-35.62 144.5,-35.62"/>
<text text-anchor="middle" x="167.5" y="-109.08" font-family="Helvetica,sans-Serif" font-weight="bold" font-size="9.00">models</text>
</g>
<g id="clust5" class="cluster">
<title>cluster_node_modules</title>
<path fill="#ffffff" stroke="black" stroke-width="2" d="M237.25,-125.62C237.25,-125.62 304.5,-125.62 304.5,-125.62 310.5,-125.62 316.5,-131.62 316.5,-137.62 316.5,-137.62 316.5,-323.62 316.5,-323.62 316.5,-329.62 310.5,-335.62 304.5,-335.62 304.5,-335.62 237.25,-335.62 237.25,-335.62 231.25,-335.62 225.25,-329.62 225.25,-323.62 225.25,-323.62 225.25,-137.62 225.25,-137.62 225.25,-131.62 231.25,-125.62 237.25,-125.62"/>
<text text-anchor="middle" x="270.88" y="-323.07" font-family="Helvetica,sans-Serif" font-weight="bold" font-size="9.00">node_modules</text>
</g>
<g id="clust6" class="cluster">
<title>cluster_routes</title>
<path fill="#ffffff" stroke="black" stroke-width="2" d="M31.88,-213.62C31.88,-213.62 77.88,-213.62 77.88,-213.62 83.88,-213.62 89.88,-219.62 89.88,-225.62 89.88,-225.62 89.88,-256.62 89.88,-256.62 89.88,-262.62 83.88,-268.62 77.88,-268.62 77.88,-268.62 31.88,-268.62 31.88,-268.62 25.88,-268.62 19.88,-262.62 19.88,-256.62 19.88,-256.62 19.88,-225.62 19.88,-225.62 19.88,-219.62 25.88,-213.62 31.88,-213.62"/>
<text text-anchor="middle" x="54.88" y="-256.07" font-family="Helvetica,sans-Serif" font-weight="bold" font-size="9.00">routes</text>
</g>
<!-- .dependency&#45;cruiser.js -->
<g id="node1" class="node">
<title>.dependency&#45;cruiser.js</title>
<g id="a_node1"><a xlink:href=".dependency-cruiser.js" xlink:title=".dependency&#45;cruiser.js">
<path fill="#ccffcc" stroke="black" d="M103.33,-19.25C103.33,-19.25 6.42,-19.25 6.42,-19.25 3.21,-19.25 0,-16.04 0,-12.83 0,-12.83 0,-6.42 0,-6.42 0,-3.21 3.21,0 6.42,0 6.42,0 103.33,0 103.33,0 106.54,0 109.75,-3.21 109.75,-6.42 109.75,-6.42 109.75,-12.83 109.75,-12.83 109.75,-16.04 106.54,-19.25 103.33,-19.25"/>
<text text-anchor="middle" x="54.88" y="-6.7" font-family="Helvetica,sans-Serif" font-size="9.00">.dependency&#45;cruiser.js</text>
</a>
</g>
</g>
<!-- config/passport.js -->
<g id="node2" class="node">
<title>config/passport.js</title>
<g id="a_node2"><a xlink:href="config/passport.js" xlink:title="passport.js">
<path fill="#ffffcc" stroke="black" d="M192.33,-352.25C192.33,-352.25 142.67,-352.25 142.67,-352.25 139.46,-352.25 136.25,-349.04 136.25,-345.83 136.25,-345.83 136.25,-339.42 136.25,-339.42 136.25,-336.21 139.46,-333 142.67,-333 142.67,-333 192.33,-333 192.33,-333 195.54,-333 198.75,-336.21 198.75,-339.42 198.75,-339.42 198.75,-345.83 198.75,-345.83 198.75,-349.04 195.54,-352.25 192.33,-352.25"/>
<text text-anchor="start" x="144.25" y="-339.7" font-family="Helvetica,sans-Serif" font-size="9.00">passport.js</text>
</a>
</g>
</g>
<!-- node_modules/mongoose -->
<g id="node3" class="node">
<title>node_modules/mongoose</title>
<g id="a_node3"><a xlink:href="https://www.npmjs.com/package/mongoose" xlink:title="mongoose">
<polygon fill="#c40b0a" fill-opacity="0.101961" stroke="black" points="301.38,-215.25 242.51,-215.25 240.38,-213.11 240.38,-196 299.24,-196 301.38,-198.14 301.38,-215.25"/>
<polyline fill="none" stroke="black" points="299.24,-213.11 240.38,-213.11"/>
<polyline fill="none" stroke="black" points="299.24,-213.11 299.24,-196"/>
<polyline fill="none" stroke="black" points="299.24,-213.11 301.38,-215.25"/>
<text text-anchor="start" x="248.38" y="-202.7" font-family="Helvetica,sans-Serif" font-size="9.00" fill="#c40b0a">mongoose</text>
</a>
</g>
</g>
<!-- config/passport.js&#45;&gt;node_modules/mongoose -->
<g id="edge1" class="edge">
<title>config/passport.js&#45;&gt;node_modules/mongoose</title>
<path fill="none" stroke="#000000" stroke-opacity="0.200000" d="M199.14,-334.06C206.15,-330.68 212.83,-326.01 217.25,-319.62 229.81,-301.47 211.66,-238.01 225.25,-220.62 227.46,-217.8 230.23,-215.5 233.3,-213.63"/>
<polygon fill="#000000" fill-opacity="0.200000" stroke="#000000" stroke-opacity="0.200000" points="234.11,-215.57 238.57,-211.03 232.26,-211.8 234.11,-215.57"/>
</g>
<!-- node_modules/passport -->
<g id="node4" class="node">
<title>node_modules/passport</title>
<g id="a_node4"><a xlink:href="https://www.npmjs.com/package/passport" xlink:title="passport">
<polygon fill="#c40b0a" fill-opacity="0.101961" stroke="black" points="297.88,-277.25 246.01,-277.25 243.88,-275.11 243.88,-258 295.74,-258 297.88,-260.14 297.88,-277.25"/>
<polyline fill="none" stroke="black" points="295.74,-275.11 243.88,-275.11"/>
<polyline fill="none" stroke="black" points="295.74,-275.11 295.74,-258"/>
<polyline fill="none" stroke="black" points="295.74,-275.11 297.88,-277.25"/>
<text text-anchor="start" x="252.5" y="-264.7" font-family="Helvetica,sans-Serif" font-size="9.00" fill="#c40b0a">passport</text>
</a>
</g>
</g>
<!-- config/passport.js&#45;&gt;node_modules/passport -->
<g id="edge2" class="edge">
<title>config/passport.js&#45;&gt;node_modules/passport</title>
<path fill="none" stroke="#000000" stroke-opacity="0.200000" d="M199.09,-333.4C205.92,-330.04 212.53,-325.56 217.25,-319.62 227.72,-306.45 214.03,-295.17 225.25,-282.62 228.4,-279.11 232.39,-276.41 236.7,-274.35"/>
<polygon fill="#000000" fill-opacity="0.200000" stroke="#000000" stroke-opacity="0.200000" points="237.43,-276.32 242.23,-272.16 235.88,-272.42 237.43,-276.32"/>
</g>
<!-- node_modules/passport&#45;local -->
<g id="node5" class="node">
<title>node_modules/passport&#45;local</title>
<g id="a_node5"><a xlink:href="https://www.npmjs.com/package/passport-local" xlink:title="passport&#45;local">
<polygon fill="#c40b0a" fill-opacity="0.101961" stroke="black" points="308.5,-308.25 235.39,-308.25 233.25,-306.11 233.25,-289 306.36,-289 308.5,-291.14 308.5,-308.25"/>
<polyline fill="none" stroke="black" points="306.36,-306.11 233.25,-306.11"/>
<polyline fill="none" stroke="black" points="306.36,-306.11 306.36,-289"/>
<polyline fill="none" stroke="black" points="306.36,-306.11 308.5,-308.25"/>
<text text-anchor="start" x="241.25" y="-295.7" font-family="Helvetica,sans-Serif" font-size="9.00" fill="#c40b0a">passport&#45;local</text>
</a>
</g>
</g>
<!-- config/passport.js&#45;&gt;node_modules/passport&#45;local -->
<g id="edge3" class="edge">
<title>config/passport.js&#45;&gt;node_modules/passport&#45;local</title>
<path fill="none" stroke="#000000" stroke-opacity="0.200000" d="M191.76,-332.53C206.05,-326.33 224.51,-318.31 239.9,-311.64"/>
<polygon fill="#000000" fill-opacity="0.200000" stroke="#000000" stroke-opacity="0.200000" points="240.67,-313.59 245.34,-309.28 239,-309.74 240.67,-313.59"/>
</g>
<!-- controllers/authentication.js -->
<g id="node6" class="node">
<title>controllers/authentication.js</title>
<g id="a_node6"><a xlink:href="controllers/authentication.js" xlink:title="authentication.js">
<path fill="#ffffcc" stroke="black" d="M202.83,-289.25C202.83,-289.25 132.17,-289.25 132.17,-289.25 128.96,-289.25 125.75,-286.04 125.75,-282.83 125.75,-282.83 125.75,-276.42 125.75,-276.42 125.75,-273.21 128.96,-270 132.17,-270 132.17,-270 202.83,-270 202.83,-270 206.04,-270 209.25,-273.21 209.25,-276.42 209.25,-276.42 209.25,-282.83 209.25,-282.83 209.25,-286.04 206.04,-289.25 202.83,-289.25"/>
<text text-anchor="start" x="133.75" y="-276.7" font-family="Helvetica,sans-Serif" font-size="9.00">authentication.js</text>
</a>
</g>
</g>
<!-- controllers/authentication.js&#45;&gt;node_modules/mongoose -->
<g id="edge4" class="edge">
<title>controllers/authentication.js&#45;&gt;node_modules/mongoose</title>
<path fill="none" stroke="#000000" stroke-opacity="0.200000" d="M209.49,-270.99C212.37,-269.24 215.02,-267.14 217.25,-264.62 230.45,-249.76 212.25,-235.66 225.25,-220.62 227.6,-217.91 230.46,-215.68 233.58,-213.86"/>
<polygon fill="#000000" fill-opacity="0.200000" stroke="#000000" stroke-opacity="0.200000" points="234.41,-215.79 238.92,-211.31 232.6,-212 234.41,-215.79"/>
</g>
<!-- controllers/authentication.js&#45;&gt;node_modules/passport -->
<g id="edge5" class="edge">
<title>controllers/authentication.js&#45;&gt;node_modules/passport</title>
<path fill="none" stroke="#000000" stroke-opacity="0.200000" d="M209.73,-274.74C218.55,-273.7 227.77,-272.61 236.26,-271.6"/>
<polygon fill="#000000" fill-opacity="0.200000" stroke="#000000" stroke-opacity="0.200000" points="236.29,-273.72 242,-270.92 235.8,-269.54 236.29,-273.72"/>
</g>
<!-- controllers/trips.js -->
<g id="node7" class="node">
<title>controllers/trips.js</title>
<g id="a_node7"><a xlink:href="controllers/trips.js" xlink:title="trips.js">
<path fill="#ffffcc" stroke="black" d="M188.08,-258.25C188.08,-258.25 146.92,-258.25 146.92,-258.25 143.71,-258.25 140.5,-255.04 140.5,-251.83 140.5,-251.83 140.5,-245.42 140.5,-245.42 140.5,-242.21 143.71,-239 146.92,-239 146.92,-239 188.08,-239 188.08,-239 191.29,-239 194.5,-242.21 194.5,-245.42 194.5,-245.42 194.5,-251.83 194.5,-251.83 194.5,-255.04 191.29,-258.25 188.08,-258.25"/>
<text text-anchor="start" x="153.62" y="-245.7" font-family="Helvetica,sans-Serif" font-size="9.00">trips.js</text>
</a>
</g>
</g>
<!-- controllers/trips.js&#45;&gt;node_modules/mongoose -->
<g id="edge6" class="edge">
<title>controllers/trips.js&#45;&gt;node_modules/mongoose</title>
<path fill="none" stroke="#000000" stroke-opacity="0.200000" d="M187.38,-238.51C198.28,-232.88 212.35,-225.95 225.25,-220.62 227.74,-219.6 230.33,-218.59 232.94,-217.61"/>
<polygon fill="#000000" fill-opacity="0.200000" stroke="#000000" stroke-opacity="0.200000" points="233.56,-219.62 238.48,-215.6 232.13,-215.67 233.56,-219.62"/>
</g>
<!-- crypto -->
<g id="node8" class="node">
<title>crypto</title>
<g id="a_node8"><a xlink:href="https://nodejs.org/api/crypto.html" xlink:title="crypto">
<path fill="#ffffcc" stroke="grey" d="M291.46,-63.25C291.46,-63.25 250.29,-63.25 250.29,-63.25 247.08,-63.25 243.88,-60.04 243.88,-56.83 243.88,-56.83 243.88,-50.42 243.88,-50.42 243.88,-47.21 247.08,-44 250.29,-44 250.29,-44 291.46,-44 291.46,-44 294.67,-44 297.88,-47.21 297.88,-50.42 297.88,-50.42 297.88,-56.83 297.88,-56.83 297.88,-60.04 294.67,-63.25 291.46,-63.25"/>
<text text-anchor="middle" x="270.88" y="-50.7" font-family="Helvetica,sans-Serif" font-size="9.00" fill="grey">crypto</text>
</a>
</g>
</g>
<!-- database/db.js -->
<g id="node9" class="node">
<title>database/db.js</title>
<g id="a_node9"><a xlink:href="database/db.js" xlink:title="db.js">
<path fill="#ffffcc" stroke="black" d="M75.46,-78.25C75.46,-78.25 34.29,-78.25 34.29,-78.25 31.08,-78.25 27.88,-75.04 27.88,-71.83 27.88,-71.83 27.88,-65.42 27.88,-65.42 27.88,-62.21 31.08,-59 34.29,-59 34.29,-59 75.46,-59 75.46,-59 78.67,-59 81.88,-62.21 81.88,-65.42 81.88,-65.42 81.88,-71.83 81.88,-71.83 81.88,-75.04 78.67,-78.25 75.46,-78.25"/>
<text text-anchor="start" x="44.75" y="-65.7" font-family="Helvetica,sans-Serif" font-size="9.00">db.js</text>
</a>
</g>
</g>
<!-- database/db.js&#45;&gt;node_modules/mongoose -->
<g id="edge9" class="edge">
<title>database/db.js&#45;&gt;node_modules/mongoose</title>
<path fill="none" stroke="#000000" stroke-opacity="0.200000" d="M65.46,-78.34C77.22,-90.01 98.04,-109.85 117.75,-124.62 162.61,-158.25 174.47,-166.87 225.25,-190.62 227.92,-191.87 230.71,-193.06 233.55,-194.19"/>
<polygon fill="#000000" fill-opacity="0.200000" stroke="#000000" stroke-opacity="0.200000" points="232.45,-196.02 238.8,-196.17 233.93,-192.09 232.45,-196.02"/>
</g>
<!-- database/models/travlr.js -->
<g id="node10" class="node">
<title>database/models/travlr.js</title>
<g id="a_node10"><a xlink:href="database/models/travlr.js" xlink:title="travlr.js">
<path fill="#ffffcc" stroke="black" d="M188.08,-94.25C188.08,-94.25 146.92,-94.25 146.92,-94.25 143.71,-94.25 140.5,-91.04 140.5,-87.83 140.5,-87.83 140.5,-81.42 140.5,-81.42 140.5,-78.21 143.71,-75 146.92,-75 146.92,-75 188.08,-75 188.08,-75 191.29,-75 194.5,-78.21 194.5,-81.42 194.5,-81.42 194.5,-87.83 194.5,-87.83 194.5,-91.04 191.29,-94.25 188.08,-94.25"/>
<text text-anchor="start" x="152.88" y="-81.7" font-family="Helvetica,sans-Serif" font-size="9.00">travlr.js</text>
</a>
</g>
</g>
<!-- database/db.js&#45;&gt;database/models/travlr.js -->
<g id="edge7" class="edge">
<title>database/db.js&#45;&gt;database/models/travlr.js</title>
<path fill="none" stroke="#000000" stroke-width="2" stroke-opacity="0.200000" d="M82.37,-72.46C97.15,-74.59 115.73,-77.28 131.68,-79.59"/>
<polygon fill="#000000" fill-opacity="0.200000" stroke="#000000" stroke-width="2" stroke-opacity="0.200000" points="130.98,-81.61 137.22,-80.39 131.59,-77.45 130.98,-81.61"/>
</g>
<!-- database/models/users.js -->
<g id="node11" class="node">
<title>database/models/users.js</title>
<g id="a_node11"><a xlink:href="database/models/users.js" xlink:title="users.js">
<path fill="#ffffcc" stroke="black" d="M188.08,-63.25C188.08,-63.25 146.92,-63.25 146.92,-63.25 143.71,-63.25 140.5,-60.04 140.5,-56.83 140.5,-56.83 140.5,-50.42 140.5,-50.42 140.5,-47.21 143.71,-44 146.92,-44 146.92,-44 188.08,-44 188.08,-44 191.29,-44 194.5,-47.21 194.5,-50.42 194.5,-50.42 194.5,-56.83 194.5,-56.83 194.5,-60.04 191.29,-63.25 188.08,-63.25"/>
<text text-anchor="start" x="150.62" y="-50.7" font-family="Helvetica,sans-Serif" font-size="9.00">users.js</text>
</a>
</g>
</g>
<!-- database/db.js&#45;&gt;database/models/users.js -->
<g id="edge8" class="edge">
<title>database/db.js&#45;&gt;database/models/users.js</title>
<path fill="none" stroke="#000000" stroke-width="2" stroke-opacity="0.200000" d="M82.37,-65.03C97.15,-63.03 115.73,-60.51 131.68,-58.35"/>
<polygon fill="#000000" fill-opacity="0.200000" stroke="#000000" stroke-width="2" stroke-opacity="0.200000" points="131.56,-60.48 137.22,-57.6 130.99,-56.32 131.56,-60.48"/>
</g>
<!-- readline -->
<g id="node12" class="node">
<title>readline</title>
<g id="a_node12"><a xlink:href="https://nodejs.org/api/readline.html" xlink:title="readline">
<path fill="#ffffcc" stroke="grey" d="M188.08,-19.25C188.08,-19.25 146.92,-19.25 146.92,-19.25 143.71,-19.25 140.5,-16.04 140.5,-12.83 140.5,-12.83 140.5,-6.42 140.5,-6.42 140.5,-3.21 143.71,0 146.92,0 146.92,0 188.08,0 188.08,0 191.29,0 194.5,-3.21 194.5,-6.42 194.5,-6.42 194.5,-12.83 194.5,-12.83 194.5,-16.04 191.29,-19.25 188.08,-19.25"/>
<text text-anchor="middle" x="167.5" y="-6.7" font-family="Helvetica,sans-Serif" font-size="9.00" fill="grey">readline</text>
</a>
</g>
</g>
<!-- database/db.js&#45;&gt;readline -->
<g id="edge10" class="edge">
<title>database/db.js&#45;&gt;readline</title>
<path fill="none" stroke="#000000" stroke-dasharray="5,2" stroke-opacity="0.200000" d="M72.2,-58.61C84.56,-51.16 102.02,-40.89 117.75,-32.62 124.21,-29.23 131.26,-25.77 137.94,-22.6"/>
<polygon fill="#000000" fill-opacity="0.200000" stroke="#000000" stroke-opacity="0.200000" points="138.55,-24.63 143.09,-20.18 136.77,-20.83 138.55,-24.63"/>
</g>
<!-- database/models/travlr.js&#45;&gt;node_modules/mongoose -->
<g id="edge11" class="edge">
<title>database/models/travlr.js&#45;&gt;node_modules/mongoose</title>
<path fill="none" stroke="#000000" stroke-opacity="0.200000" d="M173.39,-94.75C185.6,-119.9 217.08,-183.72 225.25,-190.62 227.64,-192.64 230.31,-194.39 233.12,-195.91"/>
<polygon fill="#000000" fill-opacity="0.200000" stroke="#000000" stroke-opacity="0.200000" points="232.19,-197.79 238.52,-198.41 233.95,-193.98 232.19,-197.79"/>
</g>
<!-- database/models/users.js&#45;&gt;node_modules/mongoose -->
<g id="edge14" class="edge">
<title>database/models/users.js&#45;&gt;node_modules/mongoose</title>
<path fill="none" stroke="#000000" stroke-opacity="0.200000" d="M194.88,-55.87C203.29,-57.95 211.81,-61.75 217.25,-68.62 234.1,-89.94 208.68,-169.1 225.25,-190.62 227.62,-193.7 230.64,-196.15 234,-198.1"/>
<polygon fill="#000000" fill-opacity="0.200000" stroke="#000000" stroke-opacity="0.200000" points="232.64,-199.79 238.97,-200.46 234.44,-195.99 232.64,-199.79"/>
</g>
<!-- database/models/users.js&#45;&gt;crypto -->
<g id="edge12" class="edge">
<title>database/models/users.js&#45;&gt;crypto</title>
<path fill="none" stroke="#000000" stroke-dasharray="5,2" stroke-opacity="0.200000" d="M194.87,-53.62C207.54,-53.62 222.87,-53.62 236.36,-53.62"/>
<polygon fill="#000000" fill-opacity="0.200000" stroke="#000000" stroke-opacity="0.200000" points="236.12,-55.73 242.12,-53.63 236.12,-51.53 236.12,-55.73"/>
</g>
<!-- node_modules/jsonwebtoken -->
<g id="node13" class="node">
<title>node_modules/jsonwebtoken</title>
<g id="a_node13"><a xlink:href="https://www.npmjs.com/package/jsonwebtoken" xlink:title="jsonwebtoken">
<polygon fill="#c40b0a" fill-opacity="0.101961" stroke="black" points="307.75,-153.25 236.14,-153.25 234,-151.11 234,-134 305.61,-134 307.75,-136.14 307.75,-153.25"/>
<polyline fill="none" stroke="black" points="305.61,-151.11 234,-151.11"/>
<polyline fill="none" stroke="black" points="305.61,-151.11 305.61,-134"/>
<polyline fill="none" stroke="black" points="305.61,-151.11 307.75,-153.25"/>
<text text-anchor="start" x="242" y="-140.7" font-family="Helvetica,sans-Serif" font-size="9.00" fill="#c40b0a">jsonwebtoken</text>
</a>
</g>
</g>
<!-- database/models/users.js&#45;&gt;node_modules/jsonwebtoken -->
<g id="edge13" class="edge">
<title>database/models/users.js&#45;&gt;node_modules/jsonwebtoken</title>
<path fill="none" stroke="#000000" stroke-opacity="0.200000" d="M194.77,-58.31C202.51,-60.55 210.66,-63.83 217.25,-68.62 238.07,-83.77 253.6,-109.75 262.21,-126.81"/>
<polygon fill="#000000" fill-opacity="0.200000" stroke="#000000" stroke-opacity="0.200000" points="260.3,-127.67 264.81,-132.15 264.07,-125.84 260.3,-127.67"/>
</g>
<!-- node_modules/express -->
<g id="node14" class="node">
<title>node_modules/express</title>
<g id="a_node14"><a xlink:href="https://www.npmjs.com/package/express" xlink:title="express">
<polygon fill="#c40b0a" fill-opacity="0.101961" stroke="black" points="297.88,-246.25 246.01,-246.25 243.88,-244.11 243.88,-227 295.74,-227 297.88,-229.14 297.88,-246.25"/>
<polyline fill="none" stroke="black" points="295.74,-244.11 243.88,-244.11"/>
<polyline fill="none" stroke="black" points="295.74,-244.11 295.74,-227"/>
<polyline fill="none" stroke="black" points="295.74,-244.11 297.88,-246.25"/>
<text text-anchor="start" x="254.38" y="-233.7" font-family="Helvetica,sans-Serif" font-size="9.00" fill="#c40b0a">express</text>
</a>
</g>
</g>
<!-- node_modules/express&#45;jwt -->
<g id="node15" class="node">
<title>node_modules/express&#45;jwt</title>
<g id="a_node15"><a xlink:href="https://www.npmjs.com/package/express-jwt" xlink:title="express&#45;jwt">
<polygon fill="#c40b0a" fill-opacity="0.101961" stroke="black" points="302.5,-184.25 241.39,-184.25 239.25,-182.11 239.25,-165 300.36,-165 302.5,-167.14 302.5,-184.25"/>
<polyline fill="none" stroke="black" points="300.36,-182.11 239.25,-182.11"/>
<polyline fill="none" stroke="black" points="300.36,-182.11 300.36,-165"/>
<polyline fill="none" stroke="black" points="300.36,-182.11 302.5,-184.25"/>
<text text-anchor="start" x="247.25" y="-171.7" font-family="Helvetica,sans-Serif" font-size="9.00" fill="#c40b0a">express&#45;jwt</text>
</a>
</g>
</g>
<!-- routes/index.js -->
<g id="node16" class="node">
<title>routes/index.js</title>
<g id="a_node16"><a xlink:href="routes/index.js" xlink:title="index.js">
<path fill="#ffffcc" stroke="black" d="M75.46,-241.25C75.46,-241.25 34.29,-241.25 34.29,-241.25 31.08,-241.25 27.88,-238.04 27.88,-234.83 27.88,-234.83 27.88,-228.42 27.88,-228.42 27.88,-225.21 31.08,-222 34.29,-222 34.29,-222 75.46,-222 75.46,-222 78.67,-222 81.88,-225.21 81.88,-228.42 81.88,-228.42 81.88,-234.83 81.88,-234.83 81.88,-238.04 78.67,-241.25 75.46,-241.25"/>
<text text-anchor="start" x="39.12" y="-228.7" font-family="Helvetica,sans-Serif" font-size="9.00">index.js</text>
</a>
</g>
</g>
<!-- routes/index.js&#45;&gt;controllers/authentication.js -->
<g id="edge15" class="edge">
<title>routes/index.js&#45;&gt;controllers/authentication.js</title>
<path fill="none" stroke="#000000" stroke-width="2" stroke-opacity="0.200000" d="M72.52,-241.63C84.74,-248.69 101.9,-258.03 117.75,-264.62 119.31,-265.28 120.92,-265.91 122.54,-266.53"/>
<polygon fill="#000000" fill-opacity="0.200000" stroke="#000000" stroke-width="2" stroke-opacity="0.200000" points="121.6,-268.43 127.96,-268.48 123.02,-264.48 121.6,-268.43"/>
</g>
<!-- routes/index.js&#45;&gt;controllers/trips.js -->
<g id="edge16" class="edge">
<title>routes/index.js&#45;&gt;controllers/trips.js</title>
<path fill="none" stroke="#000000" stroke-width="2" stroke-opacity="0.200000" d="M82.37,-235.7C97.15,-237.97 115.73,-240.82 131.68,-243.27"/>
<polygon fill="#000000" fill-opacity="0.200000" stroke="#000000" stroke-width="2" stroke-opacity="0.200000" points="130.98,-245.29 137.23,-244.13 131.62,-241.14 130.98,-245.29"/>
</g>
<!-- routes/index.js&#45;&gt;node_modules/express -->
<g id="edge17" class="edge">
<title>routes/index.js&#45;&gt;node_modules/express</title>
<path fill="none" stroke="#000000" stroke-opacity="0.200000" d="M82.2,-229.21C114.19,-226.68 169.78,-223.59 217.25,-227.62 223.42,-228.15 229.96,-229.01 236.25,-230"/>
<polygon fill="#000000" fill-opacity="0.200000" stroke="#000000" stroke-opacity="0.200000" points="235.73,-232.05 241.99,-230.96 236.42,-227.9 235.73,-232.05"/>
</g>
<!-- routes/index.js&#45;&gt;node_modules/express&#45;jwt -->
<g id="edge18" class="edge">
<title>routes/index.js&#45;&gt;node_modules/express&#45;jwt</title>
<path fill="none" stroke="#000000" stroke-opacity="0.200000" d="M82.12,-224.64C119.57,-214.66 188.59,-196.28 231.7,-184.79"/>
<polygon fill="#000000" fill-opacity="0.200000" stroke="#000000" stroke-opacity="0.200000" points="232.19,-186.83 237.45,-183.26 231.11,-182.78 232.19,-186.83"/>
</g>
</g>
</svg>
