<?xml version="1.0" encoding="UTF-8" standalone="no"?>
<!DOCTYPE svg PUBLIC "-//W3C//DTD SVG 1.1//EN"
 "http://www.w3.org/Graphics/SVG/1.1/DTD/svg11.dtd">
<!-- Generated by graphviz version 9.0.0 (20230911.1827)
 -->
<!-- Title: dependency&#45;cruiser output Pages: 1 -->
<svg width="306pt" height="321pt"
 viewBox="0.00 0.00 305.75 321.00" xmlns="http://www.w3.org/2000/svg" xmlns:xlink="http://www.w3.org/1999/xlink">
<g id="graph0" class="graph" transform="scale(1 1) rotate(0) translate(4 317)">
<title>dependency&#45;cruiser output</title>
<polygon fill="white" stroke="none" points="-4,4 -4,-317 301.75,-317 301.75,4 -4,4"/>
<g id="clust1" class="cluster">
<title>cluster_controllers</title>
<path fill="#ffffff" stroke="black" stroke-width="2" d="M137.75,-93C137.75,-93 183.75,-93 183.75,-93 189.75,-93 195.75,-99 195.75,-105 195.75,-105 195.75,-167 195.75,-167 195.75,-173 189.75,-179 183.75,-179 183.75,-179 137.75,-179 137.75,-179 131.75,-179 125.75,-173 125.75,-167 125.75,-167 125.75,-105 125.75,-105 125.75,-99 131.75,-93 137.75,-93"/>
<text text-anchor="middle" x="160.75" y="-166.45" font-family="Helvetica,sans-Serif" font-weight="bold" font-size="9.00">controllers</text>
</g>
<g id="clust5" class="cluster">
<title>cluster_routes</title>
<path fill="#ffffff" stroke="black" stroke-width="2" d="M31.88,-8C31.88,-8 77.88,-8 77.88,-8 83.88,-8 89.88,-14 89.88,-20 89.88,-20 89.88,-113 89.88,-113 89.88,-119 83.88,-125 77.88,-125 77.88,-125 31.88,-125 31.88,-125 25.88,-125 19.88,-119 19.88,-113 19.88,-113 19.88,-20 19.88,-20 19.88,-14 25.88,-8 31.88,-8"/>
<text text-anchor="middle" x="54.88" y="-112.45" font-family="Helvetica,sans-Serif" font-weight="bold" font-size="9.00">routes</text>
</g>
<g id="clust2" class="cluster">
<title>cluster_database</title>
<path fill="#ffffff" stroke="black" stroke-width="2" d="M129.75,-187C129.75,-187 191.75,-187 191.75,-187 197.75,-187 203.75,-193 203.75,-199 203.75,-199 203.75,-293 203.75,-293 203.75,-299 197.75,-305 191.75,-305 191.75,-305 129.75,-305 129.75,-305 123.75,-305 117.75,-299 117.75,-293 117.75,-293 117.75,-199 117.75,-199 117.75,-193 123.75,-187 129.75,-187"/>
<text text-anchor="middle" x="160.75" y="-292.45" font-family="Helvetica,sans-Serif" font-weight="bold" font-size="9.00">database</text>
</g>
<g id="clust3" class="cluster">
<title>cluster_database/models</title>
<path fill="#ffffff" stroke="black" stroke-width="2" d="M137.75,-195C137.75,-195 183.75,-195 183.75,-195 189.75,-195 195.75,-201 195.75,-207 195.75,-207 195.75,-238 195.75,-238 195.75,-244 189.75,-250 183.75,-250 183.75,-250 137.75,-250 137.75,-250 131.75,-250 125.75,-244 125.75,-238 125.75,-238 125.75,-207 125.75,-207 125.75,-201 131.75,-195 137.75,-195"/>
<text text-anchor="middle" x="160.75" y="-237.45" font-family="Helvetica,sans-Serif" font-weight="bold" font-size="9.00">models</text>
</g>
<g id="clust4" class="cluster">
<title>cluster_node_modules</title>
<path fill="#ffffff" stroke="black" stroke-width="2" d="M223.75,-61C223.75,-61 278.75,-61 278.75,-61 284.75,-61 290.75,-67 290.75,-73 290.75,-73 290.75,-166 290.75,-166 290.75,-172 284.75,-178 278.75,-178 278.75,-178 223.75,-178 223.75,-178 217.75,-178 211.75,-172 211.75,-166 211.75,-166 211.75,-73 211.75,-73 211.75,-67 217.75,-61 223.75,-61"/>
<text text-anchor="middle" x="251.25" y="-165.45" font-family="Helvetica,sans-Serif" font-weight="bold" font-size="9.00">node_modules</text>
</g>
<!-- ./travlr -->
<g id="node1" class="node">
<title>./travlr</title>
<g id="a_node1"><a xlink:title="travlr">
<path fill="#ffffcc" stroke="black" d="M271.83,-292.62C271.83,-292.62 230.67,-292.62 230.67,-292.62 227.46,-292.62 224.25,-289.42 224.25,-286.21 224.25,-286.21 224.25,-279.79 224.25,-279.79 224.25,-276.58 227.46,-273.38 230.67,-273.38 230.67,-273.38 271.83,-273.38 271.83,-273.38 275.04,-273.38 278.25,-276.58 278.25,-279.79 278.25,-279.79 278.25,-286.21 278.25,-286.21 278.25,-289.42 275.04,-292.62 271.83,-292.62"/>
<text text-anchor="start" x="241.5" y="-280.07" font-family="Helvetica,sans-Serif" font-size="9.00">travlr</text>
</a>
</g>
</g>
<!-- .dependency&#45;cruiser.js -->
<g id="node2" class="node">
<title>.dependency&#45;cruiser.js</title>
<g id="a_node2"><a xlink:href=".dependency-cruiser.js" xlink:title=".dependency&#45;cruiser.js">
<path fill="#ccffcc" stroke="black" d="M103.33,-152.62C103.33,-152.62 6.42,-152.62 6.42,-152.62 3.21,-152.62 0,-149.42 0,-146.21 0,-146.21 0,-139.79 0,-139.79 0,-136.58 3.21,-133.38 6.42,-133.38 6.42,-133.38 103.33,-133.38 103.33,-133.38 106.54,-133.38 109.75,-136.58 109.75,-139.79 109.75,-139.79 109.75,-146.21 109.75,-146.21 109.75,-149.42 106.54,-152.62 103.33,-152.62"/>
<text text-anchor="middle" x="54.88" y="-140.07" font-family="Helvetica,sans-Serif" font-size="9.00">.dependency&#45;cruiser.js</text>
</a>
</g>
</g>
<!-- controllers/main.js -->
<g id="node3" class="node">
<title>controllers/main.js</title>
<g id="a_node3"><a xlink:href="controllers/main.js" xlink:title="main.js">
<path fill="#ffffcc" stroke="black" d="M181.33,-151.62C181.33,-151.62 140.17,-151.62 140.17,-151.62 136.96,-151.62 133.75,-148.42 133.75,-145.21 133.75,-145.21 133.75,-138.79 133.75,-138.79 133.75,-135.58 136.96,-132.38 140.17,-132.38 140.17,-132.38 181.33,-132.38 181.33,-132.38 184.54,-132.38 187.75,-135.58 187.75,-138.79 187.75,-138.79 187.75,-145.21 187.75,-145.21 187.75,-148.42 184.54,-151.62 181.33,-151.62"/>
<text text-anchor="start" x="145.38" y="-139.07" font-family="Helvetica,sans-Serif" font-size="9.00">main.js</text>
</a>
</g>
</g>
<!-- controllers/travel.js -->
<g id="node4" class="node">
<title>controllers/travel.js</title>
<g id="a_node4"><a xlink:href="controllers/travel.js" xlink:title="travel.js">
<path fill="#ffffcc" stroke="black" d="M181.33,-120.62C181.33,-120.62 140.17,-120.62 140.17,-120.62 136.96,-120.62 133.75,-117.42 133.75,-114.21 133.75,-114.21 133.75,-107.79 133.75,-107.79 133.75,-104.58 136.96,-101.38 140.17,-101.38 140.17,-101.38 181.33,-101.38 181.33,-101.38 184.54,-101.38 187.75,-104.58 187.75,-107.79 187.75,-107.79 187.75,-114.21 187.75,-114.21 187.75,-117.42 184.54,-120.62 181.33,-120.62"/>
<text text-anchor="start" x="145" y="-108.08" font-family="Helvetica,sans-Serif" font-size="9.00">travel.js</text>
</a>
</g>
</g>
<!-- node_modules/request -->
<g id="node5" class="node">
<title>node_modules/request</title>
<g id="a_node5"><a xlink:href="https://www.npmjs.com/package/request" xlink:title="request">
<polygon fill="#c40b0a" fill-opacity="0.101961" stroke="black" points="278.25,-119.62 226.39,-119.62 224.25,-117.49 224.25,-100.38 276.11,-100.38 278.25,-102.51 278.25,-119.62"/>
<polyline fill="none" stroke="black" points="276.11,-117.49 224.25,-117.49"/>
<polyline fill="none" stroke="black" points="276.11,-117.49 276.11,-100.38"/>
<polyline fill="none" stroke="black" points="276.11,-117.49 278.25,-119.62"/>
<text text-anchor="start" x="235.5" y="-107.08" font-family="Helvetica,sans-Serif" font-size="9.00" fill="#c40b0a">request</text>
</a>
</g>
</g>
<!-- controllers/travel.js&#45;&gt;node_modules/request -->
<g id="edge1" class="edge">
<title>controllers/travel.js&#45;&gt;node_modules/request</title>
<path fill="none" stroke="#000000" stroke-opacity="0.200000" d="M187.82,-110.71C196.84,-110.6 207.07,-110.49 216.6,-110.38"/>
<polygon fill="#000000" fill-opacity="0.200000" stroke="#000000" stroke-opacity="0.200000" points="216.57,-112.48 222.54,-110.31 216.52,-108.28 216.57,-112.48"/>
</g>
<!-- database/db.js -->
<g id="node6" class="node">
<title>database/db.js</title>
<g id="a_node6"><a xlink:href="database/db.js" xlink:title="db.js">
<path fill="#ffffcc" stroke="black" d="M181.33,-277.62C181.33,-277.62 140.17,-277.62 140.17,-277.62 136.96,-277.62 133.75,-274.42 133.75,-271.21 133.75,-271.21 133.75,-264.79 133.75,-264.79 133.75,-261.58 136.96,-258.38 140.17,-258.38 140.17,-258.38 181.33,-258.38 181.33,-258.38 184.54,-258.38 187.75,-261.58 187.75,-264.79 187.75,-264.79 187.75,-271.21 187.75,-271.21 187.75,-274.42 184.54,-277.62 181.33,-277.62"/>
<text text-anchor="start" x="150.62" y="-265.07" font-family="Helvetica,sans-Serif" font-size="9.00">db.js</text>
</a>
</g>
</g>
<!-- database/db.js&#45;&gt;./travlr -->
<g id="edge2" class="edge">
<title>database/db.js&#45;&gt;./travlr</title>
<g id="a_edge2"><a xlink:title="not&#45;to&#45;unresolvable">
<path fill="none" stroke="red" stroke-width="2" d="M187.82,-272.42C196.39,-273.87 206.06,-275.51 215.18,-277.06"/>
<polygon fill="red" stroke="red" stroke-width="2" points="214.81,-279.12 221.07,-278.05 215.51,-274.98 214.81,-279.12"/>
</a>
</g>
<text text-anchor="middle" x="245.83" y="-266.96" font-family="Helvetica,sans-Serif" font-size="9.00" fill="red">not&#45;to&#45;unresolvable</text>
</g>
<!-- node_modules/mongoose -->
<g id="node7" class="node">
<title>node_modules/mongoose</title>
<g id="a_node7"><a xlink:href="https://www.npmjs.com/package/mongoose" xlink:title="mongoose">
<polygon fill="#c40b0a" fill-opacity="0.101961" stroke="black" points="281.75,-150.62 222.89,-150.62 220.75,-148.49 220.75,-131.38 279.61,-131.38 281.75,-133.51 281.75,-150.62"/>
<polyline fill="none" stroke="black" points="279.61,-148.49 220.75,-148.49"/>
<polyline fill="none" stroke="black" points="279.61,-148.49 279.61,-131.38"/>
<polyline fill="none" stroke="black" points="279.61,-148.49 281.75,-150.62"/>
<text text-anchor="start" x="228.75" y="-138.07" font-family="Helvetica,sans-Serif" font-size="9.00" fill="#c40b0a">mongoose</text>
</a>
</g>
</g>
<!-- database/db.js&#45;&gt;node_modules/mongoose -->
<g id="edge3" class="edge">
<title>database/db.js&#45;&gt;node_modules/mongoose</title>
<path fill="none" stroke="#000000" stroke-opacity="0.200000" d="M188.08,-262.36C193.76,-260.18 199.37,-257.16 203.75,-253 205.6,-251.25 231.21,-188.16 243.62,-157.46"/>
<polygon fill="#000000" fill-opacity="0.200000" stroke="#000000" stroke-opacity="0.200000" points="245.46,-158.5 245.76,-152.15 241.57,-156.93 245.46,-158.5"/>
</g>
<!-- readline -->
<g id="node8" class="node">
<title>readline</title>
<g id="a_node8"><a xlink:href="https://nodejs.org/api/readline.html" xlink:title="readline">
<path fill="#ffffcc" stroke="grey" d="M271.83,-261.62C271.83,-261.62 230.67,-261.62 230.67,-261.62 227.46,-261.62 224.25,-258.42 224.25,-255.21 224.25,-255.21 224.25,-248.79 224.25,-248.79 224.25,-245.58 227.46,-242.38 230.67,-242.38 230.67,-242.38 271.83,-242.38 271.83,-242.38 275.04,-242.38 278.25,-245.58 278.25,-248.79 278.25,-248.79 278.25,-255.21 278.25,-255.21 278.25,-258.42 275.04,-261.62 271.83,-261.62"/>
<text text-anchor="middle" x="251.25" y="-249.07" font-family="Helvetica,sans-Serif" font-size="9.00" fill="grey">readline</text>
</a>
</g>
</g>
<!-- database/db.js&#45;&gt;readline -->
<g id="edge4" class="edge">
<title>database/db.js&#45;&gt;readline</title>
<path fill="none" stroke="#000000" stroke-dasharray="5,2" stroke-opacity="0.200000" d="M187.82,-263.29C196.93,-261.64 207.27,-259.77 216.88,-258.03"/>
<polygon fill="#000000" fill-opacity="0.200000" stroke="#000000" stroke-opacity="0.200000" points="217.04,-260.14 222.57,-257 216.29,-256.01 217.04,-260.14"/>
</g>
<!-- database/models/travlr.js -->
<g id="node9" class="node">
<title>database/models/travlr.js</title>
<g id="a_node9"><a xlink:href="database/models/travlr.js" xlink:title="travlr.js">
<path fill="#ffffcc" stroke="black" d="M181.33,-222.62C181.33,-222.62 140.17,-222.62 140.17,-222.62 136.96,-222.62 133.75,-219.42 133.75,-216.21 133.75,-216.21 133.75,-209.79 133.75,-209.79 133.75,-206.58 136.96,-203.38 140.17,-203.38 140.17,-203.38 181.33,-203.38 181.33,-203.38 184.54,-203.38 187.75,-206.58 187.75,-209.79 187.75,-209.79 187.75,-216.21 187.75,-216.21 187.75,-219.42 184.54,-222.62 181.33,-222.62"/>
<text text-anchor="start" x="146.12" y="-210.07" font-family="Helvetica,sans-Serif" font-size="9.00">travlr.js</text>
</a>
</g>
</g>
<!-- database/models/travlr.js&#45;&gt;node_modules/mongoose -->
<g id="edge5" class="edge">
<title>database/models/travlr.js&#45;&gt;node_modules/mongoose</title>
<path fill="none" stroke="#000000" stroke-opacity="0.200000" d="M175.98,-202.97C184.22,-197.04 194.72,-189.29 203.75,-182 214.15,-173.6 225.41,-163.7 234.24,-155.73"/>
<polygon fill="#000000" fill-opacity="0.200000" stroke="#000000" stroke-opacity="0.200000" points="235.24,-157.66 238.28,-152.07 232.42,-154.55 235.24,-157.66"/>
</g>
<!-- node_modules/express -->
<g id="node10" class="node">
<title>node_modules/express</title>
<g id="a_node10"><a xlink:href="https://www.npmjs.com/package/express" xlink:title="express">
<polygon fill="#c40b0a" fill-opacity="0.101961" stroke="black" points="278.25,-88.62 226.39,-88.62 224.25,-86.49 224.25,-69.38 276.11,-69.38 278.25,-71.51 278.25,-88.62"/>
<polyline fill="none" stroke="black" points="276.11,-86.49 224.25,-86.49"/>
<polyline fill="none" stroke="black" points="276.11,-86.49 276.11,-69.38"/>
<polyline fill="none" stroke="black" points="276.11,-86.49 278.25,-88.62"/>
<text text-anchor="start" x="234.75" y="-76.08" font-family="Helvetica,sans-Serif" font-size="9.00" fill="#c40b0a">express</text>
</a>
</g>
</g>
<!-- routes/index.js -->
<g id="node11" class="node">
<title>routes/index.js</title>
<g id="a_node11"><a xlink:href="routes/index.js" xlink:title="index.js">
<path fill="#ffffcc" stroke="black" d="M75.46,-97.62C75.46,-97.62 34.29,-97.62 34.29,-97.62 31.08,-97.62 27.88,-94.42 27.88,-91.21 27.88,-91.21 27.88,-84.79 27.88,-84.79 27.88,-81.58 31.08,-78.38 34.29,-78.38 34.29,-78.38 75.46,-78.38 75.46,-78.38 78.67,-78.38 81.88,-81.58 81.88,-84.79 81.88,-84.79 81.88,-91.21 81.88,-91.21 81.88,-94.42 78.67,-97.62 75.46,-97.62"/>
<text text-anchor="start" x="39.12" y="-85.08" font-family="Helvetica,sans-Serif" font-size="9.00">index.js</text>
</a>
</g>
</g>
<!-- routes/index.js&#45;&gt;controllers/main.js -->
<g id="edge6" class="edge">
<title>routes/index.js&#45;&gt;controllers/main.js</title>
<path fill="none" stroke="#000000" stroke-width="2" stroke-opacity="0.200000" d="M69.62,-97.9C81.83,-106.39 100.39,-118.56 117.75,-127 120.26,-128.22 122.89,-129.39 125.56,-130.51"/>
<polygon fill="#000000" fill-opacity="0.200000" stroke="#000000" stroke-width="2" stroke-opacity="0.200000" points="124.45,-132.33 130.8,-132.56 125.98,-128.42 124.45,-132.33"/>
</g>
<!-- routes/index.js&#45;&gt;node_modules/express -->
<g id="edge7" class="edge">
<title>routes/index.js&#45;&gt;node_modules/express</title>
<path fill="none" stroke="#000000" stroke-opacity="0.200000" d="M82.09,-86.79C116.87,-85.18 178.31,-82.33 216.51,-80.56"/>
<polygon fill="#000000" fill-opacity="0.200000" stroke="#000000" stroke-opacity="0.200000" points="216.42,-82.67 222.32,-80.29 216.23,-78.47 216.42,-82.67"/>
</g>
<!-- routes/travel.js -->
<g id="node12" class="node">
<title>routes/travel.js</title>
<g id="a_node12"><a xlink:href="routes/travel.js" xlink:title="travel.js">
<path fill="#ffffcc" stroke="black" d="M75.46,-66.62C75.46,-66.62 34.29,-66.62 34.29,-66.62 31.08,-66.62 27.88,-63.42 27.88,-60.21 27.88,-60.21 27.88,-53.79 27.88,-53.79 27.88,-50.58 31.08,-47.38 34.29,-47.38 34.29,-47.38 75.46,-47.38 75.46,-47.38 78.67,-47.38 81.88,-50.58 81.88,-53.79 81.88,-53.79 81.88,-60.21 81.88,-60.21 81.88,-63.42 78.67,-66.62 75.46,-66.62"/>
<text text-anchor="start" x="39.12" y="-54.08" font-family="Helvetica,sans-Serif" font-size="9.00">travel.js</text>
</a>
</g>
</g>
<!-- routes/travel.js&#45;&gt;controllers/travel.js -->
<g id="edge8" class="edge">
<title>routes/travel.js&#45;&gt;controllers/travel.js</title>
<path fill="none" stroke="#000000" stroke-width="2" stroke-opacity="0.200000" d="M82.13,-62.12C91.17,-64.45 101.17,-67.67 109.75,-72 121.7,-78.02 133.57,-87.11 142.74,-95.01"/>
<polygon fill="#000000" fill-opacity="0.200000" stroke="#000000" stroke-width="2" stroke-opacity="0.200000" points="141.33,-96.56 147.21,-98.98 144.12,-93.43 141.33,-96.56"/>
</g>
<!-- routes/travel.js&#45;&gt;node_modules/express -->
<g id="edge9" class="edge">
<title>routes/travel.js&#45;&gt;node_modules/express</title>
<path fill="none" stroke="#000000" stroke-opacity="0.200000" d="M82.09,-59.97C116.87,-63.9 178.31,-70.86 216.51,-75.18"/>
<polygon fill="#000000" fill-opacity="0.200000" stroke="#000000" stroke-opacity="0.200000" points="216.13,-77.25 222.33,-75.84 216.6,-73.08 216.13,-77.25"/>
</g>
<!-- routes/users.js -->
<g id="node13" class="node">
<title>routes/users.js</title>
<g id="a_node13"><a xlink:href="routes/users.js" xlink:title="users.js">
<path fill="#ffffcc" stroke="black" d="M75.46,-35.62C75.46,-35.62 34.29,-35.62 34.29,-35.62 31.08,-35.62 27.88,-32.42 27.88,-29.21 27.88,-29.21 27.88,-22.79 27.88,-22.79 27.88,-19.58 31.08,-16.38 34.29,-16.38 34.29,-16.38 75.46,-16.38 75.46,-16.38 78.67,-16.38 81.88,-19.58 81.88,-22.79 81.88,-22.79 81.88,-29.21 81.88,-29.21 81.88,-32.42 78.67,-35.62 75.46,-35.62"/>
<text text-anchor="start" x="38" y="-23.07" font-family="Helvetica,sans-Serif" font-size="9.00">users.js</text>
</a>
</g>
</g>
<!-- routes/users.js&#45;&gt;node_modules/express -->
<g id="edge10" class="edge">
<title>routes/users.js&#45;&gt;node_modules/express</title>
<path fill="none" stroke="#000000" stroke-opacity="0.200000" d="M82.35,-31.12C112.16,-37.16 161.92,-48.02 203.75,-61 208.87,-62.59 214.22,-64.46 219.41,-66.38"/>
<polygon fill="#000000" fill-opacity="0.200000" stroke="#000000" stroke-opacity="0.200000" points="218.57,-68.31 224.92,-68.48 220.06,-64.39 218.57,-68.31"/>
</g>
</g>
</svg>
